<svg width="277" height="44" viewBox="0 0 277 44" fill="none" xmlns="http://www.w3.org/2000/svg">
<path d="M3.42 34C3.18 34 2.964 33.916 2.772 33.748C2.604 33.556 2.52 33.34 2.52 33.1V9.7C2.52 9.436 2.604 9.22 2.772 9.052C2.964 8.884 3.18 8.8 3.42 8.8H8.172C8.436 8.8 8.652 8.884 8.82 9.052C8.988 9.22 9.072 9.436 9.072 9.7V28.564H19.98C20.244 28.564 20.46 28.66 20.628 28.852C20.796 29.02 20.88 29.236 20.88 29.5V33.1C20.88 33.34 20.796 33.556 20.628 33.748C20.46 33.916 20.244 34 19.98 34H3.42Z" fill="#FF7939"/>
<path d="M22.2005 34C22.0725 34 21.9525 33.952 21.8405 33.856C21.7445 33.744 21.6965 33.624 21.6965 33.496C21.6965 33.4 21.7045 33.328 21.7205 33.28L27.3605 17.872C27.4085 17.68 27.5125 17.52 27.6725 17.392C27.8325 17.264 28.0405 17.2 28.2965 17.2H31.8485C32.1045 17.2 32.3125 17.264 32.4725 17.392C32.6325 17.52 32.7365 17.68 32.7845 17.872L38.4005 33.28L38.4485 33.496C38.4485 33.624 38.3925 33.744 38.2805 33.856C38.1845 33.952 38.0645 34 37.9205 34H34.9685C34.5845 34 34.3285 33.832 34.2005 33.496L33.2645 31.048H26.8565L25.9445 33.496C25.8165 33.832 25.5525 34 25.1525 34H22.2005ZM32.3045 27.592L30.0725 21.256L27.8405 27.592H32.3045ZM40.9402 34C40.7802 34 40.6362 33.944 40.5082 33.832C40.3962 33.704 40.3402 33.56 40.3402 33.4V17.8C40.3402 17.624 40.3962 17.48 40.5082 17.368C40.6362 17.256 40.7802 17.2 40.9402 17.2H43.4842C43.8842 17.2 44.1562 17.352 44.3002 17.656L50.1562 26.872V17.8C50.1562 17.624 50.2122 17.48 50.3242 17.368C50.4522 17.256 50.5962 17.2 50.7562 17.2H53.6362C53.8122 17.2 53.9562 17.256 54.0682 17.368C54.1802 17.48 54.2362 17.624 54.2362 17.8V33.376C54.2362 33.552 54.1802 33.704 54.0682 33.832C53.9562 33.944 53.8122 34 53.6362 34H51.0682C50.7162 34 50.4522 33.848 50.2762 33.544L44.4202 24.664V33.4C44.4202 33.56 44.3642 33.704 44.2522 33.832C44.1402 33.944 43.9962 34 43.8202 34H40.9402ZM64.5262 34.24C62.2222 34.24 60.4222 33.68 59.1262 32.56C57.8302 31.424 57.1422 29.816 57.0622 27.736C57.0462 27.272 57.0382 26.536 57.0382 25.528C57.0382 24.52 57.0462 23.784 57.0622 23.32C57.1422 21.288 57.8382 19.72 59.1502 18.616C60.4782 17.512 62.2702 16.96 64.5262 16.96C66.0462 16.96 67.3662 17.208 68.4862 17.704C69.6222 18.2 70.4862 18.832 71.0782 19.6C71.6862 20.368 72.0062 21.16 72.0382 21.976C72.0382 22.12 71.9822 22.24 71.8702 22.336C71.7742 22.432 71.6542 22.48 71.5102 22.48H68.0062C67.8462 22.48 67.7182 22.456 67.6222 22.408C67.5262 22.36 67.4462 22.272 67.3822 22.144C67.1742 21.68 66.8462 21.28 66.3982 20.944C65.9502 20.592 65.3262 20.416 64.5262 20.416C62.6222 20.416 61.6222 21.424 61.5262 23.44C61.5102 23.888 61.5022 24.584 61.5022 25.528C61.5022 26.456 61.5102 27.152 61.5262 27.616C61.6222 29.728 62.6462 30.784 64.5982 30.784C65.5422 30.784 66.2942 30.544 66.8542 30.064C67.4302 29.568 67.7182 28.816 67.7182 27.808V27.352H65.4622C65.2862 27.352 65.1422 27.296 65.0302 27.184C64.9182 27.056 64.8622 26.904 64.8622 26.728V24.952C64.8622 24.776 64.9182 24.632 65.0302 24.52C65.1422 24.392 65.2862 24.328 65.4622 24.328H71.5102C71.6862 24.328 71.8302 24.392 71.9422 24.52C72.0542 24.632 72.1102 24.776 72.1102 24.952V27.688C72.1102 29.048 71.7982 30.224 71.1742 31.216C70.5502 32.192 69.6622 32.944 68.5102 33.472C67.3742 33.984 66.0462 34.24 64.5262 34.24ZM81.9196 34.24C79.6636 34.24 77.8956 33.688 76.6156 32.584C75.3516 31.48 74.7196 29.816 74.7196 27.592V17.8C74.7196 17.624 74.7756 17.48 74.8876 17.368C75.0156 17.256 75.1596 17.2 75.3196 17.2H78.4156C78.5916 17.2 78.7356 17.256 78.8476 17.368C78.9756 17.48 79.0396 17.624 79.0396 17.8V27.568C79.0396 28.608 79.2796 29.392 79.7596 29.92C80.2556 30.432 80.9676 30.688 81.8956 30.688C82.8076 30.688 83.5116 30.424 84.0076 29.896C84.5036 29.368 84.7516 28.592 84.7516 27.568V17.8C84.7516 17.624 84.8076 17.48 84.9196 17.368C85.0476 17.256 85.1916 17.2 85.3516 17.2H88.4716C88.6476 17.2 88.7916 17.256 88.9036 17.368C89.0156 17.48 89.0716 17.624 89.0716 17.8V27.592C89.0716 29.816 88.4316 31.48 87.1516 32.584C85.8876 33.688 84.1436 34.24 81.9196 34.24ZM90.9192 34C90.7912 34 90.6712 33.952 90.5592 33.856C90.4632 33.744 90.4152 33.624 90.4152 33.496C90.4152 33.4 90.4232 33.328 90.4392 33.28L96.0792 17.872C96.1272 17.68 96.2312 17.52 96.3912 17.392C96.5512 17.264 96.7592 17.2 97.0152 17.2H100.567C100.823 17.2 101.031 17.264 101.191 17.392C101.351 17.52 101.455 17.68 101.503 17.872L107.119 33.28L107.167 33.496C107.167 33.624 107.111 33.744 106.999 33.856C106.903 33.952 106.783 34 106.639 34H103.687C103.303 34 103.047 33.832 102.919 33.496L101.983 31.048H95.5752L94.6632 33.496C94.5352 33.832 94.2712 34 93.8712 34H90.9192ZM101.023 27.592L98.7912 21.256L96.5592 27.592H101.023ZM115.643 34.24C113.339 34.24 111.539 33.68 110.243 32.56C108.947 31.424 108.259 29.816 108.179 27.736C108.163 27.272 108.155 26.536 108.155 25.528C108.155 24.52 108.163 23.784 108.179 23.32C108.259 21.288 108.955 19.72 110.267 18.616C111.595 17.512 113.387 16.96 115.643 16.96C117.163 16.96 118.483 17.208 119.603 17.704C120.739 18.2 121.603 18.832 122.195 19.6C122.803 20.368 123.123 21.16 123.155 21.976C123.155 22.12 123.099 22.24 122.987 22.336C122.891 22.432 122.771 22.48 122.627 22.48H119.123C118.963 22.48 118.835 22.456 118.739 22.408C118.643 22.36 118.563 22.272 118.499 22.144C118.291 21.68 117.963 21.28 117.515 20.944C117.067 20.592 116.443 20.416 115.643 20.416C113.739 20.416 112.739 21.424 112.643 23.44C112.627 23.888 112.619 24.584 112.619 25.528C112.619 26.456 112.627 27.152 112.643 27.616C112.739 29.728 113.763 30.784 115.715 30.784C116.659 30.784 117.411 30.544 117.971 30.064C118.547 29.568 118.835 28.816 118.835 27.808V27.352H116.579C116.403 27.352 116.259 27.296 116.147 27.184C116.035 27.056 115.979 26.904 115.979 26.728V24.952C115.979 24.776 116.035 24.632 116.147 24.52C116.259 24.392 116.403 24.328 116.579 24.328H122.627C122.803 24.328 122.947 24.392 123.059 24.52C123.171 24.632 123.227 24.776 123.227 24.952V27.688C123.227 29.048 122.915 30.224 122.291 31.216C121.667 32.192 120.779 32.944 119.627 33.472C118.491 33.984 117.163 34.24 115.643 34.24ZM126.581 34C126.421 34 126.277 33.944 126.149 33.832C126.037 33.704 125.981 33.56 125.981 33.4V17.8C125.981 17.624 126.037 17.48 126.149 17.368C126.277 17.256 126.421 17.2 126.581 17.2H137.789C137.965 17.2 138.109 17.256 138.221 17.368C138.333 17.48 138.389 17.624 138.389 17.8V20.056C138.389 20.216 138.333 20.36 138.221 20.488C138.109 20.6 137.965 20.656 137.789 20.656H130.133V23.896H137.261C137.437 23.896 137.581 23.96 137.693 24.088C137.805 24.2 137.861 24.344 137.861 24.52V26.608C137.861 26.768 137.805 26.912 137.693 27.04C137.581 27.152 137.437 27.208 137.261 27.208H130.133V30.544H137.981C138.157 30.544 138.301 30.6 138.413 30.712C138.525 30.824 138.581 30.968 138.581 31.144V33.4C138.581 33.56 138.525 33.704 138.413 33.832C138.301 33.944 138.157 34 137.981 34H126.581ZM179.076 34.24C176.788 34.24 174.996 33.688 173.7 32.584C172.42 31.464 171.74 29.848 171.66 27.736C171.644 27.304 171.636 26.6 171.636 25.624C171.636 24.632 171.644 23.912 171.66 23.464C171.74 21.384 172.436 19.784 173.748 18.664C175.06 17.528 176.836 16.96 179.076 16.96C180.484 16.96 181.748 17.2 182.868 17.68C183.988 18.144 184.868 18.816 185.508 19.696C186.164 20.56 186.5 21.576 186.516 22.744V22.792C186.516 22.92 186.46 23.032 186.348 23.128C186.252 23.208 186.14 23.248 186.012 23.248H182.772C182.564 23.248 182.404 23.208 182.292 23.128C182.18 23.032 182.084 22.864 182.004 22.624C181.78 21.808 181.428 21.24 180.948 20.92C180.468 20.584 179.836 20.416 179.052 20.416C177.164 20.416 176.188 21.472 176.124 23.584C176.108 24.016 176.1 24.68 176.1 25.576C176.1 26.472 176.108 27.152 176.124 27.616C176.188 29.728 177.164 30.784 179.052 30.784C179.836 30.784 180.476 30.616 180.972 30.28C181.468 29.928 181.812 29.36 182.004 28.576C182.068 28.336 182.156 28.176 182.268 28.096C182.38 28 182.548 27.952 182.772 27.952H186.012C186.156 27.952 186.276 28 186.372 28.096C186.484 28.192 186.532 28.312 186.516 28.456C186.5 29.624 186.164 30.648 185.508 31.528C184.868 32.392 183.988 33.064 182.868 33.544C181.748 34.008 180.484 34.24 179.076 34.24ZM187.868 34C187.74 34 187.62 33.952 187.508 33.856C187.412 33.744 187.364 33.624 187.364 33.496C187.364 33.4 187.372 33.328 187.388 33.28L193.028 17.872C193.076 17.68 193.18 17.52 193.34 17.392C193.5 17.264 193.708 17.2 193.964 17.2H197.516C197.772 17.2 197.98 17.264 198.14 17.392C198.3 17.52 198.404 17.68 198.452 17.872L204.068 33.28L204.116 33.496C204.116 33.624 204.06 33.744 203.948 33.856C203.852 33.952 203.732 34 203.588 34H200.636C200.252 34 199.996 33.832 199.868 33.496L198.932 31.048H192.524L191.612 33.496C191.484 33.832 191.22 34 190.82 34H187.868ZM197.972 27.592L195.74 21.256L193.508 27.592H197.972ZM206.608 34C206.448 34 206.304 33.944 206.176 33.832C206.064 33.704 206.008 33.56 206.008 33.4V17.8C206.008 17.624 206.064 17.48 206.176 17.368C206.304 17.256 206.448 17.2 206.608 17.2H212.848C215.2 17.2 217.024 17.76 218.32 18.88C219.616 20 220.296 21.624 220.36 23.752C220.376 24.216 220.384 24.832 220.384 25.6C220.384 26.368 220.376 26.976 220.36 27.424C220.28 29.648 219.616 31.304 218.368 32.392C217.136 33.464 215.336 34 212.968 34H206.608ZM212.848 30.544C213.904 30.544 214.68 30.296 215.176 29.8C215.672 29.288 215.936 28.48 215.968 27.376C216 26.912 216.016 26.312 216.016 25.576C216.016 24.84 216 24.248 215.968 23.8C215.936 22.728 215.648 21.936 215.104 21.424C214.576 20.912 213.784 20.656 212.728 20.656H210.328V30.544H212.848ZM223.788 34C223.628 34 223.484 33.944 223.356 33.832C223.244 33.704 223.188 33.56 223.188 33.4V17.8C223.188 17.624 223.244 17.48 223.356 17.368C223.484 17.256 223.628 17.2 223.788 17.2H234.996C235.172 17.2 235.316 17.256 235.428 17.368C235.54 17.48 235.596 17.624 235.596 17.8V20.056C235.596 20.216 235.54 20.36 235.428 20.488C235.316 20.6 235.172 20.656 234.996 20.656H227.34V23.896H234.468C234.644 23.896 234.788 23.96 234.9 24.088C235.012 24.2 235.068 24.344 235.068 24.52V26.608C235.068 26.768 235.012 26.912 234.9 27.04C234.788 27.152 234.644 27.208 234.468 27.208H227.34V30.544H235.188C235.364 30.544 235.508 30.6 235.62 30.712C235.732 30.824 235.788 30.968 235.788 31.144V33.4C235.788 33.56 235.732 33.704 235.62 33.832C235.508 33.944 235.364 34 235.188 34H223.788ZM239.116 34C238.956 34 238.812 33.944 238.684 33.832C238.572 33.704 238.516 33.56 238.516 33.4V17.8C238.516 17.624 238.572 17.48 238.684 17.368C238.812 17.256 238.956 17.2 239.116 17.2H241.708C242.092 17.2 242.372 17.376 242.548 17.728L246.772 25.288L250.996 17.728C251.172 17.376 251.452 17.2 251.836 17.2H254.404C254.58 17.2 254.724 17.256 254.836 17.368C254.964 17.48 255.028 17.624 255.028 17.8V33.4C255.028 33.576 254.964 33.72 254.836 33.832C254.724 33.944 254.58 34 254.404 34H251.548C251.372 34 251.22 33.944 251.092 33.832C250.98 33.72 250.924 33.576 250.924 33.4V24.4L248.236 29.416C248.028 29.784 247.748 29.968 247.396 29.968H246.148C245.94 29.968 245.772 29.92 245.644 29.824C245.516 29.728 245.404 29.592 245.308 29.416L242.596 24.4V33.4C242.596 33.56 242.54 33.704 242.428 33.832C242.316 33.944 242.172 34 241.996 34H239.116ZM263.311 34C263.151 34 263.007 33.944 262.879 33.832C262.767 33.704 262.711 33.56 262.711 33.4V28.24L257.143 17.968C257.095 17.824 257.071 17.736 257.071 17.704C257.071 17.576 257.119 17.464 257.215 17.368C257.327 17.256 257.455 17.2 257.599 17.2H260.599C260.919 17.2 261.199 17.368 261.439 17.704L264.871 23.896L268.327 17.704C268.519 17.368 268.799 17.2 269.167 17.2H272.167C272.311 17.2 272.431 17.256 272.527 17.368C272.623 17.464 272.671 17.576 272.671 17.704C272.671 17.784 272.655 17.872 272.623 17.968L267.055 28.24V33.4C267.055 33.576 266.991 33.72 266.863 33.832C266.751 33.944 266.607 34 266.431 34H263.311Z" fill="#2B2B2B"/>
<path d="M145.818 34C145.626 34 145.446 33.928 145.278 33.784C145.134 33.616 145.062 33.436 145.062 33.244C145.062 33.1 145.074 32.992 145.098 32.92L153.558 9.808C153.63 9.52 153.786 9.28 154.026 9.088C154.266 8.896 154.578 8.8 154.962 8.8H160.29C160.674 8.8 160.986 8.896 161.226 9.088C161.466 9.28 161.622 9.52 161.694 9.808L170.118 32.92L170.19 33.244C170.19 33.436 170.106 33.616 169.938 33.784C169.794 33.928 169.614 34 169.398 34H164.97C164.394 34 164.01 33.748 163.818 33.244L162.414 29.572H152.802L151.434 33.244C151.242 33.748 150.846 34 150.246 34H145.818ZM160.974 24.388L157.626 14.884L154.278 24.388H160.974Z" fill="#31DC9E"/>
</svg>
