<svg width="34" height="33" viewBox="0 0 34 33" fill="none" xmlns="http://www.w3.org/2000/svg">
<path d="M24.0653 19.6855C23.6649 19.4798 21.6703 18.5027 21.2993 18.3705C20.9283 18.2309 20.6565 18.1648 20.3883 18.5762C20.1165 18.9839 19.3451 19.8913 19.1026 20.1668C18.8675 20.4386 18.6288 20.4716 18.2284 20.2696C15.8481 19.0794 14.2869 18.1464 12.7184 15.4539C12.3033 14.7376 13.1335 14.789 13.9086 13.2425C14.0408 12.9707 13.9747 12.7393 13.8718 12.5336C13.769 12.3279 12.9608 10.3369 12.6229 9.52511C12.296 8.73535 11.958 8.84555 11.7119 8.83086C11.4768 8.81616 11.2087 8.81616 10.9368 8.81616C10.665 8.81616 10.2279 8.91902 9.85687 9.31941C9.48586 9.72715 8.43896 10.7079 8.43896 12.6989C8.43896 14.6898 9.88993 16.6183 10.0883 16.8901C10.294 17.162 12.9425 21.2467 17.0088 23.0062C19.5802 24.1156 20.5867 24.2111 21.8723 24.0201C22.6547 23.9025 24.2673 23.043 24.6016 22.0916C24.9359 21.1439 24.9359 20.3321 24.8367 20.1631C24.7375 19.9831 24.4657 19.8802 24.0653 19.6855Z" fill="black"/>
<path d="M31.8418 10.0796C31.0117 8.10704 29.8215 6.3365 28.3044 4.81574C26.7873 3.29865 25.0168 2.10482 23.0405 1.27832C21.0202 0.42978 18.875 0 16.6636 0H16.5902C14.3641 0.01102 12.2079 0.45182 10.1802 1.31873C8.22233 2.15625 6.46647 3.3464 4.96408 4.86349C3.46169 6.38058 2.28255 8.14377 1.46707 10.109C0.622204 12.144 0.196098 14.3076 0.207118 16.5337C0.218138 19.083 0.82791 21.6139 1.97032 23.8767V29.4601C1.97032 30.3931 2.72702 31.1498 3.66005 31.1498H9.24719C11.51 32.2923 14.0409 32.902 16.5902 32.913H16.6673C18.8676 32.913 21.0018 32.4869 23.0112 31.6531C24.9764 30.8339 26.7433 29.6585 28.2567 28.1561C29.7738 26.6537 30.9676 24.8978 31.8014 22.94C32.6683 20.9123 33.1091 18.756 33.1202 16.53C33.1312 14.2929 32.6977 12.122 31.8418 10.0796ZM26.2914 26.1688C23.7164 28.7181 20.3002 30.1213 16.6636 30.1213H16.6012C14.3862 30.1103 12.1859 29.5593 10.2427 28.5234L9.9341 28.3581H4.76205V23.1861L4.59675 22.8775C3.56087 20.9343 3.00987 18.734 2.99885 16.519C2.98416 12.8567 4.3837 9.41842 6.95135 6.82872C9.51534 4.23902 12.9426 2.80642 16.6049 2.79173H16.6673C18.504 2.79173 20.2855 3.14804 21.9643 3.85332C23.6026 4.54024 25.0719 5.52836 26.3355 6.79199C27.5955 8.05194 28.5873 9.52495 29.2742 11.1633C29.9868 12.8603 30.3431 14.6603 30.3358 16.519C30.3137 20.1776 28.8775 23.6048 26.2914 26.1688Z" fill="black"/>
</svg>
