<svg width="34" height="33" viewBox="0 0 34 33" fill="none" xmlns="http://www.w3.org/2000/svg">
<path d="M16.9985 8.01274C12.3259 8.01274 8.55476 11.7838 8.55476 16.4565C8.55476 21.1292 12.3259 24.9003 16.9985 24.9003C21.6712 24.9003 25.4423 21.1292 25.4423 16.4565C25.4423 11.7838 21.6712 8.01274 16.9985 8.01274ZM16.9985 21.9444C13.9767 21.9444 11.5107 19.4783 11.5107 16.4565C11.5107 13.4347 13.9767 10.9687 16.9985 10.9687C20.0204 10.9687 22.4864 13.4347 22.4864 16.4565C22.4864 19.4783 20.0204 21.9444 16.9985 21.9444ZM25.7882 5.69903C24.6972 5.69903 23.8162 6.58005 23.8162 7.67103C23.8162 8.76201 24.6972 9.64303 25.7882 9.64303C26.8791 9.64303 27.7602 8.76613 27.7602 7.67103C27.7605 7.41197 27.7097 7.1554 27.6107 6.916C27.5117 6.6766 27.3665 6.45907 27.1833 6.27589C27.0001 6.09271 26.7826 5.94747 26.5432 5.84848C26.3038 5.74949 26.0472 5.69871 25.7882 5.69903ZM33.458 16.4565C33.458 14.184 33.4785 11.932 33.3509 9.66362C33.2233 7.02879 32.6222 4.69039 30.6955 2.76367C28.7647 0.832841 26.4304 0.235888 23.7956 0.108264C21.523 -0.0193601 19.2711 0.00122455 17.0027 0.00122455C14.7301 0.00122455 12.4782 -0.0193601 10.2098 0.108264C7.57494 0.235888 5.23653 0.836958 3.30982 2.76367C1.37898 4.6945 0.782031 7.02879 0.654407 9.66362C0.526783 11.9362 0.547367 14.1881 0.547367 16.4565C0.547367 18.7249 0.526783 20.981 0.654407 23.2494C0.782031 25.8843 1.3831 28.2227 3.30982 30.1494C5.24065 32.0802 7.57494 32.6772 10.2098 32.8048C12.4823 32.9324 14.7342 32.9118 17.0027 32.9118C19.2752 32.9118 21.5272 32.9324 23.7956 32.8048C26.4304 32.6772 28.7688 32.0761 30.6955 30.1494C32.6263 28.2185 33.2233 25.8843 33.3509 23.2494C33.4827 20.981 33.458 18.7291 33.458 16.4565ZM29.8351 26.1642C29.5345 26.9135 29.1723 27.4734 28.5918 28.0497C28.0113 28.6302 27.4555 28.9925 26.7062 29.2931C24.5407 30.1535 19.3987 29.96 16.9985 29.96C14.5984 29.96 9.45225 30.1535 7.28675 29.2972C6.53747 28.9966 5.97757 28.6344 5.40121 28.0539C4.82072 27.4734 4.45843 26.9176 4.1579 26.1683C3.30158 23.9987 3.49508 18.8567 3.49508 16.4565C3.49508 14.0564 3.30158 8.91022 4.1579 6.74473C4.45843 5.99545 4.82072 5.43555 5.40121 4.85918C5.98169 4.28281 6.53747 3.91641 7.28675 3.61587C9.45225 2.75956 14.5984 2.95305 16.9985 2.95305C19.3987 2.95305 24.5448 2.75956 26.7103 3.61587C27.4596 3.91641 28.0195 4.2787 28.5959 4.85918C29.1764 5.43967 29.5387 5.99545 29.8392 6.74473C30.6955 8.91022 30.502 14.0564 30.502 16.4565C30.502 18.8567 30.6955 23.9987 29.8351 26.1642Z" fill="black"/>
</svg>
