<svg width="118" height="150" viewBox="0 0 118 150" fill="none" xmlns="http://www.w3.org/2000/svg">
<path d="M77.4121 95.7637V146.344L111.051 143.419V130.255L109.747 128.208L111.051 125.868V112.704L109.881 110.657L111.051 108.317V101.614C111.051 100.496 111.149 99.5257 111.303 98.6888L77.4121 95.7637Z" fill="#F4DAA7"/>
<path d="M80.3372 130.255H111.051V125.867H80.3372V112.704H111.051V108.316H80.3372V98.6885H111.303C111.878 95.5487 113.245 94.3008 113.245 94.3008L93.0865 75.2872L73.7556 94.3008C73.7556 94.3008 75.9495 96.3001 75.9495 101.614V147.806H111.051V143.418H80.3372V130.255Z" fill="#F0C87E"/>
<path d="M102.514 38.723L100.065 33.7502L102.514 29.9475C102.514 29.9475 95.7356 20.4729 93.5002 5.99658C91.2651 20.4729 84.4872 29.9475 84.4872 29.9475L86.9355 33.7502L84.4872 38.723L75.9492 47.4985L93.5002 51.8862L111.051 47.4985L102.514 38.723Z" fill="#5F6C75"/>
<path d="M113.245 56.2739H111.052L108.126 54.0625L111.052 51.8862V47.4984H80.3373L75.9496 56.2739L73.0244 92.8384L115.439 89.9133V58.4678C115.439 57.2562 114.457 56.2739 113.245 56.2739Z" fill="#F8E7C7"/>
<path d="M75.9496 89.1086V56.2739H73.7558C72.5442 56.2739 71.5619 57.2562 71.5619 58.4678V92.1072C71.5619 93.3188 72.5442 94.301 73.7558 94.301H113.245C114.457 94.301 115.439 93.3188 115.439 92.1072V89.9133H76.7541C76.3097 89.9133 75.9496 89.5529 75.9496 89.1086Z" fill="#F4DAA7"/>
<path d="M80.3372 47.4984H75.9495V56.2739H111.051V51.8862H81.361C80.7956 51.8862 80.3372 51.4278 80.3372 50.8623V47.4984Z" fill="#F4DAA7"/>
<path d="M102.514 34.3355L86.9357 35.7981L88.8751 29.9478H102.514V34.3355Z" fill="#F8E7C7"/>
<path d="M88.8749 29.9476H84.4872V38.7231H102.514V34.3354H89.8987C89.3333 34.3354 88.8749 33.877 88.8749 33.3116V29.9476Z" fill="#F4DAA7"/>
<path d="M104.47 85.5256H82.5312C81.3196 85.5256 80.3373 84.5433 80.3373 83.3317V61.393C80.3373 60.1814 81.3196 59.1991 82.5312 59.1991H104.47C105.681 59.1991 106.664 60.1814 106.664 61.393V83.3317C106.664 84.5433 105.681 85.5256 104.47 85.5256Z" fill="#CF9875"/>
<path d="M93.5005 59.1991C90.6874 59.1991 88.0825 60.0843 85.9434 61.5875C84.4401 63.7267 82.3849 67.5016 82.3849 70.3147C82.3849 77.5846 88.2782 83.4779 95.5481 83.4779C98.3612 83.4779 102.136 81.4227 104.275 79.9195C105.779 77.7803 106.664 75.1755 106.664 72.3623C106.664 65.0924 100.77 59.1991 93.5005 59.1991Z" fill="#E9EDF1"/>
<path d="M83.555 69.1447C83.555 66.3315 84.4404 63.7267 85.9434 61.5875C82.5543 63.9689 80.3373 67.9056 80.3373 72.3624C80.3373 79.6323 86.2306 85.5256 93.5005 85.5256C97.9573 85.5256 101.894 83.3086 104.275 79.9195C102.136 81.4228 99.5313 82.3079 96.7182 82.3079C89.4483 82.3079 83.555 76.4146 83.555 69.1447Z" fill="#C8D2DC"/>
<path d="M61.3238 130.255C61.3238 130.255 56.3744 120.781 54.7421 106.304C53.1099 120.781 48.1605 130.255 48.1605 130.255L54.7421 133.568L61.3238 130.255Z" fill="#5F6C75"/>
<path d="M27.4246 130.255C27.4246 130.255 22.4752 120.781 20.843 106.304C19.2107 120.781 14.2614 130.255 14.2614 130.255L20.843 133.568L27.4246 130.255Z" fill="#5F6C75"/>
<path d="M18.649 147.806H27.8449L37.7018 145.629L52.5482 147.806H61.3234L61.3237 130.255H52.5482L49.5929 144.769L27.4245 139.031V130.255H18.649L15.7239 139.067L18.649 147.806Z" fill="#F8E7C7"/>
<path d="M18.6491 130.255V147.806H14.2614V130.255H18.6491ZM48.1605 130.255V139.031L46.0026 139.908L43.7727 139.031H27.4246V147.806H43.7727L45.484 147.221L48.1605 147.806H52.5482V130.255H48.1605Z" fill="#F4DAA7"/>
<path d="M43.7727 139.031H48.1604V147.806H43.7727V139.031Z" fill="#F0C87E"/>
<path d="M111.052 150C109.84 150 108.858 149.018 108.858 147.806V132.449H101.545V147.806C101.545 149.018 100.563 150 99.3509 150C98.139 150 97.157 149.018 97.157 147.806V132.449H89.8441V147.806C89.8441 149.018 88.8621 150 87.6502 150C86.4383 150 85.4564 149.018 85.4564 147.806V132.449H78.1435V147.806C78.1435 149.018 77.1615 150 75.9496 150H61.3235C60.7417 150 60.1838 149.769 59.772 149.357C59.3607 148.946 59.1296 148.388 59.1296 147.806L59.1299 132.449H50.3544L50.3541 147.806C50.3541 149.018 49.3719 150 48.1603 150C46.9484 150 45.9664 149.018 45.9664 147.806V141.225H39.9865V147.806C39.9865 149.018 39.0045 150 37.7926 150C36.5807 150 35.5987 149.018 35.5987 147.806V141.225H29.6188V147.806C29.6188 149.018 28.6368 150 27.4249 150C26.213 150 25.2311 149.018 25.2311 147.806V132.449H16.4556V147.806C16.4556 149.018 15.4736 150 14.2617 150H2.56106C1.34916 150 0.367188 149.018 0.367188 147.806C0.367188 146.595 1.34916 145.612 2.56106 145.612H12.0678V130.255C12.0678 129.901 12.1533 129.553 12.3174 129.239C12.3636 129.15 17.0743 119.962 18.6495 106.18V102.501C18.6495 101.29 19.6314 100.308 20.8433 100.308C22.0552 100.308 23.0372 101.29 23.0372 102.501V106.18C24.6127 119.962 29.3228 129.15 29.3705 129.241C29.5328 129.554 29.6188 129.903 29.6188 130.255V136.837H35.5987V130.255C35.5987 129.044 36.5807 128.061 37.7926 128.061C39.0045 128.061 39.9865 129.044 39.9865 130.255V136.837H45.9667V130.255C45.9667 130.253 45.9667 130.251 45.9667 130.249C45.9667 130.248 45.9667 130.248 45.9667 130.248C45.9667 130.246 45.9667 130.244 45.9667 130.242C45.9667 130.241 45.9667 130.24 45.9667 130.24C45.9667 130.238 45.9667 130.237 45.9667 130.236C45.9667 130.234 45.9667 130.232 45.9667 130.231C45.9667 130.23 45.9667 130.23 45.967 130.23C45.9711 129.863 46.0652 129.517 46.2288 129.215C46.5005 128.679 51.0129 119.611 52.5483 106.18V102.501C52.5483 101.29 53.5303 100.307 54.7422 100.307C55.9541 100.307 56.936 101.29 56.936 102.501V106.18C58.47 119.601 62.9771 128.665 63.2561 129.215C63.4205 129.52 63.5147 129.868 63.5176 130.238V130.239V130.242V130.248V130.249V130.255L63.5173 145.612H73.7557V101.614C73.7557 98.6845 73.0148 97.0519 72.5652 96.3309C70.7223 95.8108 69.368 94.1142 69.368 92.1072V58.4679C69.368 56.0485 71.3363 54.0801 73.7557 54.0801V47.4985C73.7557 46.9269 73.9786 46.3782 74.377 45.9686L82.2934 37.832V29.9475C82.2934 29.4897 82.4364 29.0434 82.7029 28.671C82.7658 28.5823 89.159 19.4725 91.3064 5.82663V2.19387C91.3064 0.98227 92.2884 0 93.5003 0C94.7122 0 95.6941 0.98227 95.6941 2.19387V5.82663C97.8412 19.4725 104.234 28.5823 104.299 28.6733C104.563 29.0448 104.707 29.4915 104.707 29.9475V37.832L112.624 45.9686C113.022 46.3782 113.245 46.9269 113.245 47.4985V54.0801C115.665 54.0801 117.633 56.0485 117.633 58.4679V66.5121C117.633 67.7237 116.651 68.7059 115.439 68.7059C114.227 68.7059 113.245 67.7237 113.245 66.5121V58.4679H107.009C105.797 58.4679 104.815 57.4856 104.815 56.274C104.815 55.0624 105.797 54.0801 107.009 54.0801H108.857V49.6924H78.1432V54.0801H79.991C81.2029 54.0801 82.1849 55.0624 82.1849 56.274C82.1849 57.4856 81.2029 58.4679 79.991 58.4679H73.7557V92.1072H113.245V75.2875C113.245 74.0759 114.227 73.0937 115.439 73.0937C116.651 73.0937 117.633 74.0759 117.633 75.2875V92.1072C117.633 94.1142 116.279 95.8108 114.436 96.3309C113.986 97.0519 113.245 98.6845 113.245 101.614V147.806C113.245 149.018 112.263 150 111.052 150ZM101.545 128.061H108.858V114.898H101.545V116.232C101.545 117.444 100.563 118.426 99.3509 118.426C98.139 118.426 97.157 117.444 97.157 116.232V114.898H89.8441V128.061H97.157V125.007C97.157 123.796 98.139 122.814 99.3509 122.814C100.563 122.814 101.545 123.796 101.545 125.007V128.061ZM78.1435 128.061H85.4564V114.898H78.1435V128.061ZM51.5529 128.061H57.9315C57.0223 125.84 55.8227 122.539 54.7425 118.363C53.6616 122.539 52.4623 125.84 51.5529 128.061ZM17.6537 128.061H24.0326C23.1232 125.84 21.9239 122.539 20.8433 118.363C19.7625 122.539 18.5632 125.84 17.6537 128.061ZM101.545 110.51H108.858V101.614C108.858 99.4994 109.171 97.8104 109.593 96.4947H77.4084C77.8299 97.8104 78.1435 99.4994 78.1435 101.614V110.51H85.4564V103.076C85.4564 101.865 86.4383 100.882 87.6502 100.882C88.8621 100.882 89.8441 101.865 89.8441 103.076V110.51H97.157V103.076C97.157 101.865 98.139 100.882 99.3509 100.882C100.563 100.882 101.545 101.865 101.545 103.076V110.51ZM114.77 95.8781C114.77 95.8781 114.77 95.8781 114.77 95.8781V95.8781ZM81.145 45.3046H105.856L101.587 40.9169H99.3509C98.139 40.9169 97.157 39.9346 97.157 38.723C97.157 37.5114 98.139 36.5291 99.3509 36.5291H100.32V32.1414H86.6814V36.5291H90.5757C91.7876 36.5291 92.7696 37.5114 92.7696 38.723C92.7696 39.9346 91.7876 40.9169 90.5757 40.9169H85.4139L81.145 45.3046ZM88.4008 27.7537H98.6003C97.1184 25.0783 95.127 20.9538 93.5006 15.7055C91.8742 20.9538 89.8827 25.078 88.4008 27.7537ZM93.5006 87.7195C88.4137 87.7195 83.897 85.2337 81.1005 81.4128C81.0604 81.3654 81.0218 81.316 80.9853 81.2645C80.9499 81.2151 80.9171 81.1645 80.8864 81.113C79.1576 78.6287 78.1432 75.6117 78.1432 72.3621C78.1432 63.894 85.0325 57.005 93.5003 57.005C101.968 57.005 108.857 63.894 108.857 72.3621C108.857 80.8301 101.968 87.7195 93.5006 87.7195ZM86.0183 80.3767C87.9796 82.2088 90.6114 83.3317 93.5006 83.3317C99.5492 83.3317 104.47 78.411 104.47 72.3624C104.47 67.0652 100.695 62.6327 95.6944 61.6133V68.1092L95.979 67.9068C96.9675 67.2041 98.3364 67.4358 99.0385 68.4228C99.7408 69.41 99.5097 70.7799 98.5225 71.4819L95.6944 73.4935V75.2872C95.6944 76.4988 94.7125 77.4811 93.5006 77.4811C92.695 77.4811 91.9906 77.0467 91.6091 76.3997L86.0183 80.3767ZM91.3067 61.6133C86.3058 62.6327 82.5312 67.0649 82.5312 72.3624C82.5312 73.9426 82.867 75.4458 83.4711 76.8042L91.3067 71.2303V61.6133Z" fill="black"/>
</svg>
