<svg width="146" height="146" viewBox="0 0 146 146" fill="none" xmlns="http://www.w3.org/2000/svg">
<path d="M98.7812 110.681L94.3187 100.781C92.4273 96.1758 90.7539 91.4813 89.3031 86.7188L86.7555 77.3438C83.8633 65.2664 82.375 52.8094 82.375 40.2211V30.4688H63.625V40.2211C63.625 52.8117 62.1367 65.2664 59.2445 77.3438L56.6969 86.7188C55.2461 91.4813 53.5703 96.1758 51.6812 100.781L47.4766 110.156C41.7742 121.849 34.6234 132.879 26.125 142.969H54.25V138.281C54.25 127.927 62.6453 119.531 73 119.531C83.3547 119.531 91.75 127.927 91.75 138.281V142.969H119.875C111.505 133.029 104.441 122.18 98.7812 110.681Z" fill="#A8B0BC"/>
<path d="M63.625 21.0938H82.375V30.4688H63.625V21.0938Z" fill="#4D5D7A"/>
<path d="M68.3125 11.7188H77.6875V21.0938H68.3125V11.7188Z" fill="#8892A0"/>
<path d="M40.1875 100.781H105.812V110.156H40.1875V100.781Z" fill="#4D5D7A"/>
<path d="M49.5625 77.3438H96.4375V86.7188H49.5625V77.3438Z" fill="#4D5D7A"/>
<path d="M12.0625 128.906C17.2402 128.906 21.4375 124.709 21.4375 119.531C21.4375 114.354 17.2402 110.156 12.0625 110.156C6.88483 110.156 2.6875 114.354 2.6875 119.531C2.6875 124.709 6.88483 128.906 12.0625 128.906Z" fill="#78B75B"/>
<path d="M133.938 128.906C139.115 128.906 143.312 124.709 143.312 119.531C143.312 114.354 139.115 110.156 133.938 110.156C128.76 110.156 124.562 114.354 124.562 119.531C124.562 124.709 128.76 128.906 133.938 128.906Z" fill="#78B75B"/>
<path d="M33.1562 58.5938C33.0766 58.5938 33.0016 58.6148 32.9219 58.6172C31.8461 53.257 27.1141 49.2188 21.4375 49.2188C15.7609 49.2188 11.0289 53.257 9.95312 58.6172C9.87344 58.6148 9.79844 58.5938 9.71875 58.5938C5.83516 58.5938 2.6875 61.7414 2.6875 65.625C2.6875 69.5086 5.83516 72.6562 9.71875 72.6562C11.6898 72.6562 13.4641 71.8406 14.7414 70.5352C16.6422 71.8641 18.9438 72.6562 21.4375 72.6562C23.9312 72.6562 26.2328 71.8641 28.1336 70.5352C29.4109 71.8406 31.1852 72.6562 33.1562 72.6562C37.0398 72.6562 40.1875 69.5086 40.1875 65.625C40.1875 61.7414 37.0398 58.5938 33.1562 58.5938Z" fill="#A1CDFB"/>
<path d="M136.281 58.5938C136.202 58.5938 136.127 58.6148 136.047 58.6172C134.971 53.257 130.239 49.2188 124.562 49.2188C118.886 49.2188 114.154 53.257 113.078 58.6172C112.998 58.6148 112.923 58.5938 112.844 58.5938C108.96 58.5938 105.812 61.7414 105.812 65.625C105.812 69.5086 108.96 72.6562 112.844 72.6562C114.815 72.6562 116.589 71.8406 117.866 70.5352C119.767 71.8641 122.069 72.6562 124.562 72.6562C127.056 72.6562 129.358 71.8641 131.259 70.5352C132.536 71.8406 134.31 72.6562 136.281 72.6562C140.165 72.6562 143.312 69.5086 143.312 65.625C143.312 61.7414 140.165 58.5938 136.281 58.5938Z" fill="#A1CDFB"/>
<path d="M0.34375 140.625H145.656V145.312H0.34375V140.625Z" fill="black"/>
<path d="M12.0625 131.25C5.60078 131.25 0.34375 125.993 0.34375 119.531C0.34375 113.07 5.60078 107.812 12.0625 107.812C18.5242 107.812 23.7812 113.07 23.7812 119.531C23.7812 125.993 18.5242 131.25 12.0625 131.25ZM12.0625 112.5C8.18594 112.5 5.03125 115.655 5.03125 119.531C5.03125 123.408 8.18594 126.562 12.0625 126.562C15.9391 126.562 19.0938 123.408 19.0938 119.531C19.0938 115.655 15.9391 112.5 12.0625 112.5Z" fill="black"/>
<path d="M9.71875 117.188H14.4062V142.969H9.71875V117.188Z" fill="black"/>
<path d="M133.938 131.25C127.476 131.25 122.219 125.993 122.219 119.531C122.219 113.07 127.476 107.812 133.938 107.812C140.399 107.812 145.656 113.07 145.656 119.531C145.656 125.993 140.399 131.25 133.938 131.25ZM133.938 112.5C130.061 112.5 126.906 115.655 126.906 119.531C126.906 123.408 130.061 126.562 133.938 126.562C137.814 126.562 140.969 123.408 140.969 119.531C140.969 115.655 137.814 112.5 133.938 112.5Z" fill="black"/>
<path d="M131.594 117.188H136.281V142.969H131.594V117.188Z" fill="black"/>
<path d="M82.375 32.8125H63.625C62.3313 32.8125 61.2812 31.7648 61.2812 30.4688V21.0938C61.2812 19.7977 62.3313 18.75 63.625 18.75H82.375C83.6688 18.75 84.7188 19.7977 84.7188 21.0938V30.4688C84.7188 31.7648 83.6688 32.8125 82.375 32.8125ZM65.9688 28.125H80.0312V23.4375H65.9688V28.125Z" fill="black"/>
<path d="M80.0312 21.0938H75.3438V14.0625H70.6562V21.0938H65.9688V11.7188C65.9688 10.4227 67.0188 9.375 68.3125 9.375H77.6875C78.9812 9.375 80.0312 10.4227 80.0312 11.7188V21.0938Z" fill="black"/>
<path d="M70.6562 0H75.3438V11.7188H70.6562V0Z" fill="black"/>
<path d="M27.918 144.48L24.332 141.459C32.6406 131.592 39.7187 120.715 45.3695 109.13L49.5836 111.185C43.7617 123.115 36.475 134.318 27.918 144.48Z" fill="black"/>
<path d="M53.8516 101.672L49.5133 99.8908C51.3696 95.3697 53.0313 90.708 54.4539 86.0369L58.9375 87.4009C57.4727 92.215 55.7617 97.015 53.8516 101.672Z" fill="black"/>
<path d="M61.525 77.8875L56.9664 76.7977C59.8281 64.8352 61.2813 52.5281 61.2813 40.2188V30.4688H65.9688V40.2188C65.9688 52.8937 64.4735 65.5687 61.525 77.8875Z" fill="black"/>
<path d="M118.082 144.481C109.656 134.47 102.454 123.448 96.679 111.717L100.884 109.648C106.492 121.036 113.484 131.74 121.668 141.457L118.082 144.481Z" fill="black"/>
<path d="M92.1485 101.672C90.2406 97.0196 88.5274 92.2172 87.0602 87.4032L91.5438 86.0344C92.9688 90.7102 94.6328 95.3719 96.4867 99.8907L92.1485 101.672Z" fill="black"/>
<path d="M84.475 77.8875C81.5266 65.5687 80.0312 52.8937 80.0312 40.2188V30.4688H84.7187V40.2188C84.7187 52.5281 86.1719 64.8352 89.0336 76.7977L84.475 77.8875Z" fill="black"/>
<path d="M94.0938 142.969H89.4062V138.281C89.4062 129.237 82.0469 121.875 73 121.875C63.9531 121.875 56.5938 129.237 56.5938 138.281V142.969H51.9062V138.281C51.9062 126.649 61.3703 117.188 73 117.188C84.6297 117.188 94.0938 126.649 94.0938 138.281V142.969Z" fill="black"/>
<path d="M105.812 112.5H40.1875C38.8938 112.5 37.8438 111.452 37.8438 110.156V100.781C37.8438 99.4852 38.8938 98.4375 40.1875 98.4375H105.812C107.106 98.4375 108.156 99.4852 108.156 100.781V110.156C108.156 111.452 107.106 112.5 105.812 112.5ZM42.5312 107.812H103.469V103.125H42.5312V107.812Z" fill="black"/>
<path d="M96.4375 89.0625H49.5625C48.2688 89.0625 47.2188 88.0148 47.2188 86.7188V77.3438C47.2188 76.0477 48.2688 75 49.5625 75H96.4375C97.7313 75 98.7812 76.0477 98.7812 77.3438V86.7188C98.7812 88.0148 97.7313 89.0625 96.4375 89.0625ZM51.9062 84.375H94.0938V79.6875H51.9062V84.375Z" fill="black"/>
<path d="M61.4121 99.9812L66.0966 85.913L70.545 87.3943L65.8605 101.462L61.4121 99.9812Z" fill="black"/>
<path d="M75.47 87.5068L79.9184 86.0256L84.6029 100.094L80.1544 101.575L75.47 87.5068Z" fill="black"/>
<path d="M61.9574 32.1316L65.2715 28.8175L84.0191 47.5652L80.705 50.8792L61.9574 32.1316Z" fill="black"/>
<path d="M61.9574 47.5652L80.7051 28.8175L84.0191 32.1316L65.2715 50.8792L61.9574 47.5652Z" fill="black"/>
<path d="M61.9561 50.8777L65.2701 47.5636L87.0054 69.2989L83.6913 72.613L61.9561 50.8777Z" fill="black"/>
<path d="M58.9668 69.3015L80.7021 47.5662L84.0162 50.8803L62.2809 72.6156L58.9668 69.3015Z" fill="black"/>
<path d="M33.1562 75C31.2625 75 29.4578 74.4422 27.925 73.4016C23.9219 75.4992 18.9555 75.4992 14.9523 73.4016C13.4172 74.4422 11.6125 75 9.71875 75C4.54844 75 0.34375 70.7953 0.34375 65.625C0.34375 60.9938 3.71641 57.1406 8.13203 56.3859C10.0516 50.7797 15.3836 46.875 21.4375 46.875C27.4914 46.875 32.8234 50.7797 34.743 56.3859C39.1586 57.1406 42.5312 60.9938 42.5312 65.625C42.5312 70.7953 38.3266 75 33.1562 75ZM28.1313 68.1938C28.7453 68.1938 29.3523 68.4352 29.807 68.8992C30.7023 69.8086 31.8906 70.3125 33.1562 70.3125C35.7414 70.3125 37.8438 68.2102 37.8438 65.625C37.8438 63.0703 35.793 60.9867 33.25 60.9375C33.1164 60.9539 32.9992 60.9609 32.9219 60.9609C31.8086 60.9609 30.8453 60.1758 30.625 59.0789C29.7484 54.7242 25.8859 51.5625 21.4375 51.5625C16.9891 51.5625 13.1266 54.7242 12.25 59.0789C12.025 60.1992 10.9961 60.9727 9.88516 60.9609C9.79609 60.9563 9.60156 60.9375 9.51484 60.9258C7.13359 60.9375 5.03125 63.0398 5.03125 65.625C5.03125 68.2102 7.13359 70.3125 9.71875 70.3125C10.9844 70.3125 12.1727 69.8086 13.068 68.8969C13.8695 68.0766 15.1445 67.9594 16.0844 68.6156C19.2602 70.8352 23.6148 70.8352 26.7906 68.6156C27.1984 68.332 27.6672 68.1938 28.1313 68.1938Z" fill="black"/>
<path d="M136.281 75C134.388 75 132.583 74.4422 131.05 73.4016C127.047 75.4992 122.08 75.4992 118.077 73.4016C116.542 74.4422 114.738 75 112.844 75C107.673 75 103.469 70.7953 103.469 65.625C103.469 60.9938 106.841 57.1406 111.257 56.3859C113.177 50.7797 118.509 46.875 124.562 46.875C130.616 46.875 135.948 50.7797 137.868 56.3859C142.284 57.1406 145.656 60.9938 145.656 65.625C145.656 70.7953 141.452 75 136.281 75ZM131.256 68.1938C131.87 68.1938 132.477 68.4352 132.932 68.8992C133.827 69.8086 135.016 70.3125 136.281 70.3125C138.866 70.3125 140.969 68.2102 140.969 65.625C140.969 63.0703 138.918 60.9867 136.375 60.9375C136.241 60.9539 136.127 60.9609 136.047 60.9609C134.934 60.9609 133.97 60.1758 133.75 59.0789C132.873 54.7242 129.011 51.5625 124.562 51.5625C120.114 51.5625 116.252 54.7242 115.375 59.0789C115.15 60.1992 114.135 60.9727 113.01 60.9609C112.921 60.9563 112.727 60.9375 112.64 60.9258C110.259 60.9375 108.156 63.0398 108.156 65.625C108.156 68.2102 110.259 70.3125 112.844 70.3125C114.109 70.3125 115.298 69.8086 116.193 68.8969C116.992 68.0766 118.27 67.9594 119.209 68.6156C122.385 70.8352 126.74 70.8352 129.916 68.6156C130.323 68.332 130.792 68.1938 131.256 68.1938Z" fill="black"/>
</svg>
