<svg width="150" height="150" viewBox="0 0 150 150" fill="none" xmlns="http://www.w3.org/2000/svg">
<path d="M147.732 117.073H2.26843V147.805H147.732V117.073Z" fill="#FF5352"/>
<path d="M111.805 91.0245H93.5123V117.073H111.805V91.0245Z" fill="#FF5352"/>
<path d="M139.024 57.366H120.732V117.073H139.024V57.366Z" fill="#FF5352"/>
<path d="M147.732 117.073V147.805H109.976V122.927H96.9835C96.9835 122.927 100.56 120.284 104.798 117.073H120.732V102.155L131.634 84.082L139.025 96.3337V117.073H147.732Z" fill="#F23030"/>
<path d="M143.295 52.9321C134.388 48.551 131.744 41.5385 123.063 37.0623C122.961 37.1238 122.862 37.1882 122.757 37.2468C119.878 38.8529 117.598 40.5108 116.335 42.9164C124.392 46.8421 127.339 52.9142 134.144 57.3662H139.024C140.867 55.964 142.34 54.6363 143.295 52.9321Z" fill="#FF5352"/>
<path d="M97.1989 69.7593C96.6958 70.1809 96.1448 70.5667 95.538 70.9051C93.402 72.0966 91.5964 73.3177 90.2906 74.8505L106.464 91.0241H111.805C113.183 89.9759 114.352 88.9681 115.255 87.8149L97.1989 69.7593Z" fill="#EDCE83"/>
<path d="M36.2197 60.0875C25.0113 71.2959 18.5185 64.8673 7.33618 75.9784C7.81694 76.4076 8.32202 76.8353 8.85376 77.2684H30.805C34.8246 74.2109 37.3904 71.4541 37.3904 65.7222C37.3904 63.4757 36.9796 61.6423 36.2258 60.0796L36.2197 60.0875Z" fill="#81C784"/>
<path d="M85.6831 90.7319V117.073H24.8051V90.7319L30.8051 78.9484L49.0977 43.0246V30.4392H60.1465V43.0246L85.6831 90.7319Z" fill="#FF5352"/>
<path d="M43.2439 65.7221C43.2439 72.8723 40.1472 76.999 36.6586 80.0576V117.073H24.8051V90.7319L41.5992 57.7524C42.7054 60.129 43.2439 62.7396 43.2439 65.7221Z" fill="#F23030"/>
<path d="M30.805 77.2683H8.85376V117.073H30.805V77.2683Z" fill="#FF5352"/>
<path d="M85.6831 90.7319V95.2041C84.7084 97.0656 83.4032 98.5846 81.9513 99.9162V117.073H51.9513V99.8227C49.0187 97.0216 46.6421 93.5212 46.4751 88.2091C46.1883 79.1974 51.6235 74.9271 56.9795 71.9388C58.9696 70.8296 59.2682 68.933 59.2682 67.9026V61.9817L70.3609 62.1077L85.6831 90.7319Z" fill="#F23030"/>
<path d="M68.7805 67.9448H65.1219C65.1219 71.6318 63.343 75.0921 59.83 77.0518C55.2193 79.6237 52.144 82.329 52.3244 88.0243C52.4574 92.2114 54.6178 94.5745 57.8047 97.1708H76.0977C79.4472 94.6231 81.5856 92.3257 81.5856 87.5488C81.5856 82.1075 78.6945 79.5695 74.2871 77.0488C70.9666 75.1501 68.7805 71.7698 68.7805 67.9448Z" fill="#80D8FF"/>
<path d="M55.7563 12.9034L53.5611 12.8779C53.5611 15.0901 52.4938 17.1916 50.3862 18.3676C47.6197 19.9109 45.7746 21.534 45.883 24.9512C45.9626 27.4637 47.1858 28.8813 49.098 30.4391H60.1467C62.1565 28.9104 63.4394 27.5319 63.4394 24.6658C63.4394 21.4013 61.7047 19.8781 59.0604 18.3658C57.0676 17.2265 55.7563 15.1982 55.7563 12.9034Z" fill="#E9B875"/>
<path d="M36.2258 60.0794C34.952 57.4398 32.6973 55.5742 29.7873 53.8035C19.1751 64.0269 13.3608 58.8683 2.70581 69.2286C3.44614 71.9508 5.09585 73.9805 7.33618 75.9786C18.5185 64.8674 25.0113 71.2961 36.2197 60.0877L36.2258 60.0794Z" fill="white"/>
<path d="M28.6324 53.122C24.6477 50.8436 22.0245 46.7871 22.0245 42.1969H17.6343C17.6343 46.6213 15.4994 50.7736 11.2839 53.1255C5.75121 56.2119 2.06097 59.4583 2.27748 66.2927C2.31146 67.3641 2.46205 68.3318 2.70609 69.228C13.3608 58.868 19.175 64.0263 29.7875 53.8029C29.4125 53.5749 29.0282 53.3482 28.6324 53.122Z" fill="#81C784"/>
<path d="M88.0321 81.878C88.1651 86.0651 90.3254 88.4282 93.5124 91.0245H106.464L90.29 74.8508C88.7771 76.6265 87.9351 78.8211 88.0321 81.878Z" fill="#81C784"/>
<path d="M117.293 81.4025C117.293 75.9612 114.402 73.4232 109.994 70.9025C106.674 69.0035 104.488 65.6235 104.488 61.7982H100.829C100.829 64.8483 99.6082 67.7408 97.1985 69.7591L115.254 87.8147C116.547 86.1647 117.293 84.2144 117.293 81.4025Z" fill="#81C784"/>
<path d="M143.295 52.9321C144.076 51.5381 144.512 49.8931 144.512 47.7439C144.512 42.3026 141.621 39.7646 137.214 37.2439C133.893 35.3449 131.707 31.9227 131.707 28.0974H128.049C128.049 31.674 126.37 35.0724 123.063 37.062C131.744 41.5385 134.388 48.5507 143.295 52.9321Z" fill="#81C784"/>
<path d="M116.335 42.916C115.576 44.363 115.184 46.0801 115.252 48.2193C115.385 52.4064 117.545 54.7695 120.732 57.3658H134.145C127.34 52.9142 124.392 46.8418 116.335 42.916Z" fill="#81C784"/>
<path d="M30.805 77.2683H8.85376V83.1218H30.805V77.2683Z" fill="#F23030"/>
<path d="M58.0435 23.9999H51.3046C49.4589 23.9999 47.707 23.082 46.7405 21.5094C46.7308 21.4936 46.7211 21.4777 46.7115 21.4619C46.141 22.393 45.8364 23.5115 45.8821 24.9509C45.9617 27.4634 47.1849 28.8811 49.0968 30.4388H60.1455C62.1553 28.9101 63.4382 27.5316 63.4382 24.6655C63.4382 23.3478 63.1517 22.3171 62.6407 21.4531C62.6349 21.4628 62.6293 21.4725 62.6235 21.4821C61.6675 23.0738 59.9006 23.9999 58.0435 23.9999Z" fill="#DA9D4F"/>
<path d="M60.1464 30.4392H49.0977V36.2927H60.1464V30.4392Z" fill="#F23030"/>
<path d="M76.0977 97.1707H57.8051V117.073H76.0977V97.1707Z" fill="#FF5352"/>
<path d="M139.024 57.366H120.732V63.2195H139.024V57.366Z" fill="#F23030"/>
<path d="M111.805 91.0245H93.5123V96.8781H111.805V91.0245Z" fill="#F23030"/>
<path d="M76.0977 97.1708H57.8051V103.024H76.0977V97.1708Z" fill="#F23030"/>
<path d="M37.3904 65.7221C37.3904 64.7723 37.3127 63.9001 37.1709 63.0872C37.059 63.0992 36.9916 63.1115 36.9887 63.1235C35.8042 67.8687 31.4264 71.1221 26.5353 71.1221H13.5826C11.6387 72.2237 9.58208 73.7468 7.33618 75.9787C7.81694 76.4079 8.32202 76.8356 8.85376 77.2686H30.805C34.8246 74.2112 37.3904 71.4543 37.3904 65.7221Z" fill="#4CAF50"/>
<path d="M72.5657 90.7318H61.3895C58.5586 90.7318 55.855 89.4287 54.1898 87.1395C53.5664 86.2822 53.0806 85.3597 52.7604 84.3135C52.4346 85.3972 52.2802 86.6194 52.3248 88.0245C52.4578 92.2116 54.6181 94.5747 57.805 97.171H76.0977C79.4472 94.6233 81.5856 92.3259 81.5856 87.549C81.5856 86.3481 81.4441 85.2891 81.1772 84.3398C81.1385 84.477 81.0975 84.6114 81.0539 84.7436C79.8577 88.3617 76.3769 90.7318 72.5657 90.7318Z" fill="#40C4FF"/>
<path d="M67.6465 67.9448H66.2564C66.2564 71.6318 65.5802 75.0921 64.2454 77.0518C62.4935 79.6237 61.3248 82.329 61.3934 88.0243C61.4438 92.2114 62.2649 94.5745 63.4758 97.1708H70.4271C71.7 94.6231 72.5124 92.3257 72.5124 87.5488C72.5124 82.1075 71.4138 79.5695 69.7389 77.0488C68.4771 75.1501 67.6465 71.7698 67.6465 67.9448Z" fill="white"/>
<path d="M61.5565 90.7319C61.8583 93.3484 62.5532 95.1933 63.4758 97.1711H70.427C71.3792 95.2653 72.0732 93.4993 72.363 90.7319H61.5565Z" fill="#D8D7DA"/>
<path d="M115.254 81.6687C115.245 81.6801 115.236 81.6918 115.227 81.7033C113.616 83.7423 111.117 84.8779 108.519 84.8779H96.9281C94.2829 84.8779 91.7625 83.6861 90.1363 81.6001C89.3675 80.6137 88.7824 79.5482 88.4262 78.3098C88.1288 79.3581 87.9897 80.5346 88.0321 81.8779C88.1652 86.065 90.3255 88.4281 93.5124 91.0244H111.805C113.183 89.9761 114.351 88.9683 115.254 87.8152C116.547 86.1649 117.293 84.2143 117.293 81.4024C117.293 80.2622 117.164 79.2505 116.923 78.3388C116.581 79.627 116.013 80.7004 115.254 81.6687Z" fill="#4CAF50"/>
<path d="M108.519 84.878H100.317L106.463 91.0245H111.805C113.182 89.9762 114.351 88.9684 115.254 87.8153L111.717 84.2786C110.709 84.6708 109.623 84.878 108.519 84.878Z" fill="#EABE5C"/>
<path d="M143.295 46.4931C143.227 46.615 143.156 46.7345 143.083 46.8529C141.478 49.4307 138.59 50.9269 135.554 50.9269H124.307C121.483 50.9269 118.786 49.6261 117.123 47.3436C116.497 46.4855 116.01 45.5618 115.689 44.5144C115.364 45.5972 115.207 46.816 115.251 48.2196C115.385 52.4067 117.545 54.7698 120.732 57.3661H139.024C140.867 55.9645 142.34 54.6365 143.295 52.9323C144.076 51.5383 144.512 49.8933 144.512 47.7441C144.512 46.5391 144.37 45.4771 144.101 44.5255C143.9 45.2401 143.632 45.8919 143.295 46.4931Z" fill="#4CAF50"/>
<path d="M135.554 50.9268H126.697C128.942 53.1733 131.176 55.4236 134.145 57.366H139.025C140.867 55.9644 142.34 54.6364 143.295 52.9322C141.657 52.1262 140.231 51.2309 138.94 50.2791C137.877 50.7012 136.727 50.9268 135.554 50.9268Z" fill="#F23030"/>
<path d="M85.6831 111.219H8.85376V117.073H85.6831V111.219Z" fill="#F23030"/>
<path d="M111.805 111.219H93.5123V117.073H111.805V111.219Z" fill="#F23030"/>
<path d="M139.024 111.219H120.732V117.073H139.024V111.219Z" fill="#F23030"/>
<path d="M147.439 117.073H115.83V147.805H147.439V117.073Z" fill="#FF5352"/>
<path d="M139.821 108.987L131.634 95.4146L123.448 108.987C121.513 112.195 118.916 114.951 115.829 117.073H147.439C144.353 114.951 141.755 112.194 139.821 108.987Z" fill="#81C784"/>
<path d="M131.77 124.977C127.833 124.902 124.61 128.22 124.61 132.158V147.805H138.659V132C138.659 128.166 135.587 125.049 131.77 124.977Z" fill="#616161"/>
<path d="M131.77 124.977C127.833 124.902 124.61 128.22 124.61 132.158V138.304C124.61 134.366 127.833 131.048 131.77 131.123C135.587 131.195 138.659 134.312 138.659 138.146V132C138.659 128.166 135.587 125.049 131.77 124.977Z" fill="#424242"/>
<path d="M147.439 117.073H115.83V122.927H147.439V117.073Z" fill="#F23030"/>
<path d="M148.151 114.878C145.545 112.981 143.372 110.625 141.701 107.854L141.22 107.056V58.4379C144.11 56.1199 146.708 53.231 146.708 47.7439C146.708 40.7314 142.37 37.6638 138.304 35.3382C135.589 33.786 133.903 31.0113 133.903 28.0975V25.9022H132.074V21.2194H135.732V16.8293H132.073V13.1707H127.683V16.8293H124.025V21.2194H127.683V25.9022H125.854V28.0975C125.854 31.2167 124.335 33.8528 121.688 35.3297C117.389 37.7273 112.824 40.9037 113.058 48.2892C113.212 53.1776 115.748 56.0235 118.537 58.3957V76.2949C117.037 72.7025 113.992 70.6594 111.084 68.9968C108.328 67.4209 106.683 64.7297 106.683 61.7982V59.603H104.854V54.2924H108.513V49.9022H104.854V46.2437H100.464V49.9022H96.8054V54.2924H100.464V59.603H98.6347V61.7982C98.6347 64.8905 97.1162 67.5111 94.4686 68.988C90.1702 71.3856 85.6046 74.562 85.8387 81.9475C85.9934 86.8359 88.529 89.6818 91.3178 92.054V114.878H87.8786V100.39H83.4885V114.878H78.293V98.2424C81.1825 95.9244 83.7808 93.0354 83.7808 87.5484C83.7808 80.5359 79.4429 77.4683 75.377 75.1427C72.6211 73.5668 70.9761 70.8756 70.9761 67.9441V65.7489H69.1468V60.0949H72.8054V55.7051H69.1465V52.0465H64.7563V55.7051H61.0977V60.0952H64.7563V65.7492H62.927V67.9444C62.927 71.0367 61.4086 73.6573 58.761 75.1342C54.4626 77.5318 49.897 80.7082 50.131 88.0937C50.2857 92.9821 52.8214 95.828 55.6101 98.2002V114.878H33.0003V78.3439C36.438 75.6228 39.37 72.4737 39.5739 66.404L39.6395 66.4374L50.4436 45.2197H58.8319L61.0315 49.3289L64.9022 47.257L62.342 42.474V31.495C64.0585 30.0478 65.6347 28.1101 65.6347 24.6662C65.6347 20.2113 62.9988 18.0896 60.15 16.4604C58.7736 15.6735 57.9515 14.3435 57.9515 12.9035V10.7335L56.8541 10.7209V8.04902H60.5127V3.65859H56.8541V0H52.4639V3.65859H48.8054V8.04873H52.4639V10.6699L51.3665 10.6573V12.878C51.3665 14.4217 50.6194 15.7242 49.3172 16.4505C46.3063 18.1298 43.5404 20.3309 43.6892 25.0204C43.7883 28.1417 45.2888 30.0141 46.9028 31.4534V42.4975L38.3042 59.3842C36.4919 55.4191 33.0313 53.1085 29.7225 51.2162C26.2769 49.246 24.22 45.8742 24.22 42.1969V40.0017H22.0248V34.9755H25.6834V30.5854H22.0242V26.9268H17.6341V30.5854H13.9755V34.9755H17.6341V40.0017H15.4388V42.1969C15.4388 46.0714 13.5346 49.3559 10.214 51.2083C5.16912 54.0229 -0.190157 57.7468 0.08289 66.3621C0.265996 72.1415 3.32752 75.4907 6.65799 78.3V114.878H0.0732221V150H149.927V114.878H148.151ZM57.9513 40.8293H51.293V32.6341H57.9515V40.8293H57.9513ZM51.4555 20.2846C52.8474 19.5079 53.9496 18.3932 54.6893 17.0643C55.4473 18.3595 56.5649 19.4678 57.9703 20.2714C60.5097 21.7233 61.2439 22.7092 61.2439 24.6656C61.2439 26.3051 60.7453 27.1301 59.3871 28.2437H49.9008C48.5458 27.0451 48.1189 26.2148 48.0767 24.8813C48.0114 22.8144 48.769 21.7831 51.4555 20.2846ZM141.537 114.878H121.724C123.079 113.431 124.287 111.846 125.327 110.121L131.634 99.6647L137.941 110.121C138.981 111.844 140.184 113.432 141.537 114.878ZM129.439 85.1707V94.8038L122.927 105.6V59.5608H136.83V99.7772L133.83 94.8038V85.1707H129.439ZM129.899 31.1188C130.753 34.4218 132.98 37.3509 136.124 39.1494C140.232 41.4981 142.317 43.4728 142.317 47.7437C142.317 48.5019 142.255 49.1736 142.134 49.7883C139.081 47.9147 136.839 45.673 134.491 43.3233C132.253 41.0836 129.952 38.7861 126.894 36.7673C128.366 35.1914 129.398 33.2563 129.899 31.1188ZM123.096 39.5807C126.485 41.5274 128.873 43.9131 131.385 46.4265C133.87 48.9135 136.429 51.4696 140.015 53.6361C139.519 54.1406 138.943 54.6419 138.274 55.1704H134.823C132.345 53.4636 130.394 51.5212 128.345 49.4698C125.827 46.9491 123.233 44.3584 119.573 42.1743C120.471 41.2526 121.645 40.4285 123.096 39.5807ZM117.446 48.15C117.422 47.3991 117.468 46.7212 117.573 46.0931C120.638 47.9689 122.886 50.2175 125.239 52.573C126.1 53.4346 126.972 54.3073 127.895 55.1704H121.524C118.896 52.9488 117.541 51.1485 117.446 48.15ZM102.673 64.8311C103.514 68.1199 105.714 70.9834 108.905 72.808C113.012 75.1567 115.097 77.1313 115.097 81.4022C115.097 82.4771 114.978 83.3836 114.733 84.1893L100.276 69.7321C101.423 68.308 102.242 66.6434 102.673 64.8311ZM96.607 72.8224C96.7248 72.7567 96.8379 72.6864 96.9527 72.6179L112.2 87.8651C111.85 88.181 111.472 88.4997 111.055 88.8293H107.373L93.4216 74.8781C94.3058 74.1794 95.3648 73.5152 96.607 72.8224ZM109.61 93.2194V114.878H95.7073V93.2194H109.61ZM90.2262 81.8083C90.1837 80.4724 90.3507 79.3556 90.7119 78.3768L101.164 88.8287H94.3037C91.6758 86.6071 90.3214 84.8071 90.2262 81.8083ZM79.3904 87.5487C79.3904 91.0456 78.1371 92.7706 75.3472 94.9755H73.7174C74.3557 92.9985 74.7073 90.7506 74.7073 87.5487C74.7073 83.7522 74.1958 81.1652 73.3019 79.0154C77.3385 81.3375 79.3904 83.3148 79.3904 87.5487ZM66.0595 78.2874C66.406 77.7788 66.7169 77.1867 66.9934 76.5293C67.268 77.1712 67.5735 77.7563 67.9107 78.2637C69.2276 80.245 70.3172 82.3113 70.3172 87.5487C70.3172 91.2401 69.7919 93.2355 69.0357 94.9755H64.9075C64.079 92.9555 63.6246 91.0189 63.588 87.9978C63.5218 82.4783 64.7194 80.255 66.0595 78.2874ZM73.9025 99.3659V114.878H60V99.3659H73.9025ZM54.5188 87.9548C54.3791 83.5526 56.4609 81.4887 60.605 79.137C59.6836 81.3677 59.151 84.1008 59.1984 88.0506C59.2327 90.8909 59.6062 93.0252 60.2358 94.9755H58.5967C55.9684 92.7536 54.614 90.9536 54.5188 87.9548ZM35.1952 65.722C35.1952 70.118 33.5352 72.3398 30.0556 75.0732H11.6455C15.5402 72.0064 18.842 71.1231 22.2984 70.1988C26.233 69.1471 30.2809 68.0631 35.1014 64.0775C35.1627 64.5952 35.1952 65.1404 35.1952 65.722ZM28.6098 79.4634V114.878H11.049V79.4634H28.6098ZM4.49793 64.7596C4.8284 60.1336 7.58436 57.7031 12.3536 55.0421C16.393 52.7889 19.0277 48.9044 19.6743 44.3918H19.9986C20.5998 48.2593 22.7806 51.7269 26.1307 54.1204C22.2302 57.3018 19.0257 58.3028 15.6633 59.352C12.2259 60.4242 8.69471 61.5281 4.49793 64.7596ZM5.2409 69.8593C9.72801 65.804 13.2533 64.7024 16.9705 63.5429C20.9118 62.3133 24.9779 61.0424 30.0307 56.5649C31.4689 57.5458 32.6095 58.5445 33.4488 59.6974C28.8222 63.9076 25.0936 64.9072 21.1649 65.9575C16.9591 67.0819 12.6234 68.2412 7.3532 72.9448C6.42479 71.954 5.72107 70.9611 5.2409 69.8593ZM113.634 145.61H4.46365V119.268H113.634V145.61ZM115.117 114.878H114V92.0965C115.821 90.636 117.524 88.9482 118.537 86.5277V111.866C117.502 112.973 116.358 113.976 115.117 114.878ZM136.464 145.61H126.805V132.158C126.805 130.817 127.36 129.502 128.329 128.553C129.26 127.638 130.468 127.146 131.729 127.172C134.34 127.221 136.464 129.388 136.464 132V145.61ZM145.537 145.61H140.854V132C140.854 127.012 136.798 122.877 131.812 122.782C129.362 122.737 127.034 123.672 125.254 125.419C123.45 127.189 122.415 129.645 122.415 132.158V145.61H118.025V119.268H145.537V145.61Z" fill="black"/>
<path d="M109.244 141.073H104.854V132.293H109.244V141.073ZM109.244 127.903H104.854V123.512H109.244V127.903Z" fill="white"/>
<path d="M98.5775 141.073H94.1874V132.293H98.5775V141.073ZM98.5775 127.903H94.1874V123.512H98.5775V127.903Z" fill="white"/>
<path d="M87.9108 141.073H83.5206V132.293H87.9108V141.073ZM87.9108 127.903H83.5206V123.512H87.9108V127.903Z" fill="white"/>
<path d="M77.2441 141.073H72.854V132.293H77.2441V141.073ZM77.2441 127.903H72.854V123.512H77.2441V127.903Z" fill="white"/>
<path d="M66.5774 141.073H62.1873V132.293H66.5774V141.073ZM66.5774 127.903H62.1873V123.512H66.5774V127.903Z" fill="white"/>
<path d="M55.9106 141.073H51.5205V132.293H55.9106V141.073ZM55.9106 127.903H51.5205V123.512H55.9106V127.903Z" fill="white"/>
<path d="M45.244 141.073H40.8539V132.293H45.244V141.073ZM45.244 127.903H40.8539V123.512H45.244V127.903Z" fill="white"/>
<path d="M34.5773 141.073H30.1871V132.293H34.5773V141.073ZM34.5773 127.903H30.1871V123.512H34.5773V127.903Z" fill="white"/>
<path d="M23.9106 141.073H19.5205V132.293H23.9106V141.073ZM23.9106 127.903H19.5205V123.512H23.9106V127.903Z" fill="white"/>
<path d="M13.2439 141.073H8.85376V132.293H13.2439V141.073ZM13.2439 127.903H8.85376V123.512H13.2439V127.903Z" fill="white"/>
<path d="M42.5123 110.049H38.1222V105.848H42.5123V110.049ZM42.5123 101.458H38.1222V90.3676L45.5475 68.5954L49.7027 70.0124L42.5123 91.0959V101.458ZM51.1198 65.857L46.9646 64.4399L48.3817 60.2847L52.5368 61.7018L51.1198 65.857ZM53.9542 57.5466L49.7991 56.1295L51.2161 51.9744L55.3713 53.3915L53.9542 57.5466Z" fill="white"/>
<path d="M132.073 77.8535H127.683V73.4634H132.073V77.8535ZM132.073 69.0732H127.683V64.6831H132.073V69.0732Z" fill="white"/>
</svg>
