<svg width="344" height="345" viewBox="0 0 344 345" fill="none" xmlns="http://www.w3.org/2000/svg">
<g opacity="0.15" filter="url(#filter0_d_1645_14490)">
<path d="M172 300.659C244.901 300.659 304 241.56 304 168.659C304 95.7573 244.901 36.6589 172 36.6589C99.0984 36.6589 40 95.7573 40 168.659C40 241.56 99.0984 300.659 172 300.659Z" fill="#F0F0F0"/>
<path d="M304 168.659C304 111.903 268.178 63.5197 217.913 44.869V292.449C268.178 273.798 304 225.414 304 168.659Z" fill="#D80027"/>
<path d="M40 168.659C40 225.414 75.822 273.798 126.087 292.448V44.869C75.822 63.5197 40 111.903 40 168.659Z" fill="#0052B4"/>
</g>
<defs>
<filter id="filter0_d_1645_14490" x="0" y="0.658936" width="344" height="344" filterUnits="userSpaceOnUse" color-interpolation-filters="sRGB">
<feFlood flood-opacity="0" result="BackgroundImageFix"/>
<feColorMatrix in="SourceAlpha" type="matrix" values="0 0 0 0 0 0 0 0 0 0 0 0 0 0 0 0 0 0 127 0" result="hardAlpha"/>
<feOffset dy="4"/>
<feGaussianBlur stdDeviation="20"/>
<feColorMatrix type="matrix" values="0 0 0 0 0 0 0 0 0 0 0 0 0 0 0 0 0 0 1 0"/>
<feBlend mode="normal" in2="BackgroundImageFix" result="effect1_dropShadow_1645_14490"/>
<feBlend mode="normal" in="SourceGraphic" in2="effect1_dropShadow_1645_14490" result="shape"/>
</filter>
</defs>
</svg>
