<svg width="344" height="345" viewBox="0 0 344 345" fill="none" xmlns="http://www.w3.org/2000/svg">
<g opacity="0.15" filter="url(#filter0_d_1645_14449)">
<path d="M172 300.003C244.902 300.003 304 240.904 304 168.003C304 95.1011 244.902 36.0027 172 36.0027C99.0984 36.0027 40 95.1011 40 168.003C40 240.904 99.0984 300.003 172 300.003Z" fill="#F0F0F0"/>
<path d="M67.2867 87.6382C56.918 101.128 49.0996 116.677 44.5471 133.569H113.217L67.2867 87.6382Z" fill="#0052B4"/>
<path d="M299.452 133.569C294.9 116.678 287.081 101.129 276.713 87.6389L230.784 133.569H299.452Z" fill="#0052B4"/>
<path d="M44.5471 202.438C49.1001 219.328 56.9185 234.877 67.2867 248.367L113.215 202.438H44.5471Z" fill="#0052B4"/>
<path d="M252.364 63.2897C238.874 52.921 223.325 45.1025 206.434 40.5496V109.219L252.364 63.2897Z" fill="#0052B4"/>
<path d="M91.6355 272.715C105.126 283.084 120.674 290.902 137.565 295.455V226.786L91.6355 272.715Z" fill="#0052B4"/>
<path d="M137.565 40.5496C120.674 45.1025 105.125 52.9209 91.6355 63.2891L137.565 109.218V40.5496Z" fill="#0052B4"/>
<path d="M206.434 295.455C223.325 290.902 238.874 283.084 252.364 272.715L206.434 226.786V295.455Z" fill="#0052B4"/>
<path d="M230.784 202.438L276.713 248.367C287.081 234.878 294.9 219.328 299.452 202.438H230.784Z" fill="#0052B4"/>
<path d="M302.883 150.785H189.218H189.218V37.12C183.581 36.3863 177.835 36.0027 172 36.0027C166.164 36.0027 160.419 36.3863 154.783 37.12V150.784V150.785H41.1174C40.3836 156.421 40 162.167 40 168.003C40 173.839 40.3836 179.584 41.1174 185.22H154.782H154.782V298.885C160.419 299.619 166.164 300.003 172 300.003C177.835 300.003 183.581 299.62 189.217 298.885V185.221V185.22H302.883C303.616 179.584 304 173.839 304 168.003C304 162.167 303.616 156.421 302.883 150.785Z" fill="#D80027"/>
<path d="M206.435 202.438L265.338 261.341C268.047 258.633 270.632 255.802 273.097 252.867L222.668 202.438H206.435V202.438Z" fill="#D80027"/>
<path d="M137.565 202.438H137.564L78.6615 261.341C81.3696 264.05 84.2009 266.634 87.1358 269.1L137.565 218.67V202.438Z" fill="#D80027"/>
<path d="M137.565 133.569V133.568L78.6617 74.6641C75.9526 77.3721 73.3683 80.2034 70.9026 83.1384L121.332 133.568H137.565V133.569Z" fill="#D80027"/>
<path d="M206.435 133.568L265.339 74.6645C262.631 71.9554 259.799 69.3711 256.864 66.9059L206.435 117.336V133.568Z" fill="#D80027"/>
</g>
<defs>
<filter id="filter0_d_1645_14449" x="0" y="0.00268555" width="344" height="344" filterUnits="userSpaceOnUse" color-interpolation-filters="sRGB">
<feFlood flood-opacity="0" result="BackgroundImageFix"/>
<feColorMatrix in="SourceAlpha" type="matrix" values="0 0 0 0 0 0 0 0 0 0 0 0 0 0 0 0 0 0 127 0" result="hardAlpha"/>
<feOffset dy="4"/>
<feGaussianBlur stdDeviation="20"/>
<feColorMatrix type="matrix" values="0 0 0 0 0 0 0 0 0 0 0 0 0 0 0 0 0 0 1 0"/>
<feBlend mode="normal" in2="BackgroundImageFix" result="effect1_dropShadow_1645_14449"/>
<feBlend mode="normal" in="SourceGraphic" in2="effect1_dropShadow_1645_14449" result="shape"/>
</filter>
</defs>
</svg>
