<svg width="344" height="345" viewBox="0 0 344 345" fill="none" xmlns="http://www.w3.org/2000/svg">
<g opacity="0.15" filter="url(#filter0_d_1645_14381)">
<path d="M172 300.003C244.902 300.003 304 240.904 304 168.003C304 95.1011 244.902 36.0027 172 36.0027C99.0984 36.0027 40 95.1011 40 168.003C40 240.904 99.0984 300.003 172 300.003Z" fill="#F0F0F0"/>
<path d="M295.79 213.916C301.096 199.616 304 184.149 304 168.003C304 151.857 301.096 136.39 295.79 122.09H48.2103C42.9045 136.39 40 151.857 40 168.003C40 184.149 42.9045 199.616 48.2103 213.916L172 225.394L295.79 213.916Z" fill="#0052B4"/>
<path d="M172 300.003C228.755 300.003 277.139 264.181 295.789 213.916H48.2101C66.8608 264.181 115.244 300.003 172 300.003Z" fill="#D80027"/>
</g>
<defs>
<filter id="filter0_d_1645_14381" x="0" y="0.00268555" width="344" height="344" filterUnits="userSpaceOnUse" color-interpolation-filters="sRGB">
<feFlood flood-opacity="0" result="BackgroundImageFix"/>
<feColorMatrix in="SourceAlpha" type="matrix" values="0 0 0 0 0 0 0 0 0 0 0 0 0 0 0 0 0 0 127 0" result="hardAlpha"/>
<feOffset dy="4"/>
<feGaussianBlur stdDeviation="20"/>
<feColorMatrix type="matrix" values="0 0 0 0 0 0 0 0 0 0 0 0 0 0 0 0 0 0 1 0"/>
<feBlend mode="normal" in2="BackgroundImageFix" result="effect1_dropShadow_1645_14381"/>
<feBlend mode="normal" in="SourceGraphic" in2="effect1_dropShadow_1645_14381" result="shape"/>
</filter>
</defs>
</svg>
