<svg width="404" height="141" viewBox="0 0 404 141" fill="none" xmlns="http://www.w3.org/2000/svg">
<rect y="27" width="400" height="10" rx="5" fill="#EAEAEA"/>
<rect opacity="0.7" y="27" width="386" height="10" rx="5" fill="#FF7939"/>
<path d="M1.76 19C1.65333 19 1.56267 18.968 1.488 18.904C1.424 18.8293 1.392 18.7387 1.392 18.632V8.184C1.392 8.06667 1.424 7.976 1.488 7.912C1.56267 7.83733 1.65333 7.8 1.76 7.8H8.368C8.47467 7.8 8.56 7.83733 8.624 7.912C8.69867 7.976 8.736 8.06667 8.736 8.184V8.792C8.736 8.89867 8.704 8.98933 8.64 9.064C8.576 9.128 8.48533 9.16 8.368 9.16H2.928V12.664H8.016C8.12267 12.664 8.208 12.7013 8.272 12.776C8.34667 12.84 8.384 12.9307 8.384 13.048V13.64C8.384 13.7467 8.34667 13.8373 8.272 13.912C8.208 13.976 8.12267 14.008 8.016 14.008H2.928V17.64H8.496C8.61333 17.64 8.704 17.672 8.768 17.736C8.832 17.8 8.864 17.8907 8.864 18.008V18.632C8.864 18.7387 8.82667 18.8293 8.752 18.904C8.688 18.968 8.60267 19 8.496 19H1.76ZM11.2551 19C11.1485 19 11.0578 18.968 10.9831 18.904C10.9191 18.8293 10.8871 18.7387 10.8871 18.632V11.048C10.8871 10.9413 10.9191 10.856 10.9831 10.792C11.0578 10.7173 11.1485 10.68 11.2551 10.68H12.0071C12.1138 10.68 12.1991 10.7173 12.2631 10.792C12.3378 10.856 12.3751 10.9413 12.3751 11.048V11.752C12.6845 11.3573 13.0471 11.0533 13.4631 10.84C13.8898 10.6267 14.4178 10.52 15.0471 10.52C16.0711 10.52 16.8658 10.8507 17.4311 11.512C18.0071 12.1627 18.2951 13.032 18.2951 14.12V18.632C18.2951 18.7387 18.2578 18.8293 18.1831 18.904C18.1191 18.968 18.0338 19 17.9271 19H17.1271C17.0205 19 16.9298 18.968 16.8551 18.904C16.7911 18.8293 16.7591 18.7387 16.7591 18.632V14.2C16.7591 13.4427 16.5725 12.856 16.1991 12.44C15.8365 12.024 15.3085 11.816 14.6151 11.816C13.9431 11.816 13.4098 12.0293 13.0151 12.456C12.6205 12.872 12.4231 13.4533 12.4231 14.2V18.632C12.4231 18.7387 12.3858 18.8293 12.3111 18.904C12.2471 18.968 12.1618 19 12.0551 19H11.2551ZM23.9983 22.52C23.1236 22.52 22.4196 22.3707 21.8863 22.072C21.3529 21.784 20.9743 21.4533 20.7503 21.08C20.5263 20.7067 20.4036 20.3707 20.3823 20.072C20.3716 19.9653 20.4036 19.8747 20.4783 19.8C20.5636 19.7253 20.6543 19.688 20.7503 19.688H21.5182C21.6143 19.688 21.6943 19.7093 21.7582 19.752C21.8223 19.8053 21.8756 19.896 21.9183 20.024C22.0463 20.3653 22.2543 20.6587 22.5423 20.904C22.8409 21.16 23.2996 21.288 23.9183 21.288C24.7076 21.288 25.2889 21.1173 25.6623 20.776C26.0356 20.4453 26.2223 19.8533 26.2223 19V17.912C25.9449 18.264 25.5929 18.5467 25.1663 18.76C24.7396 18.9627 24.2329 19.064 23.6463 19.064C22.5156 19.064 21.6676 18.7067 21.1023 17.992C20.5476 17.2667 20.2543 16.3493 20.2223 15.24L20.2063 14.792L20.2223 14.36C20.2543 13.2613 20.5529 12.3493 21.1183 11.624C21.6836 10.888 22.5263 10.52 23.6463 10.52C24.7663 10.52 25.6409 10.9307 26.2703 11.752V11.064C26.2703 10.9573 26.3023 10.8667 26.3663 10.792C26.4409 10.7173 26.5316 10.68 26.6383 10.68H27.3743C27.4809 10.68 27.5716 10.7173 27.6463 10.792C27.7209 10.8667 27.7583 10.9573 27.7583 11.064V18.824C27.7583 21.288 26.5049 22.52 23.9983 22.52ZM23.9663 17.784C24.6916 17.784 25.2409 17.544 25.6143 17.064C25.9876 16.584 26.1903 16.0133 26.2223 15.352C26.2329 15.256 26.2383 15.0693 26.2383 14.792C26.2383 14.5253 26.2329 14.344 26.2223 14.248C26.1903 13.5867 25.9876 13.016 25.6143 12.536C25.2516 12.056 24.7023 11.816 23.9663 11.816C23.2089 11.816 22.6596 12.0507 22.3183 12.52C21.9769 12.9893 21.7903 13.608 21.7582 14.376L21.7423 14.792L21.7582 15.224C21.7903 15.9813 21.9769 16.6 22.3183 17.08C22.6596 17.5493 23.2089 17.784 23.9663 17.784ZM30.5211 19C30.4145 19 30.3238 18.968 30.2491 18.904C30.1851 18.8293 30.1531 18.7387 30.1531 18.632V8.008C30.1531 7.90133 30.1851 7.816 30.2491 7.752C30.3238 7.67733 30.4145 7.64 30.5211 7.64H31.2731C31.3798 7.64 31.4651 7.67733 31.5291 7.752C31.6038 7.816 31.6411 7.90133 31.6411 8.008V18.632C31.6411 18.7387 31.6038 18.8293 31.5291 18.904C31.4651 18.968 31.3798 19 31.2731 19H30.5211ZM34.2678 9.128C34.1611 9.128 34.0704 9.096 33.9958 9.032C33.9318 8.95733 33.8997 8.86667 33.8997 8.76V7.896C33.8997 7.78933 33.9318 7.69867 33.9958 7.624C34.0704 7.54933 34.1611 7.512 34.2678 7.512H35.2758C35.3824 7.512 35.4731 7.54933 35.5478 7.624C35.6224 7.69867 35.6598 7.78933 35.6598 7.896V8.76C35.6598 8.86667 35.6224 8.95733 35.5478 9.032C35.4731 9.096 35.3824 9.128 35.2758 9.128H34.2678ZM34.3958 19C34.2891 19 34.1984 18.968 34.1238 18.904C34.0598 18.8293 34.0278 18.7387 34.0278 18.632V11.048C34.0278 10.9413 34.0598 10.856 34.1238 10.792C34.1984 10.7173 34.2891 10.68 34.3958 10.68H35.1638C35.2704 10.68 35.3558 10.7173 35.4198 10.792C35.4944 10.856 35.5318 10.9413 35.5318 11.048V18.632C35.5318 18.7387 35.4944 18.8293 35.4198 18.904C35.3558 18.968 35.2704 19 35.1638 19H34.3958ZM40.7828 19.16C40.0361 19.16 39.4068 19.0427 38.8948 18.808C38.3934 18.5627 38.0148 18.2853 37.7588 17.976C37.5134 17.6667 37.3908 17.4107 37.3908 17.208C37.3908 17.1013 37.4281 17.0213 37.5028 16.968C37.5881 16.904 37.6734 16.872 37.7588 16.872H38.4788C38.5854 16.872 38.6814 16.9253 38.7668 17.032C39.0228 17.3307 39.3001 17.5653 39.5988 17.736C39.8974 17.9067 40.2974 17.992 40.7988 17.992C41.3534 17.992 41.8014 17.8853 42.1428 17.672C42.4948 17.448 42.6708 17.144 42.6708 16.76C42.6708 16.504 42.5961 16.296 42.4468 16.136C42.3081 15.9653 42.0628 15.8213 41.7108 15.704C41.3694 15.576 40.8574 15.4373 40.1748 15.288C39.2468 15.0853 38.5854 14.792 38.1908 14.408C37.8068 14.024 37.6148 13.528 37.6148 12.92C37.6148 12.5147 37.7321 12.1307 37.9668 11.768C38.2121 11.3947 38.5641 11.096 39.0228 10.872C39.4921 10.6373 40.0521 10.52 40.7028 10.52C41.3854 10.52 41.9668 10.632 42.4468 10.856C42.9268 11.08 43.2841 11.3467 43.5188 11.656C43.7641 11.9547 43.8868 12.2053 43.8868 12.408C43.8868 12.504 43.8494 12.584 43.7748 12.648C43.7108 12.712 43.6308 12.744 43.5348 12.744H42.8628C42.7348 12.744 42.6281 12.6907 42.5428 12.584C42.3721 12.3813 42.2228 12.2267 42.0948 12.12C41.9774 12.0027 41.8014 11.9013 41.5668 11.816C41.3428 11.7307 41.0548 11.688 40.7028 11.688C40.1908 11.688 39.7961 11.8 39.5188 12.024C39.2414 12.2373 39.1028 12.52 39.1028 12.872C39.1028 13.096 39.1614 13.288 39.2788 13.448C39.3961 13.5973 39.6201 13.736 39.9508 13.864C40.2921 13.992 40.7828 14.1253 41.4227 14.264C42.4361 14.4773 43.1508 14.7867 43.5668 15.192C43.9934 15.5867 44.2068 16.0933 44.2068 16.712C44.2068 17.1707 44.0734 17.5867 43.8068 17.96C43.5401 18.3333 43.1454 18.6267 42.6228 18.84C42.1108 19.0533 41.4974 19.16 40.7828 19.16ZM46.443 19C46.3363 19 46.2457 18.968 46.171 18.904C46.107 18.8293 46.075 18.7387 46.075 18.632V8.008C46.075 7.90133 46.107 7.816 46.171 7.752C46.2457 7.67733 46.3363 7.64 46.443 7.64H47.243C47.3497 7.64 47.435 7.67733 47.499 7.752C47.5737 7.816 47.611 7.90133 47.611 8.008V11.736C47.9203 11.3413 48.283 11.0427 48.699 10.84C49.115 10.6267 49.6323 10.52 50.251 10.52C51.275 10.52 52.0697 10.8507 52.635 11.512C53.211 12.1627 53.499 13.032 53.499 14.12V18.632C53.499 18.7387 53.4617 18.8293 53.387 18.904C53.323 18.968 53.2377 19 53.131 19H52.331C52.2243 19 52.1337 18.968 52.059 18.904C51.995 18.8293 51.963 18.7387 51.963 18.632V14.2C51.963 13.4427 51.7763 12.856 51.403 12.44C51.0403 12.024 50.5123 11.816 49.819 11.816C49.147 11.816 48.6083 12.0293 48.203 12.456C47.8083 12.872 47.611 13.4533 47.611 14.2V18.632C47.611 18.7387 47.5737 18.8293 47.499 18.904C47.435 18.968 47.3497 19 47.243 19H46.443Z" fill="#2B2B2B"/>
<path d="M372.784 19C372.688 19 372.608 18.968 372.544 18.904C372.48 18.8293 372.448 18.744 372.448 18.648C372.448 18.5733 372.469 18.504 372.512 18.44L374.768 15.352C374.629 15.384 374.475 15.4 374.304 15.4C373.643 15.3573 373.019 15.176 372.432 14.856C371.845 14.536 371.371 14.0987 371.008 13.544C370.645 12.9893 370.464 12.3547 370.464 11.64C370.464 10.936 370.64 10.28 370.992 9.672C371.344 9.064 371.861 8.57333 372.544 8.2C373.237 7.82667 374.069 7.64 375.04 7.64C376.021 7.64 376.864 7.81067 377.568 8.152C378.283 8.49333 378.821 8.96267 379.184 9.56C379.547 10.1467 379.728 10.8027 379.728 11.528C379.728 12.1147 379.605 12.648 379.36 13.128C379.125 13.608 378.773 14.1733 378.304 14.824C378.283 14.8453 378.197 14.9627 378.048 15.176L375.488 18.68C375.339 18.8933 375.147 19 374.912 19H372.784ZM375.072 13.288C375.563 13.288 375.968 13.1387 376.288 12.84C376.608 12.5413 376.768 12.136 376.768 11.624C376.768 11.112 376.608 10.7067 376.288 10.408C375.968 10.0987 375.563 9.944 375.072 9.944C374.581 9.944 374.176 10.0987 373.856 10.408C373.547 10.7067 373.392 11.112 373.392 11.624C373.392 12.136 373.552 12.5413 373.872 12.84C374.192 13.1387 374.592 13.288 375.072 13.288ZM382.506 19C382.41 19 382.33 18.968 382.266 18.904C382.202 18.8293 382.17 18.744 382.17 18.648C382.17 18.5947 382.181 18.5467 382.202 18.504L385.898 10.216H381.114C380.997 10.216 380.895 10.1787 380.81 10.104C380.735 10.0187 380.698 9.91733 380.698 9.8V8.2C380.698 8.08267 380.735 7.98667 380.81 7.912C380.895 7.83733 380.997 7.8 381.114 7.8H388.586C388.714 7.8 388.815 7.83733 388.89 7.912C388.965 7.98667 389.002 8.08267 389.002 8.2V9.624C389.002 9.848 388.943 10.088 388.826 10.344L385.13 18.616C385.013 18.872 384.826 19 384.57 19H382.506ZM392.494 13.448C391.769 13.448 391.187 13.2613 390.75 12.888C390.313 12.504 390.073 11.992 390.03 11.352C390.009 11.032 389.998 10.808 389.998 10.68C389.998 10.552 390.009 10.2747 390.03 9.848C390.062 9.19733 390.291 8.68 390.718 8.296C391.145 7.912 391.737 7.72 392.494 7.72C393.241 7.72 393.827 7.912 394.254 8.296C394.681 8.68 394.91 9.19733 394.942 9.848C394.963 10.2747 394.974 10.552 394.974 10.68C394.974 10.808 394.963 11.032 394.942 11.352C394.899 11.992 394.659 12.504 394.222 12.888C393.785 13.2613 393.209 13.448 392.494 13.448ZM391.214 19C391.107 19 391.017 18.9733 390.942 18.92C390.878 18.856 390.846 18.776 390.846 18.68C390.846 18.616 390.867 18.5573 390.91 18.504L398.814 8.104C398.899 7.99733 398.979 7.92267 399.054 7.88C399.129 7.82667 399.235 7.8 399.374 7.8H400.51C400.617 7.8 400.702 7.832 400.766 7.896C400.841 7.94933 400.878 8.024 400.878 8.12C400.878 8.184 400.857 8.24267 400.814 8.296L392.91 18.696C392.825 18.8027 392.745 18.8827 392.67 18.936C392.595 18.9787 392.489 19 392.35 19H391.214ZM392.494 12.056C392.942 12.056 393.187 11.7947 393.23 11.272C393.251 10.9307 393.262 10.7067 393.262 10.6C393.262 10.4613 393.251 10.2427 393.23 9.944C393.219 9.70933 393.15 9.51733 393.022 9.368C392.905 9.21867 392.729 9.144 392.494 9.144C392.249 9.144 392.067 9.21867 391.95 9.368C391.833 9.51733 391.763 9.70933 391.742 9.944C391.731 10.0933 391.726 10.312 391.726 10.6C391.726 10.8773 391.731 11.1013 391.742 11.272C391.785 11.7947 392.035 12.056 392.494 12.056ZM399.262 19.08C398.537 19.08 397.955 18.8933 397.518 18.52C397.091 18.136 396.851 17.6187 396.798 16.968C396.787 16.7867 396.782 16.5413 396.782 16.232C396.782 15.912 396.787 15.656 396.798 15.464C396.841 14.8027 397.07 14.28 397.486 13.896C397.913 13.512 398.505 13.32 399.262 13.32C400.019 13.32 400.606 13.512 401.022 13.896C401.449 14.28 401.683 14.8027 401.726 15.464C401.747 15.8907 401.758 16.168 401.758 16.296C401.758 16.424 401.747 16.648 401.726 16.968C401.683 17.608 401.443 18.12 401.006 18.504C400.569 18.888 399.987 19.08 399.262 19.08ZM399.262 17.672C399.507 17.672 399.689 17.5973 399.806 17.448C399.923 17.288 399.993 17.096 400.014 16.872C400.035 16.552 400.046 16.328 400.046 16.2C400.046 16.0613 400.035 15.8427 400.014 15.544C399.993 15.32 399.923 15.1333 399.806 14.984C399.689 14.824 399.507 14.744 399.262 14.744C399.017 14.744 398.835 14.824 398.718 14.984C398.601 15.1333 398.537 15.32 398.526 15.544C398.515 15.6933 398.51 15.912 398.51 16.2C398.51 16.488 398.515 16.712 398.526 16.872C398.547 17.1067 398.611 17.2987 398.718 17.448C398.835 17.5973 399.017 17.672 399.262 17.672Z" fill="#2B2B2B"/>
<rect y="79" width="400" height="10" rx="5" fill="#EAEAEA"/>
<rect opacity="0.7" y="79" width="382" height="10" rx="5" fill="#FF7939"/>
<path d="M1.76 71C1.65333 71 1.56267 70.968 1.488 70.904C1.424 70.8293 1.392 70.7387 1.392 70.632V60.184C1.392 60.0667 1.424 59.976 1.488 59.912C1.56267 59.8373 1.65333 59.8 1.76 59.8H8.288C8.40533 59.8 8.496 59.8373 8.56 59.912C8.63467 59.976 8.672 60.0667 8.672 60.184V60.824C8.672 60.9307 8.63467 61.0213 8.56 61.096C8.496 61.16 8.40533 61.192 8.288 61.192H2.944V64.92H7.968C8.08533 64.92 8.176 64.9573 8.24 65.032C8.31467 65.096 8.352 65.1867 8.352 65.304V65.944C8.352 66.0507 8.31467 66.1413 8.24 66.216C8.16533 66.28 8.07467 66.312 7.968 66.312H2.944V70.632C2.944 70.7387 2.90667 70.8293 2.832 70.904C2.75733 70.968 2.66667 71 2.56 71H1.76ZM10.677 71C10.5703 71 10.4797 70.968 10.405 70.904C10.341 70.8293 10.309 70.7387 10.309 70.632V63.064C10.309 62.9573 10.341 62.8667 10.405 62.792C10.4797 62.7173 10.5703 62.68 10.677 62.68H11.413C11.5197 62.68 11.6103 62.7173 11.685 62.792C11.7597 62.8667 11.797 62.9573 11.797 63.064V63.768C12.2343 63.0427 12.981 62.68 14.037 62.68H14.661C14.7677 62.68 14.853 62.7173 14.917 62.792C14.9917 62.856 15.029 62.9413 15.029 63.048V63.704C15.029 63.8107 14.9917 63.896 14.917 63.96C14.853 64.024 14.7677 64.056 14.661 64.056H13.701C13.125 64.056 12.6717 64.2267 12.341 64.568C12.0103 64.8987 11.845 65.352 11.845 65.928V70.632C11.845 70.7387 11.8077 70.8293 11.733 70.904C11.6583 70.968 11.5677 71 11.461 71H10.677ZM19.5589 71.16C18.4602 71.16 17.5802 70.824 16.9189 70.152C16.2682 69.4693 15.9109 68.5413 15.8469 67.368L15.8309 66.824L15.8469 66.296C15.9215 65.144 16.2842 64.2267 16.9349 63.544C17.5962 62.8613 18.4655 62.52 19.5429 62.52C20.7269 62.52 21.6442 62.8987 22.2949 63.656C22.9455 64.4027 23.2709 65.416 23.2709 66.696V66.968C23.2709 67.0747 23.2335 67.1653 23.1589 67.24C23.0949 67.304 23.0095 67.336 22.9029 67.336H17.3669V67.48C17.3989 68.1733 17.6069 68.7653 17.9909 69.256C18.3855 69.736 18.9029 69.976 19.5429 69.976C20.0335 69.976 20.4335 69.88 20.7429 69.688C21.0629 69.4853 21.2975 69.2773 21.4469 69.064C21.5429 68.936 21.6122 68.8613 21.6549 68.84C21.7082 68.808 21.7989 68.792 21.9269 68.792H22.7109C22.8069 68.792 22.8869 68.8187 22.9509 68.872C23.0149 68.9253 23.0469 69 23.0469 69.096C23.0469 69.3307 22.8975 69.6133 22.5989 69.944C22.3109 70.2747 21.9002 70.5627 21.3669 70.808C20.8442 71.0427 20.2415 71.16 19.5589 71.16ZM21.7509 66.232V66.184C21.7509 65.448 21.5482 64.8507 21.1429 64.392C20.7482 63.9227 20.2149 63.688 19.5429 63.688C18.8709 63.688 18.3375 63.9227 17.9429 64.392C17.5589 64.8507 17.3669 65.448 17.3669 66.184V66.232H21.7509ZM25.552 71C25.4453 71 25.3547 70.968 25.28 70.904C25.216 70.8293 25.184 70.7387 25.184 70.632V63.048C25.184 62.9413 25.216 62.856 25.28 62.792C25.3547 62.7173 25.4453 62.68 25.552 62.68H26.304C26.4107 62.68 26.496 62.7173 26.56 62.792C26.6347 62.856 26.672 62.9413 26.672 63.048V63.752C26.9813 63.3573 27.344 63.0533 27.76 62.84C28.1867 62.6267 28.7147 62.52 29.344 62.52C30.368 62.52 31.1627 62.8507 31.728 63.512C32.304 64.1627 32.592 65.032 32.592 66.12V70.632C32.592 70.7387 32.5547 70.8293 32.48 70.904C32.416 70.968 32.3307 71 32.224 71H31.424C31.3173 71 31.2267 70.968 31.152 70.904C31.088 70.8293 31.056 70.7387 31.056 70.632V66.2C31.056 65.4427 30.8693 64.856 30.496 64.44C30.1333 64.024 29.6053 63.816 28.912 63.816C28.24 63.816 27.7067 64.0293 27.312 64.456C26.9173 64.872 26.72 65.4533 26.72 66.2V70.632C26.72 70.7387 26.6827 70.8293 26.608 70.904C26.544 70.968 26.4587 71 26.352 71H25.552ZM38.2471 71.16C37.1058 71.16 36.2098 70.84 35.5591 70.2C34.9191 69.5493 34.5778 68.6427 34.5351 67.48L34.5191 66.84L34.5351 66.2C34.5778 65.0373 34.9191 64.136 35.5591 63.496C36.2098 62.8453 37.1058 62.52 38.2471 62.52C39.0151 62.52 39.6658 62.6587 40.1991 62.936C40.7325 63.2133 41.1271 63.5547 41.3831 63.96C41.6498 64.3653 41.7938 64.7707 41.8151 65.176C41.8258 65.2827 41.7938 65.368 41.7191 65.432C41.6445 65.496 41.5538 65.528 41.4471 65.528H40.6791C40.5725 65.528 40.4925 65.5067 40.4391 65.464C40.3858 65.4213 40.3325 65.336 40.2791 65.208C40.0978 64.696 39.8418 64.3333 39.5111 64.12C39.1805 63.896 38.7645 63.784 38.2631 63.784C37.6018 63.784 37.0738 63.992 36.6791 64.408C36.2951 64.8133 36.0871 65.4373 36.0551 66.28L36.0391 66.856L36.0551 67.4C36.0871 68.2533 36.2951 68.8827 36.6791 69.288C37.0631 69.6933 37.5911 69.896 38.2631 69.896C38.7645 69.896 39.1805 69.7893 39.5111 69.576C39.8418 69.352 40.0978 68.984 40.2791 68.472C40.3325 68.344 40.3858 68.2587 40.4391 68.216C40.4925 68.1627 40.5725 68.136 40.6791 68.136H41.4471C41.5538 68.136 41.6445 68.1733 41.7191 68.248C41.7938 68.312 41.8258 68.3973 41.8151 68.504C41.7938 68.8987 41.6498 69.304 41.3831 69.72C41.1271 70.1253 40.7325 70.4667 40.1991 70.744C39.6765 71.0213 39.0258 71.16 38.2471 71.16ZM44.0993 71C43.9926 71 43.9019 70.968 43.8273 70.904C43.7633 70.8293 43.7313 70.7387 43.7313 70.632V60.008C43.7313 59.9013 43.7633 59.816 43.8273 59.752C43.9019 59.6773 43.9926 59.64 44.0993 59.64H44.8993C45.0059 59.64 45.0913 59.6773 45.1553 59.752C45.2299 59.816 45.2673 59.9013 45.2673 60.008V63.736C45.5766 63.3413 45.9393 63.0427 46.3553 62.84C46.7713 62.6267 47.2886 62.52 47.9073 62.52C48.9313 62.52 49.7259 62.8507 50.2913 63.512C50.8673 64.1627 51.1553 65.032 51.1553 66.12V70.632C51.1553 70.7387 51.1179 70.8293 51.0433 70.904C50.9793 70.968 50.8939 71 50.7873 71H49.9873C49.8806 71 49.7899 70.968 49.7153 70.904C49.6513 70.8293 49.6193 70.7387 49.6193 70.632V66.2C49.6193 65.4427 49.4326 64.856 49.0593 64.44C48.6966 64.024 48.1686 63.816 47.4753 63.816C46.8033 63.816 46.2646 64.0293 45.8593 64.456C45.4646 64.872 45.2673 65.4533 45.2673 66.2V70.632C45.2673 70.7387 45.2299 70.8293 45.1553 70.904C45.0913 70.968 45.0059 71 44.8993 71H44.0993Z" fill="#2B2B2B"/>
<path d="M372.784 71C372.688 71 372.608 70.968 372.544 70.904C372.48 70.8293 372.448 70.744 372.448 70.648C372.448 70.5733 372.469 70.504 372.512 70.44L374.768 67.352C374.629 67.384 374.475 67.4 374.304 67.4C373.643 67.3573 373.019 67.176 372.432 66.856C371.845 66.536 371.371 66.0987 371.008 65.544C370.645 64.9893 370.464 64.3547 370.464 63.64C370.464 62.936 370.64 62.28 370.992 61.672C371.344 61.064 371.861 60.5733 372.544 60.2C373.237 59.8267 374.069 59.64 375.04 59.64C376.021 59.64 376.864 59.8107 377.568 60.152C378.283 60.4933 378.821 60.9627 379.184 61.56C379.547 62.1467 379.728 62.8027 379.728 63.528C379.728 64.1147 379.605 64.648 379.36 65.128C379.125 65.608 378.773 66.1733 378.304 66.824C378.283 66.8453 378.197 66.9627 378.048 67.176L375.488 70.68C375.339 70.8933 375.147 71 374.912 71H372.784ZM375.072 65.288C375.563 65.288 375.968 65.1387 376.288 64.84C376.608 64.5413 376.768 64.136 376.768 63.624C376.768 63.112 376.608 62.7067 376.288 62.408C375.968 62.0987 375.563 61.944 375.072 61.944C374.581 61.944 374.176 62.0987 373.856 62.408C373.547 62.7067 373.392 63.112 373.392 63.624C373.392 64.136 373.552 64.5413 373.872 64.84C374.192 65.1387 374.592 65.288 375.072 65.288ZM385.37 71.176C384.41 71.176 383.589 71.0267 382.906 70.728C382.223 70.4187 381.701 70.008 381.338 69.496C380.986 68.984 380.799 68.4293 380.778 67.832C380.778 67.736 380.81 67.656 380.874 67.592C380.938 67.528 381.018 67.496 381.114 67.496H383.258C383.503 67.496 383.674 67.5973 383.77 67.8C384.058 68.5147 384.597 68.872 385.386 68.872C385.855 68.872 386.25 68.728 386.57 68.44C386.901 68.1413 387.066 67.7307 387.066 67.208C387.066 66.7387 386.906 66.3547 386.586 66.056C386.277 65.7573 385.877 65.608 385.386 65.608C385.109 65.608 384.885 65.6453 384.714 65.72C384.554 65.784 384.389 65.88 384.218 66.008C384.037 66.1467 383.893 66.216 383.786 66.216H381.69C381.594 66.216 381.509 66.184 381.434 66.12C381.37 66.0453 381.338 65.96 381.338 65.864L381.914 60.28C381.925 60.1307 381.978 60.0133 382.074 59.928C382.181 59.8427 382.303 59.8 382.442 59.8H388.858C388.975 59.8 389.071 59.8373 389.146 59.912C389.231 59.9867 389.274 60.0827 389.274 60.2V61.704C389.274 61.8213 389.231 61.9173 389.146 61.992C389.071 62.0667 388.975 62.104 388.858 62.104H384.218L384.01 64.168C384.277 63.9867 384.57 63.8533 384.89 63.768C385.21 63.672 385.626 63.624 386.138 63.624C386.81 63.624 387.445 63.7787 388.042 64.088C388.639 64.3867 389.114 64.8133 389.466 65.368C389.829 65.9227 390.01 66.5573 390.01 67.272C390.01 68.0293 389.823 68.7067 389.45 69.304C389.077 69.8907 388.538 70.3493 387.834 70.68C387.141 71.0107 386.319 71.176 385.37 71.176ZM393.666 65.448C392.94 65.448 392.359 65.2613 391.922 64.888C391.484 64.504 391.244 63.992 391.202 63.352C391.18 63.032 391.17 62.808 391.17 62.68C391.17 62.552 391.18 62.2747 391.202 61.848C391.234 61.1973 391.463 60.68 391.89 60.296C392.316 59.912 392.908 59.72 393.666 59.72C394.412 59.72 394.999 59.912 395.426 60.296C395.852 60.68 396.082 61.1973 396.114 61.848C396.135 62.2747 396.146 62.552 396.146 62.68C396.146 62.808 396.135 63.032 396.114 63.352C396.071 63.992 395.831 64.504 395.394 64.888C394.956 65.2613 394.38 65.448 393.666 65.448ZM392.386 71C392.279 71 392.188 70.9733 392.114 70.92C392.05 70.856 392.018 70.776 392.018 70.68C392.018 70.616 392.039 70.5573 392.082 70.504L399.986 60.104C400.071 59.9973 400.151 59.9227 400.226 59.88C400.3 59.8267 400.407 59.8 400.546 59.8H401.682C401.788 59.8 401.874 59.832 401.938 59.896C402.012 59.9493 402.05 60.024 402.05 60.12C402.05 60.184 402.028 60.2427 401.986 60.296L394.082 70.696C393.996 70.8027 393.916 70.8827 393.842 70.936C393.767 70.9787 393.66 71 393.522 71H392.386ZM393.666 64.056C394.114 64.056 394.359 63.7947 394.402 63.272C394.423 62.9307 394.434 62.7067 394.434 62.6C394.434 62.4613 394.423 62.2427 394.402 61.944C394.391 61.7093 394.322 61.5173 394.194 61.368C394.076 61.2187 393.9 61.144 393.666 61.144C393.42 61.144 393.239 61.2187 393.122 61.368C393.004 61.5173 392.935 61.7093 392.914 61.944C392.903 62.0933 392.898 62.312 392.898 62.6C392.898 62.8773 392.903 63.1013 392.914 63.272C392.956 63.7947 393.207 64.056 393.666 64.056ZM400.434 71.08C399.708 71.08 399.127 70.8933 398.69 70.52C398.263 70.136 398.023 69.6187 397.97 68.968C397.959 68.7867 397.954 68.5413 397.954 68.232C397.954 67.912 397.959 67.656 397.97 67.464C398.012 66.8027 398.242 66.28 398.658 65.896C399.084 65.512 399.676 65.32 400.434 65.32C401.191 65.32 401.778 65.512 402.194 65.896C402.62 66.28 402.855 66.8027 402.898 67.464C402.919 67.8907 402.93 68.168 402.93 68.296C402.93 68.424 402.919 68.648 402.898 68.968C402.855 69.608 402.615 70.12 402.178 70.504C401.74 70.888 401.159 71.08 400.434 71.08ZM400.434 69.672C400.679 69.672 400.86 69.5973 400.978 69.448C401.095 69.288 401.164 69.096 401.186 68.872C401.207 68.552 401.218 68.328 401.218 68.2C401.218 68.0613 401.207 67.8427 401.186 67.544C401.164 67.32 401.095 67.1333 400.978 66.984C400.86 66.824 400.679 66.744 400.434 66.744C400.188 66.744 400.007 66.824 399.89 66.984C399.772 67.1333 399.708 67.32 399.698 67.544C399.687 67.6933 399.682 67.912 399.682 68.2C399.682 68.488 399.687 68.712 399.698 68.872C399.719 69.1067 399.783 69.2987 399.89 69.448C400.007 69.5973 400.188 69.672 400.434 69.672Z" fill="#2B2B2B"/>
<rect y="131" width="400" height="10" rx="5" fill="#EAEAEA"/>
<rect opacity="0.7" y="131" width="400" height="10" rx="5" fill="#FF7939"/>
<path d="M1.76 123C1.65333 123 1.56267 122.968 1.488 122.904C1.424 122.829 1.392 122.739 1.392 122.632V112.184C1.392 112.067 1.424 111.976 1.488 111.912C1.56267 111.837 1.65333 111.8 1.76 111.8H5.664C6.89067 111.8 7.85067 112.088 8.544 112.664C9.23733 113.24 9.584 114.072 9.584 115.16C9.584 115.971 9.38133 116.637 8.976 117.16C8.58133 117.683 8.02133 118.045 7.296 118.248L9.76 122.504C9.792 122.568 9.808 122.627 9.808 122.68C9.808 122.765 9.77067 122.84 9.696 122.904C9.632 122.968 9.55733 123 9.472 123H8.704C8.544 123 8.416 122.963 8.32 122.888C8.23467 122.813 8.15467 122.707 8.08 122.568L5.76 118.504H2.96V122.632C2.96 122.739 2.92267 122.829 2.848 122.904C2.77333 122.968 2.68267 123 2.576 123H1.76ZM5.6 117.144C7.18933 117.144 7.984 116.477 7.984 115.144C7.984 113.811 7.18933 113.144 5.6 113.144H2.96V117.144H5.6ZM14.7724 123.16C13.759 123.16 12.975 122.835 12.4204 122.184C11.8657 121.523 11.5884 120.648 11.5884 119.56V115.048C11.5884 114.941 11.6204 114.856 11.6844 114.792C11.759 114.717 11.8497 114.68 11.9564 114.68H12.7564C12.863 114.68 12.9484 114.717 13.0124 114.792C13.087 114.856 13.1244 114.941 13.1244 115.048V119.48C13.1244 121.069 13.8177 121.864 15.2044 121.864C15.8764 121.864 16.4097 121.656 16.8044 121.24C17.199 120.813 17.3964 120.227 17.3964 119.48V115.048C17.3964 114.941 17.4284 114.856 17.4924 114.792C17.567 114.717 17.6577 114.68 17.7644 114.68H18.5644C18.671 114.68 18.7564 114.717 18.8204 114.792C18.8844 114.856 18.9164 114.941 18.9164 115.048V122.632C18.9164 122.739 18.8844 122.829 18.8204 122.904C18.7564 122.968 18.671 123 18.5644 123H17.8124C17.7057 123 17.615 122.968 17.5404 122.904C17.4764 122.829 17.4444 122.739 17.4444 122.632V121.928C17.1457 122.333 16.783 122.643 16.3564 122.856C15.9297 123.059 15.4017 123.16 14.7724 123.16ZM24.1734 123.16C23.4267 123.16 22.7974 123.043 22.2854 122.808C21.784 122.563 21.4054 122.285 21.1494 121.976C20.904 121.667 20.7814 121.411 20.7814 121.208C20.7814 121.101 20.8187 121.021 20.8934 120.968C20.9787 120.904 21.064 120.872 21.1494 120.872H21.8694C21.976 120.872 22.072 120.925 22.1574 121.032C22.4134 121.331 22.6907 121.565 22.9894 121.736C23.288 121.907 23.688 121.992 24.1894 121.992C24.744 121.992 25.192 121.885 25.5334 121.672C25.8854 121.448 26.0614 121.144 26.0614 120.76C26.0614 120.504 25.9867 120.296 25.8374 120.136C25.6987 119.965 25.4534 119.821 25.1014 119.704C24.76 119.576 24.248 119.437 23.5654 119.288C22.6374 119.085 21.976 118.792 21.5814 118.408C21.1974 118.024 21.0054 117.528 21.0054 116.92C21.0054 116.515 21.1227 116.131 21.3574 115.768C21.6027 115.395 21.9547 115.096 22.4134 114.872C22.8827 114.637 23.4427 114.52 24.0934 114.52C24.776 114.52 25.3574 114.632 25.8374 114.856C26.3174 115.08 26.6747 115.347 26.9094 115.656C27.1547 115.955 27.2774 116.205 27.2774 116.408C27.2774 116.504 27.24 116.584 27.1654 116.648C27.1014 116.712 27.0214 116.744 26.9254 116.744H26.2534C26.1254 116.744 26.0187 116.691 25.9334 116.584C25.7627 116.381 25.6134 116.227 25.4854 116.12C25.368 116.003 25.192 115.901 24.9574 115.816C24.7334 115.731 24.4454 115.688 24.0934 115.688C23.5814 115.688 23.1867 115.8 22.9094 116.024C22.632 116.237 22.4934 116.52 22.4934 116.872C22.4934 117.096 22.552 117.288 22.6694 117.448C22.7867 117.597 23.0107 117.736 23.3414 117.864C23.6827 117.992 24.1734 118.125 24.8134 118.264C25.8267 118.477 26.5414 118.787 26.9574 119.192C27.384 119.587 27.5974 120.093 27.5974 120.712C27.5974 121.171 27.464 121.587 27.1974 121.96C26.9307 122.333 26.536 122.627 26.0134 122.84C25.5014 123.053 24.888 123.16 24.1734 123.16ZM32.3296 123.16C31.583 123.16 30.9536 123.043 30.4416 122.808C29.9403 122.563 29.5616 122.285 29.3056 121.976C29.0603 121.667 28.9376 121.411 28.9376 121.208C28.9376 121.101 28.975 121.021 29.0496 120.968C29.135 120.904 29.2203 120.872 29.3056 120.872H30.0256C30.1323 120.872 30.2283 120.925 30.3136 121.032C30.5696 121.331 30.847 121.565 31.1456 121.736C31.4443 121.907 31.8443 121.992 32.3456 121.992C32.9003 121.992 33.3483 121.885 33.6896 121.672C34.0416 121.448 34.2176 121.144 34.2176 120.76C34.2176 120.504 34.143 120.296 33.9936 120.136C33.855 119.965 33.6096 119.821 33.2576 119.704C32.9163 119.576 32.4043 119.437 31.7216 119.288C30.7936 119.085 30.1323 118.792 29.7376 118.408C29.3536 118.024 29.1616 117.528 29.1616 116.92C29.1616 116.515 29.279 116.131 29.5136 115.768C29.759 115.395 30.111 115.096 30.5696 114.872C31.039 114.637 31.599 114.52 32.2496 114.52C32.9323 114.52 33.5136 114.632 33.9936 114.856C34.4736 115.08 34.831 115.347 35.0656 115.656C35.311 115.955 35.4336 116.205 35.4336 116.408C35.4336 116.504 35.3963 116.584 35.3216 116.648C35.2576 116.712 35.1776 116.744 35.0816 116.744H34.4096C34.2816 116.744 34.175 116.691 34.0896 116.584C33.919 116.381 33.7696 116.227 33.6416 116.12C33.5243 116.003 33.3483 115.901 33.1136 115.816C32.8896 115.731 32.6016 115.688 32.2496 115.688C31.7376 115.688 31.343 115.8 31.0656 116.024C30.7883 116.237 30.6496 116.52 30.6496 116.872C30.6496 117.096 30.7083 117.288 30.8256 117.448C30.943 117.597 31.167 117.736 31.4976 117.864C31.839 117.992 32.3296 118.125 32.9696 118.264C33.983 118.477 34.6976 118.787 35.1136 119.192C35.5403 119.587 35.7536 120.093 35.7536 120.712C35.7536 121.171 35.6203 121.587 35.3536 121.96C35.087 122.333 34.6923 122.627 34.1696 122.84C33.6576 123.053 33.0443 123.16 32.3296 123.16ZM37.8459 113.128C37.7392 113.128 37.6485 113.096 37.5739 113.032C37.5099 112.957 37.4779 112.867 37.4779 112.76V111.896C37.4779 111.789 37.5099 111.699 37.5739 111.624C37.6485 111.549 37.7392 111.512 37.8459 111.512H38.8539C38.9605 111.512 39.0512 111.549 39.1259 111.624C39.2005 111.699 39.2379 111.789 39.2379 111.896V112.76C39.2379 112.867 39.2005 112.957 39.1259 113.032C39.0512 113.096 38.9605 113.128 38.8539 113.128H37.8459ZM37.9739 123C37.8672 123 37.7765 122.968 37.7019 122.904C37.6379 122.829 37.6059 122.739 37.6059 122.632V115.048C37.6059 114.941 37.6379 114.856 37.7019 114.792C37.7765 114.717 37.8672 114.68 37.9739 114.68H38.7419C38.8485 114.68 38.9339 114.717 38.9979 114.792C39.0725 114.856 39.1099 114.941 39.1099 115.048V122.632C39.1099 122.739 39.0725 122.829 38.9979 122.904C38.9339 122.968 38.8485 123 38.7419 123H37.9739ZM43.8009 123.16C43.2782 123.16 42.7929 123.053 42.3449 122.84C41.8969 122.627 41.5395 122.339 41.2729 121.976C41.0169 121.603 40.8889 121.192 40.8889 120.744C40.8889 120.04 41.1769 119.464 41.7529 119.016C42.3395 118.557 43.1289 118.259 44.1209 118.12L46.5049 117.784V117.32C46.5049 116.232 45.8809 115.688 44.6329 115.688C44.1635 115.688 43.7795 115.789 43.4809 115.992C43.1822 116.184 42.9582 116.413 42.8089 116.68C42.7769 116.776 42.7342 116.845 42.6809 116.888C42.6382 116.931 42.5742 116.952 42.4889 116.952H41.8009C41.7049 116.952 41.6195 116.92 41.5449 116.856C41.4809 116.781 41.4489 116.696 41.4489 116.6C41.4595 116.344 41.5769 116.056 41.8009 115.736C42.0355 115.405 42.3929 115.123 42.8729 114.888C43.3529 114.643 43.9449 114.52 44.6489 114.52C45.8435 114.52 46.7022 114.803 47.2249 115.368C47.7475 115.923 48.0089 116.616 48.0089 117.448V122.632C48.0089 122.739 47.9715 122.829 47.8969 122.904C47.8329 122.968 47.7475 123 47.6409 123H46.9049C46.7982 123 46.7075 122.968 46.6329 122.904C46.5689 122.829 46.5369 122.739 46.5369 122.632V121.944C46.3022 122.285 45.9609 122.573 45.5129 122.808C45.0649 123.043 44.4942 123.16 43.8009 123.16ZM44.1369 121.96C44.8302 121.96 45.3955 121.736 45.8329 121.288C46.2809 120.829 46.5049 120.173 46.5049 119.32V118.872L44.6489 119.144C43.8915 119.251 43.3209 119.432 42.9369 119.688C42.5529 119.933 42.3609 120.248 42.3609 120.632C42.3609 121.059 42.5369 121.389 42.8889 121.624C43.2409 121.848 43.6569 121.96 44.1369 121.96ZM50.677 123C50.5703 123 50.4797 122.968 50.405 122.904C50.341 122.829 50.309 122.739 50.309 122.632V115.048C50.309 114.941 50.341 114.856 50.405 114.792C50.4797 114.717 50.5703 114.68 50.677 114.68H51.429C51.5357 114.68 51.621 114.717 51.685 114.792C51.7597 114.856 51.797 114.941 51.797 115.048V115.752C52.1063 115.357 52.469 115.053 52.885 114.84C53.3117 114.627 53.8397 114.52 54.469 114.52C55.493 114.52 56.2877 114.851 56.853 115.512C57.429 116.163 57.717 117.032 57.717 118.12V122.632C57.717 122.739 57.6797 122.829 57.605 122.904C57.541 122.968 57.4557 123 57.349 123H56.549C56.4423 123 56.3517 122.968 56.277 122.904C56.213 122.829 56.181 122.739 56.181 122.632V118.2C56.181 117.443 55.9943 116.856 55.621 116.44C55.2583 116.024 54.7303 115.816 54.037 115.816C53.365 115.816 52.8317 116.029 52.437 116.456C52.0423 116.872 51.845 117.453 51.845 118.2V122.632C51.845 122.739 51.8077 122.829 51.733 122.904C51.669 122.968 51.5837 123 51.477 123H50.677Z" fill="#2B2B2B"/>
<path d="M361.432 123C361.325 123 361.229 122.963 361.144 122.888C361.069 122.803 361.032 122.707 361.032 122.6V114.984L358.84 116.664C358.765 116.728 358.685 116.76 358.6 116.76C358.483 116.76 358.376 116.696 358.28 116.568L357.336 115.336C357.283 115.251 357.256 115.171 357.256 115.096C357.256 114.947 357.32 114.835 357.448 114.76L361.128 111.912C361.245 111.837 361.373 111.8 361.512 111.8H363.512C363.629 111.8 363.725 111.837 363.8 111.912C363.875 111.987 363.912 112.083 363.912 112.2V122.6C363.912 122.707 363.875 122.803 363.8 122.888C363.725 122.963 363.629 123 363.512 123H361.432ZM370.377 123.16C368.905 123.149 367.79 122.76 367.033 121.992C366.276 121.213 365.865 120.195 365.801 118.936C365.78 118.36 365.769 117.848 365.769 117.4C365.769 116.941 365.78 116.413 365.801 115.816C365.844 115.016 366.036 114.307 366.377 113.688C366.729 113.059 367.241 112.563 367.913 112.2C368.585 111.827 369.406 111.64 370.377 111.64C371.817 111.651 372.926 112.04 373.705 112.808C374.484 113.576 374.905 114.579 374.969 115.816C374.99 116.413 375.001 116.941 375.001 117.4C375.001 117.848 374.99 118.36 374.969 118.936C374.894 120.195 374.478 121.213 373.721 121.992C372.964 122.76 371.849 123.149 370.377 123.16ZM370.377 120.84C370.9 120.84 371.289 120.669 371.545 120.328C371.812 119.976 371.956 119.485 371.977 118.856C371.998 118.547 372.009 118.051 372.009 117.368C372.009 116.685 371.998 116.2 371.977 115.912C371.956 115.304 371.817 114.824 371.561 114.472C371.305 114.12 370.91 113.939 370.377 113.928C369.854 113.939 369.46 114.12 369.193 114.472C368.937 114.824 368.798 115.304 368.777 115.912C368.766 116.2 368.761 116.685 368.761 117.368C368.761 118.051 368.766 118.547 368.777 118.856C368.83 120.179 369.364 120.84 370.377 120.84ZM381.252 123.16C379.78 123.149 378.665 122.76 377.908 121.992C377.151 121.213 376.74 120.195 376.676 118.936C376.655 118.36 376.644 117.848 376.644 117.4C376.644 116.941 376.655 116.413 376.676 115.816C376.719 115.016 376.911 114.307 377.252 113.688C377.604 113.059 378.116 112.563 378.788 112.2C379.46 111.827 380.281 111.64 381.252 111.64C382.692 111.651 383.801 112.04 384.58 112.808C385.359 113.576 385.78 114.579 385.844 115.816C385.865 116.413 385.876 116.941 385.876 117.4C385.876 117.848 385.865 118.36 385.844 118.936C385.769 120.195 385.353 121.213 384.596 121.992C383.839 122.76 382.724 123.149 381.252 123.16ZM381.252 120.84C381.775 120.84 382.164 120.669 382.42 120.328C382.687 119.976 382.831 119.485 382.852 118.856C382.873 118.547 382.884 118.051 382.884 117.368C382.884 116.685 382.873 116.2 382.852 115.912C382.831 115.304 382.692 114.824 382.436 114.472C382.18 114.12 381.785 113.939 381.252 113.928C380.729 113.939 380.335 114.12 380.068 114.472C379.812 114.824 379.673 115.304 379.652 115.912C379.641 116.2 379.636 116.685 379.636 117.368C379.636 118.051 379.641 118.547 379.652 118.856C379.705 120.179 380.239 120.84 381.252 120.84ZM389.775 117.448C389.05 117.448 388.468 117.261 388.031 116.888C387.594 116.504 387.354 115.992 387.311 115.352C387.29 115.032 387.279 114.808 387.279 114.68C387.279 114.552 387.29 114.275 387.311 113.848C387.343 113.197 387.572 112.68 387.999 112.296C388.426 111.912 389.018 111.72 389.775 111.72C390.522 111.72 391.108 111.912 391.535 112.296C391.962 112.68 392.191 113.197 392.223 113.848C392.244 114.275 392.255 114.552 392.255 114.68C392.255 114.808 392.244 115.032 392.223 115.352C392.18 115.992 391.94 116.504 391.503 116.888C391.066 117.261 390.49 117.448 389.775 117.448ZM388.495 123C388.388 123 388.298 122.973 388.223 122.92C388.159 122.856 388.127 122.776 388.127 122.68C388.127 122.616 388.148 122.557 388.191 122.504L396.095 112.104C396.18 111.997 396.26 111.923 396.335 111.88C396.41 111.827 396.516 111.8 396.655 111.8H397.791C397.898 111.8 397.983 111.832 398.047 111.896C398.122 111.949 398.159 112.024 398.159 112.12C398.159 112.184 398.138 112.243 398.095 112.296L390.191 122.696C390.106 122.803 390.026 122.883 389.951 122.936C389.876 122.979 389.77 123 389.631 123H388.495ZM389.775 116.056C390.223 116.056 390.468 115.795 390.511 115.272C390.532 114.931 390.543 114.707 390.543 114.6C390.543 114.461 390.532 114.243 390.511 113.944C390.5 113.709 390.431 113.517 390.303 113.368C390.186 113.219 390.01 113.144 389.775 113.144C389.53 113.144 389.348 113.219 389.231 113.368C389.114 113.517 389.044 113.709 389.023 113.944C389.012 114.093 389.007 114.312 389.007 114.6C389.007 114.877 389.012 115.101 389.023 115.272C389.066 115.795 389.316 116.056 389.775 116.056ZM396.543 123.08C395.818 123.08 395.236 122.893 394.799 122.52C394.372 122.136 394.132 121.619 394.079 120.968C394.068 120.787 394.063 120.541 394.063 120.232C394.063 119.912 394.068 119.656 394.079 119.464C394.122 118.803 394.351 118.28 394.767 117.896C395.194 117.512 395.786 117.32 396.543 117.32C397.3 117.32 397.887 117.512 398.303 117.896C398.73 118.28 398.964 118.803 399.007 119.464C399.028 119.891 399.039 120.168 399.039 120.296C399.039 120.424 399.028 120.648 399.007 120.968C398.964 121.608 398.724 122.12 398.287 122.504C397.85 122.888 397.268 123.08 396.543 123.08ZM396.543 121.672C396.788 121.672 396.97 121.597 397.087 121.448C397.204 121.288 397.274 121.096 397.295 120.872C397.316 120.552 397.327 120.328 397.327 120.2C397.327 120.061 397.316 119.843 397.295 119.544C397.274 119.32 397.204 119.133 397.087 118.984C396.97 118.824 396.788 118.744 396.543 118.744C396.298 118.744 396.116 118.824 395.999 118.984C395.882 119.133 395.818 119.32 395.807 119.544C395.796 119.693 395.791 119.912 395.791 120.2C395.791 120.488 395.796 120.712 395.807 120.872C395.828 121.107 395.892 121.299 395.999 121.448C396.116 121.597 396.298 121.672 396.543 121.672Z" fill="#2B2B2B"/>
</svg>
