<svg width="27" height="20" viewBox="0 0 27 20" fill="none" xmlns="http://www.w3.org/2000/svg">
<path d="M2.31484 18.2759C0.808657 16.6762 0 14.8819 0 11.9734C0 6.8553 3.59289 2.26804 8.81772 0L10.1236 2.01506C5.24677 4.65307 4.29334 8.07633 3.91314 10.2347C4.6984 9.82818 5.7264 9.68633 6.73393 9.77992C9.37194 10.0241 11.4513 12.1898 11.4513 14.8819C11.4513 16.2393 10.9121 17.5411 9.95229 18.5009C8.99246 19.4608 7.69066 20 6.33326 20C5.5826 19.9934 4.84073 19.8376 4.15085 19.5416C3.46097 19.2457 2.83686 18.8154 2.31484 18.2759ZM16.9379 18.2759C15.4317 16.6762 14.6231 14.8819 14.6231 11.9734C14.6231 6.8553 18.216 2.26804 23.4408 0L24.7467 2.01506C19.8699 4.65307 18.9164 8.07633 18.5362 10.2347C19.3215 9.82818 20.3495 9.68633 21.357 9.77992C23.995 10.0241 26.0744 12.1898 26.0744 14.8819C26.0744 16.2393 25.5352 17.5411 24.5754 18.5009C23.6156 19.4608 22.3137 20 20.9564 20C20.2057 19.9934 19.4638 19.8376 18.7739 19.5416C18.0841 19.2457 17.4599 18.8154 16.9379 18.2759Z" fill="#2B2B2B"/>
</svg>
