<svg width="67" height="64" viewBox="0 0 67 64" fill="none" xmlns="http://www.w3.org/2000/svg">
<path opacity="0.25" fill-rule="evenodd" clip-rule="evenodd" d="M32.3755 0.0730005C42.9242 0.0690436 54.9097 -1.01708 61.6233 6.94963C68.4101 15.0034 66.0434 26.6111 63.2251 36.6811C60.5975 46.0697 55.7451 54.8785 46.9426 59.4043C37.7645 64.1232 26.4506 65.1855 17.3951 60.2446C8.82289 55.5673 6.68562 45.3787 4.20106 36.0833C1.55947 26.2004 -3.18915 15.0812 3.15583 6.97156C9.56612 -1.22155 21.8345 0.0769545 32.3755 0.0730005Z" fill="#FF7939"/>
<path fill-rule="evenodd" clip-rule="evenodd" d="M45.3968 63.6428C45.3968 63.6428 49.5238 63.6428 49.5238 59.602C49.5238 55.5612 45.3968 43.4388 24.7619 43.4388C4.12698 43.4388 0 55.5612 0 59.602C0 63.6428 4.12698 63.6428 4.12698 63.6428H45.3968ZM4.14762 59.8283V59.8202V59.8283ZM4.21778 59.602H45.306C45.3254 59.5998 45.3446 59.5971 45.3638 59.5939L45.3968 59.5859C45.3927 58.5918 44.7613 55.6016 41.9632 52.8619C39.2724 50.2273 34.2086 47.4796 24.7619 47.4796C15.3111 47.4796 10.2514 50.2273 7.56064 52.8619C4.76254 55.6016 4.13524 58.5918 4.12698 59.5859C4.15719 59.5916 4.18746 59.5969 4.21778 59.602ZM45.3803 59.8283V59.8202V59.8283ZM24.7619 35.3571C26.951 35.3571 29.0504 34.5057 30.5983 32.9901C32.1463 31.4745 33.0159 29.4189 33.0159 27.2755C33.0159 25.1321 32.1463 23.0765 30.5983 21.5609C29.0504 20.0453 26.951 19.1939 24.7619 19.1939C22.5728 19.1939 20.4734 20.0453 18.9255 21.5609C17.3775 23.0765 16.5079 25.1321 16.5079 27.2755C16.5079 29.4189 17.3775 31.4745 18.9255 32.9901C20.4734 34.5057 22.5728 35.3571 24.7619 35.3571ZM37.1429 27.2755C37.1429 30.4906 35.8384 33.574 33.5166 35.8474C31.1947 38.1208 28.0455 39.398 24.7619 39.398C21.4783 39.398 18.3291 38.1208 16.0072 35.8474C13.6854 33.574 12.381 30.4906 12.381 27.2755C12.381 24.0604 13.6854 20.9771 16.0072 18.7037C18.3291 16.4303 21.4783 15.1531 24.7619 15.1531C28.0455 15.1531 31.1947 16.4303 33.5166 18.7037C35.8384 20.9771 37.1429 24.0604 37.1429 27.2755Z" fill="#31DC9E"/>
</svg>
