<svg width="66" height="63" viewBox="0 0 66 63" fill="none" xmlns="http://www.w3.org/2000/svg">
<path opacity="0.25" fill-rule="evenodd" clip-rule="evenodd" d="M32.0485 0.0722632C42.4907 0.0683463 54.3551 -1.0068 61.0009 6.87944C67.7192 14.8518 65.3763 26.3423 62.5865 36.3106C59.9854 45.6044 55.182 54.3242 46.4685 58.8043C37.383 63.4756 26.1834 64.5271 17.2194 59.6361C8.73378 55.0061 6.61809 44.9204 4.15863 35.7188C1.54372 25.9358 -3.15694 14.9289 3.12396 6.90115C9.4695 -1.20921 21.614 0.0761772 32.0485 0.0722632Z" fill="#FF7939"/>
<path d="M24.5118 15C10.9756 15 0 25.7464 0 39C0 52.2536 10.9756 63 24.5118 63C38.048 63 49.0236 52.2536 49.0236 39C49.0236 25.7464 38.048 15 24.5118 15ZM24.5118 58.9286C13.2736 58.9286 4.15825 50.0036 4.15825 39C4.15825 27.9964 13.2736 19.0714 24.5118 19.0714C35.75 19.0714 44.8654 27.9964 44.8654 39C44.8654 50.0036 35.75 58.9286 24.5118 58.9286ZM27.1217 37.7571L25.7319 37.4411V30.2464C27.811 30.525 29.0968 31.8 29.3157 33.3643C29.343 33.5786 29.5291 33.7339 29.7479 33.7339H32.2046C32.4617 33.7339 32.6642 33.5143 32.6423 33.2625C32.3085 29.925 29.5017 27.7821 25.7538 27.4125V25.6607C25.7538 25.425 25.5568 25.2321 25.3161 25.2321H23.7786C23.5379 25.2321 23.3409 25.425 23.3409 25.6607V27.4286C19.4672 27.7982 16.436 29.8929 16.436 33.8036C16.436 37.425 19.1608 39.1714 22.0223 39.8411L23.3738 40.1786V47.8232C20.9554 47.5071 19.5985 46.2429 19.3195 44.5393C19.2866 44.3357 19.1006 44.1857 18.8872 44.1857H16.3594C16.1023 44.1857 15.8998 44.4 15.9217 44.6518C16.1679 47.5982 18.4495 50.3089 23.319 50.6571V52.3393C23.319 52.575 23.516 52.7679 23.7568 52.7679H25.3106C25.5514 52.7679 25.7483 52.575 25.7483 52.3339L25.7374 50.6357C30.0215 50.2661 33.0855 48.0214 33.0855 43.9929C33.08 40.275 30.6671 38.6143 27.1217 37.7571ZM23.3683 36.8893C23.0619 36.8036 22.8047 36.7232 22.5476 36.6214C20.6982 35.9679 19.8392 34.9125 19.8392 33.5518C19.8392 31.6071 21.3439 30.4982 23.3683 30.2464V36.8893ZM25.7319 47.8393V40.6768C25.9015 40.725 26.0547 40.7625 26.2134 40.7946C28.8014 41.5661 29.6713 42.6375 29.6713 44.2821C29.6713 46.3768 28.0627 47.6357 25.7319 47.8393Z" fill="#31DC9E"/>
</svg>
