<svg width="67" height="63" viewBox="0 0 67 63" fill="none" xmlns="http://www.w3.org/2000/svg">
<path opacity="0.25" fill-rule="evenodd" clip-rule="evenodd" d="M32.8178 0.0722327C43.26 0.0683157 55.1244 -1.00683 61.7701 6.87941C68.4884 14.8518 66.1456 26.3423 63.3558 36.3106C60.7547 45.6043 55.9513 54.3242 47.2378 58.8043C38.1523 63.4756 26.9527 64.5271 17.9887 59.6361C9.50307 55.0061 7.38738 44.9203 4.92792 35.7188C2.31301 25.9357 -2.38765 14.9289 3.89324 6.90112C10.2388 -1.20924 22.3833 0.0761467 32.8178 0.0722327Z" fill="#FF7939"/>
<path fill-rule="evenodd" clip-rule="evenodd" d="M45.7076 63C45.7076 63 49.7929 63 49.7929 59C49.7929 55 45.7076 43 25.2811 43C4.85459 43 0.769287 55 0.769287 59C0.769287 63 4.85459 63 4.85459 63H45.7076ZM4.87501 59.224V59.216V59.224ZM4.94446 59H45.6177C45.6369 58.9978 45.6559 58.9951 45.6749 58.992L45.7076 58.984C45.7035 58 45.0785 55.04 42.3086 52.328C39.645 49.72 34.6323 47 25.2811 47C15.9258 47 10.9172 49.72 8.25356 52.328C5.48372 55.04 4.86276 58 4.85459 58.984C4.88449 58.9896 4.91445 58.9949 4.94446 59ZM45.6913 59.224V59.216V59.224ZM25.2811 35C27.4481 35 29.5263 34.1571 31.0586 32.6568C32.5909 31.1565 33.4517 29.1217 33.4517 27C33.4517 24.8782 32.5909 22.8434 31.0586 21.3431C29.5263 19.8428 27.4481 19 25.2811 19C23.1141 19 21.0359 19.8428 19.5036 21.3431C17.9713 22.8434 17.1105 24.8782 17.1105 27C17.1105 29.1217 17.9713 31.1565 19.5036 32.6568C21.0359 34.1571 23.1141 35 25.2811 35ZM37.537 27C37.537 30.1826 36.2458 33.2348 33.9473 35.4853C31.6489 37.7357 28.5316 39 25.2811 39C22.0306 39 18.9133 37.7357 16.6149 35.4853C14.3164 33.2348 13.0252 30.1826 13.0252 27C13.0252 23.8174 14.3164 20.7651 16.6149 18.5147C18.9133 16.2643 22.0306 15 25.2811 15C28.5316 15 31.6489 16.2643 33.9473 18.5147C36.2458 20.7651 37.537 23.8174 37.537 27ZM65.5377 27.584C65.7279 27.7698 65.8788 27.9905 65.9818 28.2334C66.0847 28.4764 66.1378 28.7369 66.1378 29C66.1378 29.263 66.0847 29.5235 65.9818 29.7665C65.8788 30.0095 65.7279 30.2302 65.5377 30.416L53.2817 42.416C53.092 42.6022 52.8666 42.75 52.6184 42.8508C52.3703 42.9516 52.1042 43.0035 51.8355 43.0035C51.5669 43.0035 51.3008 42.9516 51.0527 42.8508C50.8045 42.75 50.5791 42.6022 50.3894 42.416L44.2614 36.416C43.8778 36.0404 43.6624 35.5311 43.6624 35C43.6624 34.4689 43.8778 33.9595 44.2614 33.584C44.645 33.2084 45.1652 32.9974 45.7076 32.9974C46.25 32.9974 46.7702 33.2084 47.1538 33.584L51.8355 38.172L62.6453 27.584C62.835 27.3977 63.0604 27.2499 63.3086 27.1491C63.5567 27.0483 63.8228 26.9964 64.0914 26.9964C64.3601 26.9964 64.6262 27.0483 64.8743 27.1491C65.1225 27.2499 65.3479 27.3977 65.5377 27.584Z" fill="#31DC9E"/>
</svg>
