<svg width="523" height="237" viewBox="0 0 523 237" fill="none" xmlns="http://www.w3.org/2000/svg">
<path d="M64 189.2C51.4667 189.2 41 187.267 32.6 183.4C24.2 179.4 17.8 174.267 13.4 168C9.13333 161.6 6.86667 154.733 6.6 147.4C6.6 146.2 7 145.2 7.8 144.4C8.6 143.6 9.6 143.2 10.8 143.2H37.6C39.3333 143.2 40.6667 143.6 41.6 144.4C42.6667 145.067 43.4667 145.933 44 147C45.2 150.067 46.7333 152.6 48.6 154.6C50.6 156.6 52.8667 158.067 55.4 159C58.0667 159.933 61 160.4 64.2 160.4C67.9333 160.4 71.4 159.6 74.6 158C77.8 156.4 80.3333 154.067 82.2 151C84.2 147.8 85.2 144 85.2 139.6C85.2 135.6 84.2667 132.133 82.4 129.2C80.6667 126.267 78.2 123.933 75 122.2C71.8 120.467 68.2 119.6 64.2 119.6C61 119.6 58.4 120 56.4 120.8C54.4 121.467 52.7333 122.333 51.4 123.4C50.0667 124.467 48.8667 125.4 47.8 126.2C46.7333 126.867 45.5333 127.2 44.2 127.2H18C16.8 127.2 15.7333 126.8 14.8 126C14 125.067 13.6 124 13.6 122.8L20.8 53C21.0667 51 21.8 49.5333 23 48.6C24.2 47.5333 25.6667 47 27.4 47H107.6C109.067 47 110.267 47.4666 111.2 48.4C112.133 49.3333 112.6 50.5333 112.6 52V70.8C112.6 72.2666 112.133 73.4666 111.2 74.4C110.267 75.3333 109.067 75.8 107.6 75.8H49.6L47 101.8C49.9333 99.8 53.3333 98.2 57.2 97C61.2 95.6666 66.6 95 73.4 95C79.8 95 85.8667 96.0666 91.6 98.2C97.4667 100.333 102.667 103.4 107.2 107.4C111.867 111.4 115.467 116.2 118 121.8C120.667 127.267 122 133.467 122 140.4C122 149.867 119.667 158.267 115 165.6C110.467 172.933 103.867 178.733 95.2 183C86.5333 187.133 76.1333 189.2 64 189.2ZM197.097 189C187.497 189 179.164 187.667 172.097 185C165.03 182.2 159.164 178.4 154.497 173.6C149.964 168.8 146.497 163.2 144.097 156.8C141.697 150.4 140.297 143.533 139.897 136.2C139.764 132.6 139.63 128.533 139.497 124C139.497 119.333 139.497 114.667 139.497 110C139.63 105.2 139.764 100.933 139.897 97.2C140.297 89.8666 141.697 83.0666 144.097 76.8C146.63 70.4 150.23 64.8666 154.897 60.2C159.697 55.4 165.564 51.6666 172.497 49C179.564 46.3333 187.764 45 197.097 45C206.564 45 214.764 46.3333 221.697 49C228.63 51.6666 234.43 55.4 239.097 60.2C243.897 64.8666 247.564 70.4 250.097 76.8C252.63 83.0666 254.03 89.8666 254.297 97.2C254.564 100.933 254.697 105.2 254.697 110C254.83 114.667 254.83 119.333 254.697 124C254.697 128.533 254.564 132.6 254.297 136.2C254.03 143.533 252.63 150.4 250.097 156.8C247.697 163.2 244.164 168.8 239.497 173.6C234.964 178.4 229.164 182.2 222.097 185C215.164 187.667 206.83 189 197.097 189ZM197.097 160C204.03 160 209.03 157.8 212.097 153.4C215.297 148.867 216.964 142.8 217.097 135.2C217.364 131.333 217.497 127.267 217.497 123C217.63 118.733 217.63 114.467 217.497 110.2C217.497 105.933 217.364 102 217.097 98.4C216.964 91.0666 215.297 85.1333 212.097 80.6C209.03 76.0666 204.03 73.7333 197.097 73.6C190.164 73.7333 185.164 76.0666 182.097 80.6C179.03 85.1333 177.364 91.0666 177.097 98.4C176.964 102 176.83 105.933 176.697 110.2C176.697 114.467 176.697 118.733 176.697 123C176.83 127.267 176.964 131.333 177.097 135.2C177.364 142.8 179.097 148.867 182.297 153.4C185.497 157.8 190.43 160 197.097 160ZM333.034 189C323.434 189 315.101 187.667 308.034 185C300.968 182.2 295.101 178.4 290.434 173.6C285.901 168.8 282.434 163.2 280.034 156.8C277.634 150.4 276.234 143.533 275.834 136.2C275.701 132.6 275.568 128.533 275.434 124C275.434 119.333 275.434 114.667 275.434 110C275.568 105.2 275.701 100.933 275.834 97.2C276.234 89.8666 277.634 83.0666 280.034 76.8C282.568 70.4 286.168 64.8666 290.834 60.2C295.634 55.4 301.501 51.6666 308.434 49C315.501 46.3333 323.701 45 333.034 45C342.501 45 350.701 46.3333 357.634 49C364.568 51.6666 370.368 55.4 375.034 60.2C379.834 64.8666 383.501 70.4 386.034 76.8C388.568 83.0666 389.968 89.8666 390.234 97.2C390.501 100.933 390.634 105.2 390.634 110C390.768 114.667 390.768 119.333 390.634 124C390.634 128.533 390.501 132.6 390.234 136.2C389.968 143.533 388.568 150.4 386.034 156.8C383.634 163.2 380.101 168.8 375.434 173.6C370.901 178.4 365.101 182.2 358.034 185C351.101 187.667 342.768 189 333.034 189ZM333.034 160C339.968 160 344.968 157.8 348.034 153.4C351.234 148.867 352.901 142.8 353.034 135.2C353.301 131.333 353.434 127.267 353.434 123C353.568 118.733 353.568 114.467 353.434 110.2C353.434 105.933 353.301 102 353.034 98.4C352.901 91.0666 351.234 85.1333 348.034 80.6C344.968 76.0666 339.968 73.7333 333.034 73.6C326.101 73.7333 321.101 76.0666 318.034 80.6C314.968 85.1333 313.301 91.0666 313.034 98.4C312.901 102 312.768 105.933 312.634 110.2C312.634 114.467 312.634 118.733 312.634 123C312.768 127.267 312.901 131.333 313.034 135.2C313.301 142.8 315.034 148.867 318.234 153.4C321.434 157.8 326.368 160 333.034 160ZM453.772 180.4C452.305 180.4 451.105 179.933 450.172 179C449.239 178.067 448.772 176.867 448.772 175.4V138.8H413.172C411.705 138.8 410.439 138.333 409.372 137.4C408.439 136.467 407.972 135.267 407.972 133.8V119.2C407.972 117.733 408.439 116.533 409.372 115.6C410.439 114.667 411.705 114.2 413.172 114.2H448.772V78.6C448.772 77.1333 449.239 75.9333 450.172 75C451.105 74.0666 452.305 73.6 453.772 73.6H470.172C471.505 73.6 472.639 74.0666 473.572 75C474.639 75.9333 475.172 77.1333 475.172 78.6V114.2H510.572C512.039 114.2 513.239 114.667 514.172 115.6C515.105 116.533 515.572 117.733 515.572 119.2V133.8C515.572 135.267 515.105 136.467 514.172 137.4C513.239 138.333 512.039 138.8 510.572 138.8H475.172V175.4C475.172 176.867 474.639 178.067 473.572 179C472.639 179.933 471.505 180.4 470.172 180.4H453.772Z" fill="#FFDDCD"/>
<path d="M11.952 187C11.632 187 11.344 186.888 11.088 186.664C10.864 186.408 10.752 186.12 10.752 185.8V160.936H2.208C1.888 160.936 1.6 160.824 1.344 160.6C1.12 160.344 1.008 160.056 1.008 159.736V154.6C1.008 154.248 1.12 153.96 1.344 153.736C1.6 153.512 1.888 153.4 2.208 153.4H28.032C28.384 153.4 28.672 153.512 28.896 153.736C29.12 153.96 29.232 154.248 29.232 154.6V159.736C29.232 160.088 29.12 160.376 28.896 160.6C28.672 160.824 28.384 160.936 28.032 160.936H19.488V185.8C19.488 186.12 19.376 186.408 19.152 186.664C18.928 186.888 18.64 187 18.288 187H11.952ZM34.7944 187C34.4744 187 34.1864 186.888 33.9304 186.664C33.7064 186.408 33.5944 186.12 33.5944 185.8V154.6C33.5944 154.248 33.7064 153.96 33.9304 153.736C34.1864 153.512 34.4744 153.4 34.7944 153.4H47.8504C52.0424 153.4 55.3064 154.36 57.6424 156.28C60.0104 158.168 61.1944 160.856 61.1944 164.344C61.1944 166.584 60.6664 168.488 59.6104 170.056C58.5544 171.624 57.0984 172.824 55.2424 173.656L61.8184 185.464C61.9144 185.656 61.9624 185.832 61.9624 185.992C61.9624 186.248 61.8504 186.488 61.6264 186.712C61.4344 186.904 61.2104 187 60.9544 187H54.5704C53.6424 187 52.9864 186.568 52.6024 185.704L47.1304 175.144H42.2344V185.8C42.2344 186.152 42.1064 186.44 41.8504 186.664C41.6264 186.888 41.3384 187 40.9864 187H34.7944ZM47.7544 168.328C49.2264 168.328 50.3464 167.976 51.1144 167.272C51.8824 166.536 52.2664 165.528 52.2664 164.248C52.2664 162.968 51.8824 161.96 51.1144 161.224C50.3784 160.456 49.2584 160.072 47.7544 160.072H42.2344V168.328H47.7544ZM64.8619 187C64.6059 187 64.3659 186.904 64.1419 186.712C63.9499 186.488 63.8539 186.248 63.8539 185.992C63.8539 185.8 63.8699 185.656 63.9019 185.56L75.1819 154.744C75.2779 154.36 75.4859 154.04 75.8059 153.784C76.1259 153.528 76.5419 153.4 77.0539 153.4H84.1579C84.6699 153.4 85.0859 153.528 85.4059 153.784C85.7259 154.04 85.9339 154.36 86.0299 154.744L97.2619 185.56L97.3579 185.992C97.3579 186.248 97.2459 186.488 97.0219 186.712C96.8299 186.904 96.5899 187 96.3019 187H90.3979C89.6299 187 89.1179 186.664 88.8619 185.992L86.9899 181.096H74.1739L72.3499 185.992C72.0939 186.664 71.5659 187 70.7659 187H64.8619ZM85.0699 174.184L80.6059 161.512L76.1419 174.184H85.0699ZM102.341 187C102.021 187 101.733 186.888 101.477 186.664C101.253 186.408 101.141 186.12 101.141 185.8V154.6C101.141 154.248 101.253 153.96 101.477 153.736C101.733 153.512 102.021 153.4 102.341 153.4H108.773C109.125 153.4 109.413 153.512 109.637 153.736C109.893 153.96 110.021 154.248 110.021 154.6V185.8C110.021 186.152 109.893 186.44 109.637 186.664C109.413 186.888 109.125 187 108.773 187H102.341ZM117.904 187C117.584 187 117.296 186.888 117.04 186.664C116.816 186.408 116.704 186.12 116.704 185.8V154.6C116.704 154.248 116.816 153.96 117.04 153.736C117.296 153.512 117.584 153.4 117.904 153.4H122.992C123.792 153.4 124.336 153.704 124.624 154.312L136.336 172.744V154.6C136.336 154.248 136.448 153.96 136.672 153.736C136.928 153.512 137.216 153.4 137.536 153.4H143.296C143.648 153.4 143.936 153.512 144.16 153.736C144.384 153.96 144.496 154.248 144.496 154.6V185.752C144.496 186.104 144.384 186.408 144.16 186.664C143.936 186.888 143.648 187 143.296 187H138.16C137.456 187 136.928 186.696 136.576 186.088L124.864 168.328V185.8C124.864 186.12 124.752 186.408 124.528 186.664C124.304 186.888 124.016 187 123.664 187H117.904ZM152.404 187C152.084 187 151.796 186.888 151.54 186.664C151.316 186.408 151.204 186.12 151.204 185.8V154.6C151.204 154.248 151.316 153.96 151.54 153.736C151.796 153.512 152.084 153.4 152.404 153.4H174.82C175.172 153.4 175.46 153.512 175.684 153.736C175.908 153.96 176.02 154.248 176.02 154.6V159.112C176.02 159.432 175.908 159.72 175.684 159.976C175.46 160.2 175.172 160.312 174.82 160.312H159.508V166.792H173.764C174.116 166.792 174.404 166.92 174.628 167.176C174.852 167.4 174.964 167.688 174.964 168.04V172.216C174.964 172.536 174.852 172.824 174.628 173.08C174.404 173.304 174.116 173.416 173.764 173.416H159.508V180.088H175.204C175.556 180.088 175.844 180.2 176.068 180.424C176.292 180.648 176.404 180.936 176.404 181.288V185.8C176.404 186.12 176.292 186.408 176.068 186.664C175.844 186.888 175.556 187 175.204 187H152.404ZM183.06 187C182.74 187 182.452 186.888 182.196 186.664C181.972 186.408 181.86 186.12 181.86 185.8V154.6C181.86 154.248 181.972 153.96 182.196 153.736C182.452 153.512 182.74 153.4 183.06 153.4H195.54C200.244 153.4 203.892 154.52 206.484 156.76C209.076 159 210.436 162.248 210.564 166.504C210.596 167.432 210.612 168.664 210.612 170.2C210.612 171.736 210.596 172.952 210.564 173.848C210.404 178.296 209.076 181.608 206.58 183.784C204.116 185.928 200.516 187 195.78 187H183.06ZM195.54 180.088C197.652 180.088 199.204 179.592 200.196 178.6C201.188 177.576 201.716 175.96 201.78 173.752C201.844 172.824 201.876 171.624 201.876 170.152C201.876 168.68 201.844 167.496 201.78 166.6C201.716 164.456 201.14 162.872 200.052 161.848C198.996 160.824 197.412 160.312 195.3 160.312H190.5V180.088H195.54ZM238.966 187.48C235.926 187.48 233.318 187.032 231.142 186.136C228.966 185.24 227.318 184.072 226.198 182.632C225.11 181.16 224.534 179.56 224.47 177.832C224.47 177.576 224.566 177.352 224.758 177.16C224.982 176.936 225.238 176.824 225.526 176.824H231.574C231.958 176.824 232.262 176.904 232.486 177.064C232.742 177.192 232.998 177.4 233.254 177.688C233.67 178.52 234.342 179.208 235.27 179.752C236.198 180.296 237.43 180.568 238.966 180.568C240.79 180.568 242.182 180.28 243.142 179.704C244.102 179.128 244.582 178.344 244.582 177.352C244.582 176.648 244.326 176.072 243.814 175.624C243.334 175.176 242.566 174.776 241.51 174.424C240.454 174.072 238.886 173.672 236.806 173.224C232.966 172.424 230.086 171.256 228.166 169.72C226.278 168.152 225.334 165.928 225.334 163.048C225.334 161.096 225.878 159.352 226.966 157.816C228.054 156.28 229.606 155.08 231.622 154.216C233.638 153.352 235.99 152.92 238.678 152.92C241.462 152.92 243.878 153.4 245.926 154.36C247.974 155.32 249.526 156.536 250.582 158.008C251.67 159.448 252.246 160.872 252.31 162.28C252.31 162.568 252.214 162.808 252.022 163C251.83 163.192 251.59 163.288 251.302 163.288H244.966C244.582 163.288 244.262 163.224 244.006 163.096C243.782 162.968 243.574 162.76 243.382 162.472C243.19 161.736 242.662 161.112 241.798 160.6C240.966 160.088 239.926 159.832 238.678 159.832C237.238 159.832 236.134 160.088 235.366 160.6C234.598 161.112 234.214 161.864 234.214 162.856C234.214 163.528 234.422 164.088 234.838 164.536C235.286 164.984 235.99 165.4 236.95 165.784C237.942 166.136 239.35 166.504 241.174 166.888C244.15 167.432 246.518 168.12 248.278 168.952C250.07 169.752 251.382 170.808 252.214 172.12C253.046 173.4 253.462 175.016 253.462 176.968C253.462 179.112 252.838 180.984 251.59 182.584C250.374 184.152 248.662 185.368 246.454 186.232C244.278 187.064 241.782 187.48 238.966 187.48ZM266.53 187C266.21 187 265.922 186.888 265.666 186.664C265.442 186.408 265.33 186.12 265.33 185.8V160.936H256.786C256.466 160.936 256.178 160.824 255.922 160.6C255.698 160.344 255.586 160.056 255.586 159.736V154.6C255.586 154.248 255.698 153.96 255.922 153.736C256.178 153.512 256.466 153.4 256.786 153.4H282.61C282.962 153.4 283.25 153.512 283.474 153.736C283.698 153.96 283.81 154.248 283.81 154.6V159.736C283.81 160.088 283.698 160.376 283.474 160.6C283.25 160.824 282.962 160.936 282.61 160.936H274.066V185.8C274.066 186.12 273.954 186.408 273.73 186.664C273.506 186.888 273.218 187 272.866 187H266.53ZM302.285 187.48C297.773 187.48 294.237 186.376 291.677 184.168C289.149 181.96 287.885 178.632 287.885 174.184V154.6C287.885 154.248 287.997 153.96 288.221 153.736C288.477 153.512 288.765 153.4 289.085 153.4H295.277C295.629 153.4 295.917 153.512 296.141 153.736C296.397 153.96 296.525 154.248 296.525 154.6V174.136C296.525 176.216 297.005 177.784 297.965 178.84C298.957 179.864 300.381 180.376 302.237 180.376C304.061 180.376 305.469 179.848 306.461 178.792C307.453 177.736 307.949 176.184 307.949 174.136V154.6C307.949 154.248 308.061 153.96 308.285 153.736C308.541 153.512 308.829 153.4 309.149 153.4H315.389C315.741 153.4 316.029 153.512 316.253 153.736C316.477 153.96 316.589 154.248 316.589 154.6V174.184C316.589 178.632 315.309 181.96 312.749 184.168C310.221 186.376 306.733 187.48 302.285 187.48ZM324.154 187C323.834 187 323.546 186.888 323.29 186.664C323.066 186.408 322.954 186.12 322.954 185.8V154.6C322.954 154.248 323.066 153.96 323.29 153.736C323.546 153.512 323.834 153.4 324.154 153.4H336.634C341.338 153.4 344.986 154.52 347.578 156.76C350.17 159 351.53 162.248 351.658 166.504C351.69 167.432 351.706 168.664 351.706 170.2C351.706 171.736 351.69 172.952 351.658 173.848C351.498 178.296 350.17 181.608 347.674 183.784C345.21 185.928 341.61 187 336.874 187H324.154ZM336.634 180.088C338.746 180.088 340.298 179.592 341.29 178.6C342.282 177.576 342.81 175.96 342.874 173.752C342.938 172.824 342.97 171.624 342.97 170.152C342.97 168.68 342.938 167.496 342.874 166.6C342.81 164.456 342.234 162.872 341.146 161.848C340.09 160.824 338.506 160.312 336.394 160.312H331.594V180.088H336.634ZM358.513 187C358.193 187 357.905 186.888 357.649 186.664C357.425 186.408 357.313 186.12 357.313 185.8V154.6C357.313 154.248 357.425 153.96 357.649 153.736C357.905 153.512 358.193 153.4 358.513 153.4H380.929C381.281 153.4 381.569 153.512 381.793 153.736C382.017 153.96 382.129 154.248 382.129 154.6V159.112C382.129 159.432 382.017 159.72 381.793 159.976C381.569 160.2 381.281 160.312 380.929 160.312H365.617V166.792H379.873C380.225 166.792 380.513 166.92 380.737 167.176C380.961 167.4 381.073 167.688 381.073 168.04V172.216C381.073 172.536 380.961 172.824 380.737 173.08C380.513 173.304 380.225 173.416 379.873 173.416H365.617V180.088H381.313C381.665 180.088 381.953 180.2 382.177 180.424C382.401 180.648 382.513 180.936 382.513 181.288V185.8C382.513 186.12 382.401 186.408 382.177 186.664C381.953 186.888 381.665 187 381.313 187H358.513ZM389.169 187C388.849 187 388.561 186.888 388.305 186.664C388.081 186.408 387.969 186.12 387.969 185.8V154.6C387.969 154.248 388.081 153.96 388.305 153.736C388.561 153.512 388.849 153.4 389.169 153.4H394.257C395.057 153.4 395.601 153.704 395.889 154.312L407.601 172.744V154.6C407.601 154.248 407.713 153.96 407.937 153.736C408.193 153.512 408.481 153.4 408.801 153.4H414.561C414.913 153.4 415.201 153.512 415.425 153.736C415.649 153.96 415.761 154.248 415.761 154.6V185.752C415.761 186.104 415.649 186.408 415.425 186.664C415.201 186.888 414.913 187 414.561 187H409.425C408.721 187 408.193 186.696 407.841 186.088L396.129 168.328V185.8C396.129 186.12 396.017 186.408 395.793 186.664C395.569 186.888 395.281 187 394.929 187H389.169ZM431.061 187C430.741 187 430.453 186.888 430.197 186.664C429.973 186.408 429.861 186.12 429.861 185.8V160.936H421.317C420.997 160.936 420.709 160.824 420.453 160.6C420.229 160.344 420.117 160.056 420.117 159.736V154.6C420.117 154.248 420.229 153.96 420.453 153.736C420.709 153.512 420.997 153.4 421.317 153.4H447.141C447.493 153.4 447.781 153.512 448.005 153.736C448.229 153.96 448.341 154.248 448.341 154.6V159.736C448.341 160.088 448.229 160.376 448.005 160.6C447.781 160.824 447.493 160.936 447.141 160.936H438.597V185.8C438.597 186.12 438.485 186.408 438.261 186.664C438.037 186.888 437.749 187 437.397 187H431.061ZM465.138 187.48C462.098 187.48 459.49 187.032 457.314 186.136C455.138 185.24 453.49 184.072 452.37 182.632C451.282 181.16 450.706 179.56 450.642 177.832C450.642 177.576 450.738 177.352 450.93 177.16C451.154 176.936 451.41 176.824 451.698 176.824H457.746C458.13 176.824 458.434 176.904 458.658 177.064C458.914 177.192 459.17 177.4 459.426 177.688C459.842 178.52 460.514 179.208 461.442 179.752C462.37 180.296 463.602 180.568 465.138 180.568C466.962 180.568 468.354 180.28 469.314 179.704C470.274 179.128 470.754 178.344 470.754 177.352C470.754 176.648 470.498 176.072 469.986 175.624C469.506 175.176 468.738 174.776 467.682 174.424C466.626 174.072 465.058 173.672 462.978 173.224C459.138 172.424 456.258 171.256 454.338 169.72C452.45 168.152 451.506 165.928 451.506 163.048C451.506 161.096 452.05 159.352 453.138 157.816C454.226 156.28 455.778 155.08 457.794 154.216C459.81 153.352 462.162 152.92 464.85 152.92C467.634 152.92 470.05 153.4 472.098 154.36C474.146 155.32 475.698 156.536 476.754 158.008C477.842 159.448 478.418 160.872 478.482 162.28C478.482 162.568 478.386 162.808 478.194 163C478.002 163.192 477.762 163.288 477.474 163.288H471.138C470.754 163.288 470.434 163.224 470.178 163.096C469.954 162.968 469.746 162.76 469.554 162.472C469.362 161.736 468.834 161.112 467.97 160.6C467.138 160.088 466.098 159.832 464.85 159.832C463.41 159.832 462.306 160.088 461.538 160.6C460.77 161.112 460.386 161.864 460.386 162.856C460.386 163.528 460.594 164.088 461.01 164.536C461.458 164.984 462.162 165.4 463.122 165.784C464.114 166.136 465.522 166.504 467.346 166.888C470.322 167.432 472.69 168.12 474.45 168.952C476.242 169.752 477.554 170.808 478.386 172.12C479.218 173.4 479.634 175.016 479.634 176.968C479.634 179.112 479.01 180.984 477.762 182.584C476.546 184.152 474.834 185.368 472.626 186.232C470.45 187.064 467.954 187.48 465.138 187.48Z" fill="#FF7939"/>
</svg>
