<svg width="496" height="237" viewBox="0 0 496 237" fill="none" xmlns="http://www.w3.org/2000/svg">
<path d="M67.6 189C54.8 189 44 187.067 35.2 183.2C26.4 179.333 19.8 174.067 15.4 167.4C11.1333 160.733 9 153.267 9 145C9 137.933 10.7333 131.6 14.2 126C17.8 120.267 22.5333 115.8 28.4 112.6C23.7333 109.533 20.1333 105.667 17.6 101C15.2 96.3333 14 91 14 85C14 77.4 15.9333 70.6 19.8 64.6C23.8 58.4666 29.8 53.6666 37.8 50.2C45.8 46.7333 55.7333 45 67.6 45C85.0667 45 98.2667 48.6666 107.2 56C116.267 63.3333 120.8 72.9333 120.8 84.8C120.8 96.9333 116.133 106.2 106.8 112.6C112.8 115.533 117.533 119.867 121 125.6C124.6 131.333 126.4 137.867 126.4 145.2C126.4 153.467 124.2 160.933 119.8 167.6C115.4 174.133 108.733 179.333 99.8 183.2C91 187.067 80.2667 189 67.6 189ZM67.6 102.6C73.4667 102.467 78.2667 100.933 82 98C85.7333 95.0666 87.6 91.2666 87.6 86.6C87.6 81.8 85.7333 77.9333 82 75C78.2667 72.0666 73.4667 70.6 67.6 70.6C61.7333 70.6 56.9333 72.0666 53.2 75C49.4667 77.9333 47.6 81.8 47.6 86.6C47.6 91.4 49.4667 95.2666 53.2 98.2C56.9333 101.133 61.7333 102.6 67.6 102.6ZM67.6 163.4C74.1333 163.4 79.5333 161.733 83.8 158.4C88.0667 155.067 90.2 150.6 90.2 145C90.2 139.4 88.0667 135 83.8 131.8C79.5333 128.467 74.1333 126.8 67.6 126.8C61.0667 126.8 55.6 128.467 51.2 131.8C46.9333 135 44.8 139.4 44.8 145C44.8 150.6 46.9333 155.067 51.2 158.4C55.6 161.733 61.0667 163.4 67.6 163.4ZM187.952 180.4C186.618 180.4 185.418 179.933 184.352 179C183.418 177.933 182.952 176.733 182.952 175.4V138.8H147.352C145.885 138.8 144.618 138.333 143.552 137.4C142.618 136.467 142.152 135.267 142.152 133.8V119.2C142.152 117.733 142.618 116.533 143.552 115.6C144.618 114.533 145.885 114 147.352 114H182.952V78.6C182.952 77.1333 183.418 75.9333 184.352 75C185.418 74.0666 186.618 73.6 187.952 73.6H204.352C205.818 73.6 207.018 74.0666 207.952 75C208.885 75.9333 209.352 77.1333 209.352 78.6V114H244.752C246.218 114 247.418 114.533 248.352 115.6C249.285 116.533 249.752 117.733 249.752 119.2V133.8C249.752 135.267 249.285 136.467 248.352 137.4C247.418 138.333 246.218 138.8 244.752 138.8H209.352V175.4C209.352 176.733 208.885 177.933 207.952 179C207.018 179.933 205.818 180.4 204.352 180.4H187.952Z" fill="#FFDDCD"/>
<path d="M15.2 187C14.88 187 14.592 186.888 14.336 186.664C14.112 186.408 14 186.12 14 185.8V175.48L2.864 154.936C2.768 154.648 2.72 154.472 2.72 154.408C2.72 154.152 2.816 153.928 3.008 153.736C3.232 153.512 3.488 153.4 3.776 153.4H9.776C10.416 153.4 10.976 153.736 11.456 154.408L18.32 166.792L25.232 154.408C25.616 153.736 26.176 153.4 26.912 153.4H32.912C33.2 153.4 33.44 153.512 33.632 153.736C33.824 153.928 33.92 154.152 33.92 154.408C33.92 154.568 33.888 154.744 33.824 154.936L22.688 175.48V185.8C22.688 186.152 22.56 186.44 22.304 186.664C22.08 186.888 21.792 187 21.44 187H15.2ZM39.2319 187C38.9119 187 38.6239 186.888 38.3679 186.664C38.1439 186.408 38.0319 186.12 38.0319 185.8V154.6C38.0319 154.248 38.1439 153.96 38.3679 153.736C38.6239 153.512 38.9119 153.4 39.2319 153.4H61.6479C61.9999 153.4 62.2879 153.512 62.5119 153.736C62.7359 153.96 62.8479 154.248 62.8479 154.6V159.112C62.8479 159.432 62.7359 159.72 62.5119 159.976C62.2879 160.2 61.9999 160.312 61.6479 160.312H46.3359V166.792H60.5919C60.9439 166.792 61.2319 166.92 61.4559 167.176C61.6799 167.4 61.7919 167.688 61.7919 168.04V172.216C61.7919 172.536 61.6799 172.824 61.4559 173.08C61.2319 173.304 60.9439 173.416 60.5919 173.416H46.3359V180.088H62.0319C62.3839 180.088 62.6719 180.2 62.8959 180.424C63.1199 180.648 63.2319 180.936 63.2319 181.288V185.8C63.2319 186.12 63.1199 186.408 62.8959 186.664C62.6719 186.888 62.3839 187 62.0319 187H39.2319ZM66.7681 187C66.5121 187 66.2721 186.904 66.0481 186.712C65.8561 186.488 65.7601 186.248 65.7601 185.992C65.7601 185.8 65.7761 185.656 65.8081 185.56L77.0881 154.744C77.1841 154.36 77.3921 154.04 77.7121 153.784C78.0321 153.528 78.4481 153.4 78.9601 153.4H86.0641C86.5761 153.4 86.9921 153.528 87.3121 153.784C87.6321 154.04 87.8401 154.36 87.9361 154.744L99.1681 185.56L99.2641 185.992C99.2641 186.248 99.1521 186.488 98.9281 186.712C98.7361 186.904 98.4961 187 98.2081 187H92.3041C91.5361 187 91.0241 186.664 90.7681 185.992L88.8961 181.096H76.0801L74.2561 185.992C74.0001 186.664 73.4721 187 72.6721 187H66.7681ZM86.9761 174.184L82.5121 161.512L78.0481 174.184H86.9761ZM104.248 187C103.928 187 103.64 186.888 103.384 186.664C103.16 186.408 103.048 186.12 103.048 185.8V154.6C103.048 154.248 103.16 153.96 103.384 153.736C103.64 153.512 103.928 153.4 104.248 153.4H117.304C121.496 153.4 124.76 154.36 127.096 156.28C129.464 158.168 130.648 160.856 130.648 164.344C130.648 166.584 130.12 168.488 129.064 170.056C128.008 171.624 126.552 172.824 124.696 173.656L131.272 185.464C131.368 185.656 131.416 185.832 131.416 185.992C131.416 186.248 131.304 186.488 131.08 186.712C130.888 186.904 130.664 187 130.408 187H124.024C123.096 187 122.44 186.568 122.056 185.704L116.584 175.144H111.688V185.8C111.688 186.152 111.56 186.44 111.304 186.664C111.08 186.888 110.792 187 110.44 187H104.248ZM117.208 168.328C118.68 168.328 119.8 167.976 120.568 167.272C121.336 166.536 121.72 165.528 121.72 164.248C121.72 162.968 121.336 161.96 120.568 161.224C119.832 160.456 118.712 160.072 117.208 160.072H111.688V168.328H117.208ZM148.763 187.48C145.723 187.48 143.115 187.032 140.939 186.136C138.763 185.24 137.115 184.072 135.995 182.632C134.907 181.16 134.331 179.56 134.267 177.832C134.267 177.576 134.363 177.352 134.555 177.16C134.779 176.936 135.035 176.824 135.323 176.824H141.371C141.755 176.824 142.059 176.904 142.283 177.064C142.539 177.192 142.795 177.4 143.051 177.688C143.467 178.52 144.139 179.208 145.067 179.752C145.995 180.296 147.227 180.568 148.763 180.568C150.587 180.568 151.979 180.28 152.939 179.704C153.899 179.128 154.379 178.344 154.379 177.352C154.379 176.648 154.123 176.072 153.611 175.624C153.131 175.176 152.363 174.776 151.307 174.424C150.251 174.072 148.683 173.672 146.603 173.224C142.763 172.424 139.883 171.256 137.963 169.72C136.075 168.152 135.131 165.928 135.131 163.048C135.131 161.096 135.675 159.352 136.763 157.816C137.851 156.28 139.403 155.08 141.419 154.216C143.435 153.352 145.787 152.92 148.475 152.92C151.259 152.92 153.675 153.4 155.723 154.36C157.771 155.32 159.323 156.536 160.379 158.008C161.467 159.448 162.043 160.872 162.107 162.28C162.107 162.568 162.011 162.808 161.819 163C161.627 163.192 161.387 163.288 161.099 163.288H154.763C154.379 163.288 154.059 163.224 153.803 163.096C153.579 162.968 153.371 162.76 153.179 162.472C152.987 161.736 152.459 161.112 151.595 160.6C150.763 160.088 149.723 159.832 148.475 159.832C147.035 159.832 145.931 160.088 145.163 160.6C144.395 161.112 144.011 161.864 144.011 162.856C144.011 163.528 144.219 164.088 144.635 164.536C145.083 164.984 145.787 165.4 146.747 165.784C147.739 166.136 149.147 166.504 150.971 166.888C153.947 167.432 156.315 168.12 158.075 168.952C159.867 169.752 161.179 170.808 162.011 172.12C162.843 173.4 163.259 175.016 163.259 176.968C163.259 179.112 162.635 180.984 161.387 182.584C160.171 184.152 158.459 185.368 156.251 186.232C154.075 187.064 151.579 187.48 148.763 187.48ZM192.01 187.48C187.498 187.48 183.946 186.376 181.354 184.168C178.762 181.96 177.386 178.712 177.226 174.424C177.194 173.496 177.178 172.12 177.178 170.296C177.178 168.44 177.194 167.048 177.226 166.12C177.386 161.896 178.778 158.648 181.402 156.376C184.058 154.072 187.594 152.92 192.01 152.92C196.426 152.92 199.962 154.072 202.618 156.376C205.274 158.648 206.666 161.896 206.794 166.12C206.858 167.976 206.89 169.368 206.89 170.296C206.89 171.192 206.858 172.568 206.794 174.424C206.634 178.712 205.258 181.96 202.666 184.168C200.074 186.376 196.522 187.48 192.01 187.48ZM192.01 180.568C193.77 180.568 195.162 180.04 196.186 178.984C197.242 177.928 197.802 176.312 197.866 174.136C197.93 172.28 197.962 170.968 197.962 170.2C197.962 169.368 197.93 168.056 197.866 166.264C197.802 164.088 197.242 162.472 196.186 161.416C195.13 160.36 193.738 159.832 192.01 159.832C190.282 159.832 188.89 160.36 187.834 161.416C186.81 162.472 186.25 164.088 186.154 166.264C186.122 167.16 186.106 168.472 186.106 170.2C186.106 171.896 186.122 173.208 186.154 174.136C186.25 176.312 186.81 177.928 187.834 178.984C188.858 180.04 190.25 180.568 192.01 180.568ZM213.654 187C213.334 187 213.046 186.888 212.79 186.664C212.566 186.408 212.454 186.12 212.454 185.8V154.6C212.454 154.248 212.566 153.96 212.79 153.736C213.046 153.512 213.334 153.4 213.654 153.4H235.734C236.086 153.4 236.374 153.512 236.598 153.736C236.822 153.96 236.934 154.248 236.934 154.6V159.448C236.934 159.768 236.822 160.056 236.598 160.312C236.374 160.536 236.086 160.648 235.734 160.648H220.902V167.704H234.774C235.126 167.704 235.414 167.832 235.638 168.088C235.862 168.312 235.974 168.6 235.974 168.952V173.752C235.974 174.072 235.862 174.36 235.638 174.616C235.414 174.84 235.126 174.952 234.774 174.952H220.902V185.8C220.902 186.152 220.79 186.44 220.566 186.664C220.342 186.888 220.054 187 219.702 187H213.654ZM259.108 187C258.788 187 258.5 186.888 258.244 186.664C258.02 186.408 257.908 186.12 257.908 185.8V160.936H249.364C249.044 160.936 248.756 160.824 248.5 160.6C248.276 160.344 248.164 160.056 248.164 159.736V154.6C248.164 154.248 248.276 153.96 248.5 153.736C248.756 153.512 249.044 153.4 249.364 153.4H275.188C275.54 153.4 275.828 153.512 276.052 153.736C276.276 153.96 276.388 154.248 276.388 154.6V159.736C276.388 160.088 276.276 160.376 276.052 160.6C275.828 160.824 275.54 160.936 275.188 160.936H266.644V185.8C266.644 186.12 266.532 186.408 266.308 186.664C266.084 186.888 265.796 187 265.444 187H259.108ZM281.951 187C281.631 187 281.343 186.888 281.087 186.664C280.863 186.408 280.751 186.12 280.751 185.8V154.6C280.751 154.248 280.863 153.96 281.087 153.736C281.343 153.512 281.631 153.4 281.951 153.4H304.367C304.719 153.4 305.007 153.512 305.231 153.736C305.455 153.96 305.567 154.248 305.567 154.6V159.112C305.567 159.432 305.455 159.72 305.231 159.976C305.007 160.2 304.719 160.312 304.367 160.312H289.055V166.792H303.311C303.663 166.792 303.951 166.92 304.175 167.176C304.399 167.4 304.511 167.688 304.511 168.04V172.216C304.511 172.536 304.399 172.824 304.175 173.08C303.951 173.304 303.663 173.416 303.311 173.416H289.055V180.088H304.751C305.103 180.088 305.391 180.2 305.615 180.424C305.839 180.648 305.951 180.936 305.951 181.288V185.8C305.951 186.12 305.839 186.408 305.615 186.664C305.391 186.888 305.103 187 304.751 187H281.951ZM309.487 187C309.231 187 308.991 186.904 308.767 186.712C308.575 186.488 308.479 186.248 308.479 185.992C308.479 185.8 308.495 185.656 308.527 185.56L319.807 154.744C319.903 154.36 320.111 154.04 320.431 153.784C320.751 153.528 321.167 153.4 321.679 153.4H328.783C329.295 153.4 329.711 153.528 330.031 153.784C330.351 154.04 330.559 154.36 330.655 154.744L341.887 185.56L341.983 185.992C341.983 186.248 341.871 186.488 341.647 186.712C341.455 186.904 341.215 187 340.927 187H335.023C334.255 187 333.743 186.664 333.487 185.992L331.615 181.096H318.799L316.975 185.992C316.719 186.664 316.191 187 315.391 187H309.487ZM329.695 174.184L325.231 161.512L320.767 174.184H329.695ZM358.839 187.48C354.263 187.48 350.679 186.376 348.087 184.168C345.527 181.928 344.167 178.696 344.007 174.472C343.975 173.608 343.959 172.2 343.959 170.248C343.959 168.264 343.975 166.824 344.007 165.928C344.167 161.768 345.559 158.568 348.183 156.328C350.807 154.056 354.359 152.92 358.839 152.92C361.655 152.92 364.183 153.4 366.423 154.36C368.663 155.288 370.423 156.632 371.703 158.392C373.015 160.12 373.687 162.152 373.719 164.488V164.584C373.719 164.84 373.607 165.064 373.383 165.256C373.191 165.416 372.967 165.496 372.711 165.496H366.231C365.815 165.496 365.495 165.416 365.271 165.256C365.047 165.064 364.855 164.728 364.695 164.248C364.247 162.616 363.543 161.48 362.583 160.84C361.623 160.168 360.359 159.832 358.791 159.832C355.015 159.832 353.063 161.944 352.935 166.168C352.903 167.032 352.887 168.36 352.887 170.152C352.887 171.944 352.903 173.304 352.935 174.232C353.063 178.456 355.015 180.568 358.791 180.568C360.359 180.568 361.639 180.232 362.631 179.56C363.623 178.856 364.311 177.72 364.695 176.152C364.823 175.672 364.999 175.352 365.223 175.192C365.447 175 365.783 174.904 366.231 174.904H372.711C372.999 174.904 373.239 175 373.431 175.192C373.655 175.384 373.751 175.624 373.719 175.912C373.687 178.248 373.015 180.296 371.703 182.056C370.423 183.784 368.663 185.128 366.423 186.088C364.183 187.016 361.655 187.48 358.839 187.48ZM379.966 187C379.614 187 379.326 186.888 379.102 186.664C378.878 186.44 378.766 186.152 378.766 185.8V154.6C378.766 154.248 378.878 153.96 379.102 153.736C379.358 153.512 379.646 153.4 379.966 153.4H386.158C386.51 153.4 386.798 153.512 387.022 153.736C387.278 153.96 387.406 154.248 387.406 154.6V166.168H399.214V154.6C399.214 154.248 399.326 153.96 399.55 153.736C399.774 153.512 400.062 153.4 400.414 153.4H406.606C406.958 153.4 407.246 153.512 407.47 153.736C407.694 153.96 407.806 154.248 407.806 154.6V185.8C407.806 186.152 407.694 186.44 407.47 186.664C407.246 186.888 406.958 187 406.606 187H400.414C400.062 187 399.774 186.888 399.55 186.664C399.326 186.44 399.214 186.152 399.214 185.8V173.848H387.406V185.8C387.406 186.152 387.278 186.44 387.022 186.664C386.798 186.888 386.51 187 386.158 187H379.966ZM415.732 187C415.412 187 415.124 186.888 414.868 186.664C414.644 186.408 414.532 186.12 414.532 185.8V154.6C414.532 154.248 414.644 153.96 414.868 153.736C415.124 153.512 415.412 153.4 415.732 153.4H422.164C422.516 153.4 422.804 153.512 423.028 153.736C423.284 153.96 423.412 154.248 423.412 154.6V185.8C423.412 186.152 423.284 186.44 423.028 186.664C422.804 186.888 422.516 187 422.164 187H415.732ZM431.294 187C430.974 187 430.686 186.888 430.43 186.664C430.206 186.408 430.094 186.12 430.094 185.8V154.6C430.094 154.248 430.206 153.96 430.43 153.736C430.686 153.512 430.974 153.4 431.294 153.4H436.382C437.182 153.4 437.726 153.704 438.014 154.312L449.726 172.744V154.6C449.726 154.248 449.838 153.96 450.062 153.736C450.318 153.512 450.606 153.4 450.926 153.4H456.686C457.038 153.4 457.326 153.512 457.55 153.736C457.774 153.96 457.886 154.248 457.886 154.6V185.752C457.886 186.104 457.774 186.408 457.55 186.664C457.326 186.888 457.038 187 456.686 187H451.55C450.846 187 450.318 186.696 449.966 186.088L438.254 168.328V185.8C438.254 186.12 438.142 186.408 437.918 186.664C437.694 186.888 437.406 187 437.054 187H431.294ZM478.466 187.48C473.858 187.48 470.258 186.36 467.666 184.12C465.074 181.848 463.698 178.632 463.538 174.472C463.506 173.544 463.49 172.072 463.49 170.056C463.49 168.04 463.506 166.568 463.538 165.64C463.698 161.576 465.09 158.44 467.714 156.232C470.37 154.024 473.954 152.92 478.466 152.92C481.506 152.92 484.146 153.416 486.386 154.408C488.658 155.4 490.386 156.664 491.57 158.2C492.786 159.736 493.426 161.32 493.49 162.952C493.49 163.24 493.378 163.48 493.154 163.672C492.962 163.864 492.722 163.96 492.434 163.96H485.426C485.106 163.96 484.85 163.912 484.658 163.816C484.466 163.72 484.306 163.544 484.178 163.288C483.762 162.36 483.106 161.56 482.21 160.888C481.314 160.184 480.066 159.832 478.466 159.832C474.658 159.832 472.658 161.848 472.466 165.88C472.434 166.776 472.418 168.168 472.418 170.056C472.418 171.912 472.434 173.304 472.466 174.232C472.658 178.456 474.706 180.568 478.61 180.568C480.498 180.568 482.002 180.088 483.122 179.128C484.274 178.136 484.85 176.632 484.85 174.616V173.704H480.338C479.986 173.704 479.698 173.592 479.474 173.368C479.25 173.112 479.138 172.808 479.138 172.456V168.904C479.138 168.552 479.25 168.264 479.474 168.04C479.698 167.784 479.986 167.656 480.338 167.656H492.434C492.786 167.656 493.074 167.784 493.298 168.04C493.522 168.264 493.634 168.552 493.634 168.904V174.376C493.634 177.096 493.01 179.448 491.762 181.432C490.514 183.384 488.738 184.888 486.434 185.944C484.162 186.968 481.506 187.48 478.466 187.48Z" fill="#FF7939"/>
</svg>
