<svg width="611" height="716" viewBox="0 0 611 716" fill="none" xmlns="http://www.w3.org/2000/svg">
<path opacity="0.25" d="M610.337 324.907C615.83 357.697 619.013 395.058 613.367 446.387C607.722 497.716 593.248 563.015 554.382 596.018C515.691 629.33 453.091 630.482 402.664 608.43C352.236 586.377 313.981 541.121 269.45 500.639C224.918 460.158 174.111 424.451 157.538 377.126C140.655 329.976 158.8 271.167 196.402 235.208C234.178 199.557 291.412 186.757 332.695 145.043C374.153 103.638 399.311 32.7026 433.533 23.9471C467.929 15.5006 511.214 68.9253 538.191 114.443C565.343 160.27 576.671 198.325 586.305 231.22C595.938 264.115 604.535 292.293 610.337 324.907Z" fill="#FF7939"/>
<path opacity="0.15" d="M347.977 139.622C379.027 150.901 412.9 166.41 454.535 196.371C496.17 226.332 545.568 270.744 555.095 320.444C564.974 370.143 535.336 424.778 491.583 457.558C447.831 490.339 389.965 501.266 333.158 519.947C276.35 538.628 220.601 565.064 171.556 556.252C122.511 547.793 80.5231 503.38 67.8209 453.328C55.4714 403.276 72.4078 347.585 56.5299 291.54C41.0049 235.496 -8.04004 179.1 1.13384 145.262C10.6606 111.424 78.0533 100.144 130.627 99.0867C183.553 98.0293 222.013 106.841 255.18 114.596C288.347 122.35 316.927 128.695 347.977 139.622Z" fill="#FF7939"/>
<g clip-path="url(#clip0_1645_14312)">
<path d="M238.587 258.396C238.498 258.396 238.441 258.394 238.422 258.393L227.731 258.394V256.817H238.461C238.709 256.826 243.777 256.969 248.447 251.303C255.406 242.858 261.121 221.952 248.827 170.315C232.295 100.881 246.083 39.5402 252.778 16.3903C253.108 15.2449 253.167 14.0386 252.951 12.8665C252.734 11.6945 252.248 10.5888 251.531 9.63696C250.814 8.68508 249.885 7.91305 248.818 7.38187C247.751 6.85069 246.575 6.57491 245.383 6.57633H85.7209C84.507 6.57796 83.3106 6.86577 82.2288 7.41642C81.147 7.96707 80.2103 8.76503 79.4947 9.74554C76.6584 13.6471 72.766 21.1423 70.3304 34.695L68.7791 34.4164C71.2675 20.5693 75.2864 12.8535 78.2197 8.81883C79.0817 7.63737 80.2102 6.67584 81.5136 6.01231C82.8169 5.34879 84.2583 5.00196 85.7209 5H245.383C246.819 4.99862 248.236 5.33126 249.522 5.97163C250.808 6.612 251.927 7.54256 252.791 8.6898C253.655 9.83703 254.241 11.1695 254.501 12.582C254.762 13.9944 254.691 15.4481 254.293 16.8282C247.632 39.8581 233.915 100.881 250.36 169.95C262.828 222.313 256.834 243.672 249.611 252.369C244.847 258.105 239.597 258.396 238.587 258.396Z" fill="#E6E6E6"/>
<path d="M209.819 287.164C209.73 287.164 209.674 287.162 209.654 287.16L198.963 287.162V285.585H209.693C209.942 285.593 215.009 285.737 219.679 280.071C226.638 271.626 232.353 250.72 220.059 199.083C203.527 129.649 217.315 68.3081 224.01 45.1582C224.34 44.0129 224.399 42.8065 224.183 41.6345C223.966 40.4624 223.48 39.3568 222.763 38.4049C222.046 37.453 221.117 36.681 220.05 36.1498C218.983 35.6186 217.807 35.3429 216.615 35.3443H56.9529C55.739 35.3459 54.5427 35.6337 53.4609 36.1844C52.3791 36.735 51.4423 37.533 50.7267 38.5135C47.8904 42.415 43.9981 49.9103 41.5625 63.463L40.011 63.1843C42.4995 49.3372 46.5184 41.6215 49.4517 37.5868C50.3138 36.4053 51.4422 35.4438 52.7456 34.7803C54.0489 34.1167 55.4904 33.7699 56.9529 33.7679H216.615C218.051 33.7666 219.468 34.0992 220.754 34.7396C222.04 35.3799 223.159 36.3105 224.023 37.4577C224.887 38.605 225.473 39.9375 225.733 41.3499C225.994 42.7623 225.923 44.216 225.525 45.5962C218.864 68.626 205.147 129.649 221.592 198.718C234.06 251.081 228.066 272.44 220.843 281.137C216.079 286.873 210.829 287.164 209.819 287.164Z" fill="#CCCCCC"/>
<path d="M181.051 315.932C180.962 315.932 180.906 315.929 180.886 315.928L23.6847 315.929C22.1712 315.931 20.6803 315.562 19.3425 314.854C18.0048 314.146 16.8609 313.121 16.0109 311.869C15.161 310.617 14.6309 309.175 14.4671 307.671C14.3033 306.166 14.5108 304.644 15.0714 303.238C20.7752 288.988 28.455 254.799 15.8056 185.929C0.868776 104.606 14.2412 75.216 20.6838 66.3546C21.5458 65.1731 22.6744 64.2116 23.9777 63.5481C25.2811 62.8845 26.7226 62.5377 28.1851 62.5358H187.847C189.284 62.5344 190.701 62.867 191.986 63.5074C193.272 64.1478 194.391 65.0783 195.255 66.2256C196.119 67.3728 196.705 68.7053 196.965 70.1177C197.226 71.5302 197.155 72.9839 196.757 74.364C190.096 97.3939 176.379 158.416 192.825 227.486C205.292 279.849 199.299 301.208 192.075 309.905C187.311 315.641 182.061 315.932 181.051 315.932ZM28.1851 64.1121C26.9712 64.1137 25.7748 64.4015 24.693 64.9522C23.6112 65.5028 22.6744 66.3008 21.9587 67.2813C15.6356 75.9784 2.52938 104.922 17.3559 185.644C29.4399 251.435 23.5792 286.224 16.5347 303.824C16.0599 304.985 15.8817 306.246 16.0162 307.494C16.1506 308.741 16.5935 309.935 17.3048 310.968C18.0101 312.012 18.9606 312.866 20.073 313.456C21.1853 314.046 22.4255 314.354 23.6846 314.353H180.925C181.173 314.365 186.242 314.506 190.911 308.839C197.871 300.394 203.585 279.488 191.291 227.85C174.759 158.417 188.547 97.076 195.243 73.926C195.573 72.7807 195.632 71.5744 195.415 70.4023C195.198 69.2302 194.712 68.1246 193.995 67.1727C193.278 66.2209 192.349 65.4488 191.282 64.9176C190.215 64.3865 189.039 64.1107 187.847 64.1121H28.1851Z" fill="#3F3D56"/>
<path d="M160.69 133.47H35.3727C33.7004 133.47 32.0966 132.806 30.9142 131.624C29.7317 130.441 29.0674 128.837 29.0674 127.165C29.0674 125.493 29.7317 123.889 30.9142 122.707C32.0966 121.524 33.7004 120.86 35.3727 120.86H160.69C162.363 120.86 163.966 121.524 165.149 122.707C166.331 123.889 166.996 125.493 166.996 127.165C166.996 128.837 166.331 130.441 165.149 131.624C163.966 132.806 162.363 133.47 160.69 133.47Z" fill="#31DC9E"/>
<path d="M160.69 160.268H35.3727C33.7004 160.268 32.0966 159.604 30.9142 158.421C29.7317 157.239 29.0674 155.635 29.0674 153.963C29.0674 152.29 29.7317 150.687 30.9142 149.504C32.0966 148.322 33.7004 147.657 35.3727 147.657H160.69C162.363 147.657 163.966 148.322 165.149 149.504C166.331 150.687 166.996 152.29 166.996 153.963C166.996 155.635 166.331 157.239 165.149 158.421C163.966 159.604 162.363 160.268 160.69 160.268Z" fill="#CCCCCC"/>
<path d="M160.69 187.065H35.3727C33.7004 187.065 32.0966 186.401 30.9142 185.219C29.7317 184.036 29.0674 182.432 29.0674 180.76C29.0674 179.088 29.7317 177.484 30.9142 176.302C32.0966 175.119 33.7004 174.455 35.3727 174.455H160.69C162.363 174.455 163.966 175.119 165.149 176.302C166.331 177.484 166.996 179.088 166.996 180.76C166.996 182.432 166.331 184.036 165.149 185.219C163.966 186.401 162.363 187.065 160.69 187.065Z" fill="#CCCCCC"/>
<path d="M170.148 213.863H44.8306C43.1583 213.863 41.5545 213.199 40.372 212.016C39.1896 210.834 38.5253 209.23 38.5253 207.558C38.5253 205.885 39.1896 204.282 40.372 203.099C41.5545 201.917 43.1583 201.252 44.8306 201.252H170.148C171.821 201.252 173.424 201.917 174.607 203.099C175.789 204.282 176.454 205.885 176.454 207.558C176.454 209.23 175.789 210.834 174.607 212.016C173.424 213.199 171.821 213.863 170.148 213.863Z" fill="#CCCCCC"/>
<path d="M170.148 240.66H44.8306C43.1583 240.66 41.5545 239.996 40.372 238.814C39.1896 237.631 38.5253 236.027 38.5253 234.355C38.5253 232.683 39.1896 231.079 40.372 229.897C41.5545 228.714 43.1583 228.05 44.8306 228.05H170.148C171.821 228.05 173.424 228.714 174.607 229.897C175.789 231.079 176.454 232.683 176.454 234.355C176.454 236.027 175.789 237.631 174.607 238.814C173.424 239.996 171.821 240.66 170.148 240.66Z" fill="#CCCCCC"/>
<path d="M94.4848 106.673H35.3727C33.7004 106.673 32.0966 106.009 30.9142 104.826C29.7317 103.644 29.0674 102.04 29.0674 100.368C29.0674 98.6953 29.7317 97.0915 30.9142 95.909C32.0966 94.7266 33.7004 94.0623 35.3727 94.0623H94.4848C96.1571 94.0623 97.7609 94.7266 98.9433 95.909C100.126 97.0915 100.79 98.6953 100.79 100.368C100.79 102.04 100.126 103.644 98.9433 104.826C97.7609 106.009 96.1571 106.673 94.4848 106.673Z" fill="#31DC9E"/>
<path d="M86.8521 283.869C88.1242 278.482 94.1015 276.716 98.9884 276.913C102.076 277.122 105.139 277.606 108.14 278.361C111.28 279.064 114.389 279.896 117.483 280.778C123.157 282.396 128.772 284.353 134.539 285.618C139.34 286.671 144.557 287.289 149.345 285.835C153.948 284.437 157.852 281.006 159.104 276.263C160.284 271.793 158.664 266.905 154.333 264.862C150.383 263 145.393 263.947 143.435 268.16C141.228 272.91 143.433 278.09 146.929 281.527C148.915 283.393 151.091 285.045 153.421 286.459C155.786 288.07 158.419 289.249 161.196 289.941C165.755 290.915 171.187 289.48 173.538 285.124C174.061 284.138 174.375 283.055 174.462 281.942C174.601 280.427 172.235 280.437 172.097 281.942C171.698 286.279 166.619 288.311 162.82 287.835C160.256 287.41 157.807 286.46 155.628 285.044C153.524 283.817 151.531 282.411 149.671 280.84C146.449 278.052 143.429 273.464 145.593 269.113C147.355 265.57 151.948 265.606 154.741 267.89C158.125 270.657 157.521 275.68 155.29 278.965C152.819 282.604 148.341 284.129 144.119 284.294C139.531 284.472 134.981 283.419 130.596 282.174C125.148 280.627 119.754 278.896 114.28 277.439C111.172 276.612 108.04 275.866 104.876 275.285C101.884 274.626 98.8113 274.413 95.7572 274.654C90.8234 275.224 85.787 278.096 84.5721 283.24C84.2226 284.72 86.502 285.352 86.8521 283.869L86.8521 283.869Z" fill="#3F3D56"/>
<path d="M173.73 284.429C173.431 284.18 173.212 283.848 173.101 283.475C172.991 283.102 172.993 282.705 173.108 282.333C173.223 281.962 173.445 281.632 173.747 281.387C174.048 281.141 174.416 280.991 174.803 280.954C179.102 280.538 183.44 280.983 187.566 282.262L229.587 295.239C230.131 295.407 230.636 295.681 231.074 296.044C231.513 296.407 231.875 296.853 232.141 297.357C232.407 297.86 232.571 298.411 232.624 298.978C232.677 299.545 232.617 300.116 232.449 300.66C232.281 301.204 232.008 301.71 231.645 302.148C231.281 302.586 230.835 302.949 230.332 303.214C229.828 303.48 229.278 303.644 228.711 303.697C228.144 303.75 227.572 303.691 227.028 303.523L185.007 290.545C180.879 289.275 177.046 287.196 173.73 284.429Z" fill="#3F3D56"/>
<path d="M345.98 338.339C344.839 337.86 343.816 337.137 342.984 336.22C342.152 335.304 341.532 334.216 341.166 333.033C340.8 331.851 340.698 330.602 340.867 329.376C341.036 328.15 341.471 326.975 342.143 325.936L334.941 288.268L353.298 286.837L354.406 323.681C356.078 324.926 357.235 326.74 357.659 328.78C358.082 330.821 357.742 332.946 356.704 334.753C355.665 336.559 354 337.922 352.023 338.583C350.047 339.244 347.897 339.157 345.98 338.339Z" fill="#FFB8B8"/>
<path d="M333.808 318.899L315.11 231.821C314.342 228.244 315.027 224.509 317.013 221.437C318.999 218.365 322.124 216.208 325.7 215.44C329.277 214.672 333.012 215.357 336.084 217.343C339.156 219.329 341.313 222.454 342.081 226.03L360.779 313.108C360.975 314.027 360.798 314.987 360.288 315.777C359.778 316.567 358.975 317.122 358.056 317.32L338.02 321.622C337.565 321.72 337.094 321.727 336.636 321.643C336.178 321.559 335.741 321.386 335.35 321.133C334.958 320.88 334.621 320.553 334.356 320.169C334.092 319.786 333.905 319.354 333.808 318.899Z" fill="#31DC9E"/>
<path d="M303.118 455.879H293.456L288.859 418.609L303.121 418.609L303.118 455.879Z" fill="#FFB8B8"/>
<path d="M286.554 453.118H305.189V464.851H274.821C274.821 463.31 275.124 461.785 275.714 460.361C276.304 458.938 277.168 457.644 278.257 456.555C279.347 455.465 280.64 454.601 282.064 454.011C283.487 453.421 285.013 453.118 286.554 453.118Z" fill="#2F2E41"/>
<path d="M335.433 455.091H325.771L321.174 417.82L335.435 417.821L335.433 455.091Z" fill="#FFB8B8"/>
<path d="M318.869 452.33H337.504V464.063H307.135C307.135 462.522 307.439 460.996 308.029 459.573C308.618 458.149 309.482 456.856 310.572 455.766C311.661 454.677 312.955 453.812 314.379 453.223C315.802 452.633 317.328 452.33 318.869 452.33Z" fill="#2F2E41"/>
<path d="M291.542 448.927C291.179 448.63 290.88 448.263 290.661 447.848C290.443 447.434 290.309 446.98 290.268 446.513L279.034 322.946C278.991 322.466 279.045 321.983 279.195 321.525C279.344 321.067 279.585 320.644 279.903 320.283C280.221 319.921 280.61 319.628 281.045 319.421C281.48 319.214 281.952 319.098 282.434 319.08L338.771 316.968C339.259 316.949 339.745 317.032 340.199 317.21C340.653 317.388 341.066 317.658 341.411 318.003C341.756 318.348 342.026 318.76 342.205 319.214C342.383 319.668 342.466 320.154 342.449 320.642L337.945 443.735C337.912 444.596 337.567 445.416 336.974 446.042C336.381 446.668 335.58 447.057 334.722 447.137L323.362 448.17C322.891 448.212 322.416 448.161 321.966 448.017C321.515 447.874 321.097 447.642 320.738 447.334C320.378 447.027 320.084 446.651 319.871 446.229C319.659 445.806 319.534 445.345 319.502 444.873L314.289 366.674C314.285 366.524 314.252 366.376 314.19 366.239C314.129 366.102 314.041 365.978 313.931 365.875C313.821 365.773 313.692 365.693 313.551 365.641C313.41 365.588 313.26 365.565 313.11 365.571H313.105C312.955 365.565 312.804 365.589 312.663 365.642C312.522 365.696 312.393 365.776 312.283 365.88C312.174 365.983 312.086 366.108 312.025 366.246C311.964 366.384 311.932 366.533 311.929 366.683L307.264 445.409C307.217 446.252 306.87 447.051 306.285 447.66C305.7 448.268 304.917 448.648 304.076 448.728L294.153 449.721C293.687 449.769 293.215 449.724 292.767 449.587C292.319 449.451 291.902 449.226 291.542 448.927H291.542Z" fill="#2F2E41"/>
<path d="M313.212 196.936C323.903 196.936 332.57 188.269 332.57 177.578C332.57 166.887 323.903 158.22 313.212 158.22C302.521 158.22 293.854 166.887 293.854 177.578C293.854 188.269 302.521 196.936 313.212 196.936Z" fill="#FFB8B8"/>
<path d="M275.934 323.782C275.589 323.391 275.336 322.928 275.192 322.426C275.049 321.925 275.019 321.398 275.104 320.883C278.678 299.16 276.664 267.229 274.344 244.268C273.739 238.177 274.749 232.034 277.273 226.458C279.797 220.882 283.746 216.069 288.721 212.504L298.831 203.839C299.503 203.269 300.36 202.966 301.241 202.986L326.356 203.703C327.262 203.728 328.124 204.1 328.763 204.741L332.644 213.336L332.684 213.365C337.309 216.764 341.019 221.257 343.483 226.441C345.947 231.625 347.088 237.339 346.804 243.071L343.107 319.473C343.06 320.361 342.682 321.2 342.048 321.824C341.414 322.448 340.57 322.813 339.681 322.846L278.719 324.989C278.679 324.989 278.64 324.99 278.601 324.99C278.096 324.991 277.597 324.883 277.137 324.675C276.677 324.467 276.266 324.162 275.934 323.782Z" fill="#31DC9E"/>
<path d="M202.811 291.9C202.781 290.663 203.022 289.434 203.518 288.3C204.014 287.166 204.753 286.154 205.682 285.336C206.611 284.519 207.708 283.915 208.896 283.567C210.084 283.219 211.334 283.136 212.558 283.323L243.978 261.335L252.797 277.498L219.634 293.589C219.183 295.624 218.001 297.422 216.312 298.644C214.624 299.865 212.546 300.425 210.472 300.217C208.399 300.009 206.474 299.047 205.062 297.514C203.65 295.982 202.849 293.984 202.811 291.9L202.811 291.9Z" fill="#FFB8B8"/>
<path d="M229.253 295.723C228.792 295.653 228.35 295.493 227.952 295.251C227.553 295.01 227.206 294.692 226.932 294.316L214.806 277.796C214.251 277.037 214.019 276.089 214.161 275.159C214.304 274.23 214.809 273.395 215.567 272.837L287.364 220.138C290.313 217.974 294.001 217.069 297.617 217.624C299.407 217.899 301.126 218.523 302.675 219.462C304.224 220.401 305.573 221.636 306.645 223.096C307.716 224.556 308.49 226.213 308.922 227.973C309.353 229.732 309.434 231.559 309.159 233.349C308.884 235.14 308.26 236.858 307.321 238.407C306.382 239.956 305.147 241.305 303.687 242.377L231.889 295.076C231.284 295.523 230.551 295.764 229.799 295.764C229.616 295.764 229.434 295.75 229.253 295.723Z" fill="#31DC9E"/>
<path d="M314.203 194.811C316.77 191.663 316.489 186.868 314.429 183.368C312.369 179.868 308.871 177.457 305.272 175.574C301.673 173.691 297.85 172.21 294.463 169.968C291.076 167.726 291.224 158.234 290.322 154.274L292.473 154.99C291.646 153.933 291.381 150.808 290.554 149.75C292.985 149.99 294.853 152.298 297.284 152.538L295.881 148.774C304.216 148.26 309.397 154.051 317.732 153.537C321.861 153.283 326.346 153.122 329.74 155.487C332.69 157.542 334.183 161.098 335.163 164.558C337.267 171.985 337.594 180.304 333.96 187.115C330.327 193.925 321.951 198.514 314.634 196.055L314.203 194.811Z" fill="#2F2E41"/>
</g>
<defs>
<clipPath id="clip0_1645_14312">
<rect width="500" height="460.562" fill="white" transform="translate(9 5)"/>
</clipPath>
</defs>
</svg>
