<svg width="557" height="459" viewBox="0 0 557 459" fill="none" xmlns="http://www.w3.org/2000/svg">
<path opacity="0.15" d="M347.977 40.6219C379.027 51.9012 412.9 67.4103 454.535 97.371C496.17 127.332 545.568 171.744 555.095 221.444C564.974 271.143 535.336 325.778 491.583 358.558C447.831 391.339 389.965 402.266 333.158 420.947C276.35 439.628 220.601 466.064 171.556 457.252C122.511 448.793 80.5231 404.38 67.8209 354.328C55.4714 304.276 72.4078 248.585 56.5299 192.54C41.0049 136.496 -8.04004 80.0995 1.13384 46.2615C10.6606 12.4235 78.0533 1.14417 130.627 0.0867321C183.553 -0.970706 222.013 7.84128 255.18 15.5958C288.347 23.3504 316.927 29.695 347.977 40.6219Z" fill="#FF7939"/>
</svg>
