<svg width="704" height="685" viewBox="0 0 704 685" fill="none" xmlns="http://www.w3.org/2000/svg">
<path opacity="0.15" d="M529.655 53.0683C579.65 86.2332 615.785 140.188 649.94 199.588C684.095 259.483 716.27 323.833 697.46 373.828C678.155 423.823 608.36 458.968 556.385 498.073C504.41 537.178 470.255 579.748 420.755 615.883C371.255 651.523 305.915 679.738 231.17 683.698C155.93 687.658 71.7802 667.363 46.0402 610.933C20.7952 554.503 53.9602 461.938 47.0302 378.778C40.1002 295.123 -7.41982 220.873 0.995177 159.493C9.41018 97.6183 73.7602 49.1082 141.08 23.8632C208.895 -1.38175 279.68 -2.86675 347.495 2.57825C415.31 8.02325 479.165 19.9033 529.655 53.0683Z" fill="#FF7939"/>
</svg>
