<svg width="466" height="601" viewBox="0 0 466 601" fill="none" xmlns="http://www.w3.org/2000/svg">
<path opacity="0.25" d="M459.337 301.907C464.83 334.697 468.013 372.058 462.367 423.387C456.722 474.716 442.248 540.015 403.382 573.018C364.691 606.33 302.091 607.482 251.664 585.43C201.236 563.377 162.981 518.121 118.45 477.639C73.9184 437.158 23.1109 401.451 6.53757 354.126C-10.3449 306.976 7.79992 248.167 45.4016 212.208C83.1782 176.557 140.412 163.757 181.695 122.043C223.153 80.6383 248.311 9.70265 282.533 0.947137C316.929 -7.49936 360.214 45.9253 387.191 91.4434C414.343 137.27 425.671 175.325 435.305 208.22C444.938 241.115 453.535 269.293 459.337 301.907Z" fill="#FF7939"/>
</svg>
